<svg xmlns="http://www.w3.org/2000/svg" xmlns:xlink="http://www.w3.org/1999/xlink" fill="none" version="1.1" width="688" height="48" viewBox="0 0 688 48"><defs><clipPath id="master_svg0_34_6988"><rect x="0" y="0" width="688" height="48" rx="24"/></clipPath></defs><g style="opacity:0.10000000149011612;" clip-path="url(#master_svg0_34_6988)"><g transform="matrix(1,0,0,-1,0,48)"><path d="M21.9362,33.73665Q22.4451,32.59016,22.8317,31.39687Q23.2183,30.20357,23.4784,28.97648Q23.7385,27.74939,23.8692,26.50187Q24,25.25435,24,24Q24,22.74565,23.8692,21.49813Q23.7385,20.25061,23.4784,19.02352Q23.2183,17.79643,22.8317,16.60313Q22.4451,15.40984,21.9362,14.26335L21.9362,0L17.9478,0L17.9478,8.0665Q16.659,6.614699999999999,15.1535,5.388999999999999Q13.6481,4.1632,11.9652,3.1952999999999996L11.9652,0L7.97681,0L7.97681,1.3643999999999998Q5.06784,0.3393000000000015,1.9942,0.08299999999999841L1.9942,0L0,0Q-0.589167,0,-1.17762,0.028900000000000148Q-1.76608,0.057800000000000296,-2.35241,0.11560000000000059Q-2.93874,0.17330000000000112,-3.52153,0.2597999999999985Q-4.10432,0.3461999999999996,-4.68217,0.4612000000000016Q-5.26001,0.5761000000000003,-5.83152,0.7193000000000005Q-6.40303,0.8624000000000009,-6.96683,1.0334000000000003Q-7.53063,1.2044999999999995,-8.08536,1.402899999999999Q-8.64008,1.6014000000000017,-9.1844,1.8268999999999984Q-9.72872,2.0523999999999987,-10.2613,2.3043000000000013Q-10.7939,2.5562000000000005,-11.3135,2.8339Q-11.8331,3.1115999999999993,-12.3385,3.4145000000000003Q-12.8438,3.7174000000000014,-13.3337,4.044699999999999Q-13.8236,4.3721,-14.2968,4.722999999999999Q-14.77,5.074000000000002,-15.2254,5.447800000000001Q-15.6809,5.8215,-16.1174,6.217199999999998Q-16.554,6.6128,-16.9706,7.029399999999999Q-17.3872,7.4460000000000015,-17.7828,7.8826Q-18.1785,8.3191,-18.5522,8.7746Q-18.926,9.23,-19.277,9.7032Q-19.6279,10.1764,-19.9553,10.6663Q-20.2826,11.1562,-20.5855,11.6615Q-20.8884,12.1669,-21.1661,12.6865Q-21.4438,13.2061,-21.6957,13.7387Q-21.9476,14.27128,-22.1731,14.8156Q-22.3986,15.35992,-22.5971,15.91464Q-22.7955,16.469369999999998,-22.9666,17.03317Q-23.1376,17.59697,-23.2807,18.16848Q-23.4239,18.73999,-23.5388,19.31783Q-23.6538,19.89568,-23.7402,20.47847Q-23.8267,21.06126,-23.8844,21.64759Q-23.9422,22.23392,-23.9711,22.82238Q-24,23.410833,-24,24Q-24,24.589167,-23.9711,25.17762Q-23.9422,25.76608,-23.8844,26.35241Q-23.8267,26.93874,-23.7402,27.52153Q-23.6538,28.10432,-23.5388,28.68217Q-23.4239,29.26001,-23.2807,29.83152Q-23.1376,30.40303,-22.9666,30.96683Q-22.7955,31.530630000000002,-22.5971,32.08536Q-22.3986,32.64008,-22.1731,33.1844Q-21.9476,33.728719999999996,-21.6957,34.2613Q-21.4438,34.7939,-21.1661,35.3135Q-20.8884,35.8331,-20.5855,36.338499999999996Q-20.2826,36.8438,-19.9553,37.3337Q-19.6279,37.8236,-19.277,38.2968Q-18.926,38.769999999999996,-18.5522,39.2254Q-18.1785,39.6809,-17.7828,40.1174Q-17.3872,40.554,-16.9706,40.970600000000005Q-16.554,41.3872,-16.1174,41.7828Q-15.6809,42.1785,-15.2254,42.5522Q-14.77,42.926,-14.2968,43.277Q-13.8236,43.6279,-13.3337,43.9553Q-12.8438,44.2826,-12.3385,44.585499999999996Q-11.8331,44.888400000000004,-11.3135,45.1661Q-10.7939,45.443799999999996,-10.2613,45.6957Q-9.72872,45.9476,-9.1844,46.173100000000005Q-8.64008,46.3986,-8.08536,46.5971Q-7.53063,46.795500000000004,-6.96683,46.9666Q-6.40303,47.1376,-5.83152,47.280699999999996Q-5.26001,47.4239,-4.68217,47.538799999999995Q-4.10432,47.653800000000004,-3.52153,47.7402Q-2.93874,47.8267,-2.35241,47.8844Q-1.76608,47.9422,-1.17762,47.9711Q-0.589167,48,0,48L1.9942,48L1.9942,47.917Q5.06784,47.6607,7.97681,46.6356L7.97681,48L11.9652,48L11.9652,44.8047Q13.6481,43.8368,15.1535,42.611000000000004Q16.659,41.3853,17.9478,39.9335L17.9478,48L21.9362,48L21.9362,33.73665ZM27.9188,48L31.9072,48L31.9072,0L27.9188,0L27.9188,48ZM37.8898,48L41.8782,48L41.8782,0L37.8898,0L37.8898,48ZM47.8608,48L51.8493,48L51.8493,0L47.8608,0L47.8608,48ZM57.8319,48L61.8203,48L61.8203,0L57.8319,0L57.8319,48ZM67.8029,48L71.7913,48L71.7913,0L67.8029,0L67.8029,48ZM77.7739,48L81.7623,48L81.7623,0L77.7739,0L77.7739,48ZM87.7449,48L91.7333,48L91.7333,0L87.7449,0L87.7449,48ZM97.7159,48L101.704,48L101.704,0L97.7159,0L97.7159,48ZM107.687,48L111.675,48L111.675,0L107.687,0L107.687,48ZM117.658,48L121.646,48L121.646,0L117.658,0L117.658,48ZM127.629,48L131.617,48L131.617,0L127.629,0L127.629,48ZM137.6,48L141.588,48L141.588,0L137.6,0L137.6,48ZM147.571,48L151.559,48L151.559,0L147.571,0L147.571,48ZM157.542,48L161.53,48L161.53,0L157.542,0L157.542,48ZM167.513,48L171.501,48L171.501,0L167.513,0L167.513,48ZM177.484,48L181.472,48L181.472,0L177.484,0L177.484,48ZM187.455,48L191.443,48L191.443,0L187.455,0L187.455,48ZM197.426,48L201.414,48L201.414,0L197.426,0L197.426,48ZM207.397,48L211.385,48L211.385,0L207.397,0L207.397,48ZM217.368,48L221.357,48L221.357,0L217.368,0L217.368,48ZM227.339,48L231.328,48L231.328,0L227.339,0L227.339,48ZM237.31,48L241.299,48L241.299,0L237.31,0L237.31,48ZM247.281,48L251.27,48L251.27,0L247.281,0L247.281,48ZM257.252,48L261.241,48L261.241,0L257.252,0L257.252,48ZM267.223,48L271.212,48L271.212,0L267.223,0L267.223,48ZM277.194,48L281.183,48L281.183,0L277.194,0L277.194,48ZM287.165,48L291.154,48L291.154,0L287.165,0L287.165,48ZM297.136,48L301.125,48L301.125,0L297.136,0L297.136,48ZM307.107,48L311.096,48L311.096,0L307.107,0L307.107,48ZM317.078,48L321.067,48L321.067,0L317.078,0L317.078,48ZM327.049,48L331.038,48L331.038,0L327.049,0L327.049,48ZM337.02,48L341.009,48L341.009,0L337.02,0L337.02,48ZM346.991,48L350.98,48L350.98,0L346.991,0L346.991,48ZM356.962,48L360.951,48L360.951,0L356.962,0L356.962,48ZM366.933,48L370.922,48L370.922,0L366.933,0L366.933,48ZM376.904,48L380.893,48L380.893,0L376.904,0L376.904,48ZM386.875,48L390.864,48L390.864,0L386.875,0L386.875,48ZM396.846,48L400.835,48L400.835,0L396.846,0L396.846,48ZM406.817,48L410.806,48L410.806,0L406.817,0L406.817,48ZM416.788,48L420.777,48L420.777,0L416.788,0L416.788,48ZM426.759,48L430.748,48L430.748,0L426.759,0L426.759,48ZM436.73,48L440.719,48L440.719,0L436.73,0L436.73,48ZM446.701,48L450.69,48L450.69,0L446.701,0L446.701,48ZM456.672,48L460.661,48L460.661,0L456.672,0L456.672,48ZM466.643,48L470.632,48L470.632,0L466.643,0L466.643,48ZM476.615,48L480.603,48L480.603,0L476.615,0L476.615,48ZM486.586,48L490.574,48L490.574,0L486.586,0L486.586,48ZM496.557,48L500.545,48L500.545,0L496.557,0L496.557,48ZM506.528,48L510.516,48L510.516,0L506.528,0L506.528,48ZM516.499,48L520.487,48L520.487,0L516.499,0L516.499,48ZM526.47,48L530.458,48L530.458,0L526.47,0L526.47,48ZM536.441,48L540.429,48L540.429,0L536.441,0L536.441,48ZM546.412,48L550.4,48L550.4,0L546.412,0L546.412,48ZM556.383,48L560.371,48L560.371,0L556.383,0L556.383,48ZM566.354,48L570.342,48L570.342,0L566.354,0L566.354,48ZM576.325,48L580.313,48L580.313,0L576.325,0L576.325,48ZM586.296,48L590.284,48L590.284,0L586.296,0L586.296,48ZM596.267,48L600.255,48L600.255,0L596.267,0L596.267,48ZM606.238,48L610.226,48L610.226,0L606.238,0L606.238,48ZM616.209,48L620.197,48L620.197,0L616.209,0L616.209,48ZM626.18,48L630.168,48L630.168,0L626.18,0L626.18,48ZM636.151,48L640.139,48L640.139,0L636.151,0L636.151,48ZM646.122,48L650.11,48L650.11,0L646.122,0L646.122,48ZM656.093,48L660.081,48L660.081,0L656.093,0L656.093,48ZM688,48Q688.589,48,689.178,47.9711Q689.766,47.9422,690.352,47.8844Q690.939,47.8267,691.521,47.7402Q692.104,47.653800000000004,692.682,47.538799999999995Q693.26,47.4239,693.831,47.280699999999996Q694.403,47.1376,694.967,46.9666Q695.531,46.795500000000004,696.085,46.5971Q696.64,46.3986,697.184,46.173100000000005Q697.729,45.9476,698.261,45.6957Q698.794,45.443799999999996,699.313,45.1661Q699.833,44.888400000000004,700.338,44.585499999999996Q700.844,44.2826,701.334,43.9553Q701.824,43.6279,702.297,43.277Q702.77,42.926,703.225,42.5522Q703.681,42.1785,704.117,41.7828Q704.554,41.3872,704.97,40.970600000000005Q705.387,40.554,705.783,40.1174Q706.178,39.6809,706.552,39.2254Q706.926,38.769999999999996,707.277,38.2968Q707.628,37.8236,707.955,37.3337Q708.282,36.8438,708.585,36.338499999999996Q708.888,35.8331,709.166,35.3135Q709.444,34.7939,709.696,34.2613Q709.948,33.728719999999996,710.173,33.1844Q710.398,32.64008,710.597,32.08536Q710.795,31.530630000000002,710.966,30.96683Q711.138,30.40303,711.281,29.83152Q711.424,29.26001,711.539,28.68217Q711.654,28.10432,711.74,27.52153Q711.827,26.93874,711.884,26.35241Q711.942,25.76608,711.971,25.17762Q712,24.589167,712,24Q712,23.410833,711.971,22.82238Q711.942,22.23392,711.884,21.64759Q711.827,21.06126,711.74,20.47847Q711.654,19.89568,711.539,19.31783Q711.424,18.73999,711.281,18.16848Q711.138,17.59697,710.967,17.03317Q710.795,16.469369999999998,710.597,15.91464Q710.398,15.35992,710.173,14.8156Q709.948,14.27128,709.696,13.7387Q709.444,13.2061,709.166,12.6865Q708.888,12.1669,708.585,11.6615Q708.283,11.1562,707.955,10.6663Q707.628,10.1764,707.277,9.7032Q706.926,9.23,706.552,8.7746Q706.178,8.3191,705.783,7.8826Q705.387,7.4460000000000015,704.97,7.029399999999999Q704.554,6.6128,704.117,6.217199999999998Q703.681,5.8215,703.225,5.447800000000001Q702.77,5.074000000000002,702.297,4.722999999999999Q701.824,4.3721,701.334,4.044699999999999Q700.844,3.7174000000000014,700.338,3.4145000000000003Q699.833,3.1115999999999993,699.313,2.8339Q698.794,2.5562000000000005,698.261,2.3043000000000013Q697.729,2.0523999999999987,697.184,1.8268999999999984Q696.64,1.6014000000000017,696.085,1.402899999999999Q695.531,1.2044999999999995,694.967,1.0334000000000003Q694.403,0.8624000000000009,693.831,0.7193000000000005Q693.26,0.5761000000000003,692.682,0.4612000000000016Q692.104,0.3461999999999996,691.521,0.2597999999999985Q690.939,0.17330000000000112,690.352,0.11560000000000059Q689.766,0.057800000000000296,689.178,0.028900000000000148Q688.589,0,688,0L686.006,0L686.006,0.08299999999999841Q682.932,0.3393000000000015,680.023,1.3643999999999998L680.023,0L676.035,0L676.035,3.1952999999999996Q674.352,4.1632,672.846,5.388999999999999Q671.341,6.614699999999999,670.052,8.0665L670.052,0L666.064,0L666.064,14.26335Q665.555,15.40984,665.168,16.60313Q664.782,17.79643,664.522,19.02352Q664.261,20.25061,664.131,21.49813Q664,22.74565,664,24Q664,25.25435,664.131,26.50187Q664.261,27.74939,664.522,28.97648Q664.782,30.20357,665.168,31.39687Q665.555,32.59016,666.064,33.73665L666.064,48L670.052,48L670.052,39.9335Q671.341,41.3853,672.846,42.611000000000004Q674.352,43.8368,676.035,44.8047L676.035,48L680.023,48L680.023,46.6356Q682.932,47.6607,686.006,47.917L686.006,48L688,48Z" fill-rule="evenodd" fill="#FFFFFF" fill-opacity="1"/></g></g></svg>