<svg xmlns="http://www.w3.org/2000/svg" xmlns:xlink="http://www.w3.org/1999/xlink" fill="none" version="1.1" width="140" height="140" viewBox="0 0 140 140"><defs><clipPath id="master_svg0_16_1731"><rect x="40" y="28" width="60" height="60" rx="0"/></clipPath></defs><g><g><rect x="0" y="0" width="140" height="140" rx="24" fill="#FFFFFF" fill-opacity="0.10000000149011612"/><rect x="0.5" y="0.5" width="139" height="139" rx="23.5" fill-opacity="0" stroke-opacity="0.20000000298023224" stroke="#FFFFFF" fill="none" stroke-width="1"/></g><g style="opacity:0.4000000059604645;"><path d="M17.847255,106L21.36125,94.8L23.63,94.8L27.152749999999997,106L25.20475,106L24.39075,103.3L20.5395,103.3L19.727,106L17.847255,106ZM20.968,101.8025L23.9695,101.8025L22.468,96.83125L20.968,101.8025ZM31.6353,106.1192Q30.627299999999998,106.1192,29.804000000000002,105.5725Q28.980800000000002,105.0255,28.493499999999997,104.0925Q28.0063,103.1595,28.0063,102.0033Q28.0063,100.8312,28.497799999999998,99.902Q28.9895,98.9725,29.8215,98.4257Q30.6535,97.87875,31.670299999999997,97.87875Q32.3178,97.87875,32.8765,98.1297Q33.4355,98.3807,33.863299999999995,98.8435L33.863299999999995,94.506L35.675799999999995,94.208L35.675799999999995,106L33.906800000000004,106L33.906800000000004,105.0688Q33.4805,105.578,32.902,105.84870000000001Q32.323499999999996,106.1192,31.6353,106.1192ZM32.068,104.6318Q32.6113,104.6318,33.0785,104.4212Q33.546,104.2108,33.863299999999995,103.83070000000001L33.863299999999995,100.176Q33.5373,99.7957,33.0655,99.581Q32.5938,99.36619999999999,32.068,99.36619999999999Q31.4,99.36619999999999,30.8853,99.6995Q30.3708,100.0327,30.0795,100.6252Q29.7883,101.2175,29.7883,101.9945Q29.7883,102.7557,30.0795,103.356Q30.3708,103.9563,30.8853,104.294Q31.4,104.6318,32.068,104.6318ZM41.235299999999995,106.1192Q40.2273,106.1192,39.403999999999996,105.5725Q38.580799999999996,105.0255,38.0935,104.0925Q37.606300000000005,103.1595,37.606300000000005,102.0033Q37.606300000000005,100.8312,38.0978,99.902Q38.5895,98.9725,39.4215,98.4257Q40.2535,97.87875,41.2703,97.87875Q41.9178,97.87875,42.4765,98.1297Q43.0355,98.3807,43.463300000000004,98.8435L43.463300000000004,94.506L45.275800000000004,94.208L45.275800000000004,106L43.5068,106L43.5068,105.0688Q43.0805,105.578,42.501999999999995,105.84870000000001Q41.923500000000004,106.1192,41.235299999999995,106.1192ZM41.668,104.6318Q42.2113,104.6318,42.6785,104.4212Q43.146,104.2108,43.463300000000004,103.83070000000001L43.463300000000004,100.176Q43.137299999999996,99.7957,42.6655,99.581Q42.193799999999996,99.36619999999999,41.668,99.36619999999999Q41,99.36619999999999,40.485299999999995,99.6995Q39.9708,100.0327,39.679500000000004,100.6252Q39.3883,101.2175,39.3883,101.9945Q39.3883,102.7557,39.679500000000004,103.356Q39.9708,103.9563,40.485299999999995,104.294Q41,104.6318,41.668,104.6318ZM57.3448,106L57.3448,94.8L61.284,94.8Q62.4228,94.8,63.2635,95.23949999999999Q64.1045,95.679,64.565,96.464Q65.0258,97.24875,65.0258,98.286Q65.0258,99.285,64.565,100.0672Q64.1045,100.8492,63.2635,101.2887Q62.4228,101.7283,61.284,101.7283L59.2648,101.7283L59.2648,106L57.3448,106ZM59.2648,100.142L60.988,100.142Q62.0028,100.142,62.547,99.629Q63.0913,99.1157,63.0913,98.2785Q63.0913,97.434,62.547,96.92475Q62.0028,96.41525,60.988,96.41525L59.2648,96.41525L59.2648,100.142ZM70.446,96.4085Q69.914,96.4085,69.53479999999999,96.02925Q69.1555,95.64975,69.1555,95.12675Q69.1555,94.59475,69.53479999999999,94.22Q69.914,93.845,70.446,93.845Q70.9778,93.845,71.357,94.22Q71.7365,94.59475,71.7365,95.12675Q71.7365,95.64975,71.357,96.02925Q70.9778,96.4085,70.446,96.4085ZM72.4993,106.16Q71.05,106.16,70.29249999999999,105.4755Q69.5353,104.7908,69.5353,103.436L69.5353,99.42L66.661,99.42L66.661,97.98925L71.3478,97.98925L71.3478,103.2515Q71.3478,103.9657,71.6925,104.28569999999999Q72.0373,104.6057,72.747,104.6057Q73.134,104.6057,73.519,104.5287Q73.904,104.4515,74.374,104.2652L74.374,105.792Q74.0043,105.9375,73.4938,106.0487Q72.98349999999999,106.16,72.4993,106.16ZM80.3078,106.16Q79.1235,106.16,78.1745,105.6103Q77.2255,105.0605,76.6725,104.1225Q76.1198,103.1842,76.1198,102.012Q76.1198,100.8317,76.6725,99.891Q77.2255,98.95,78.1745,98.4058Q79.1235,97.86125,80.3078,97.86125Q81.4898,97.86125,82.4423,98.3702Q83.3948,98.8792,83.9358,99.7312L82.5353,100.7Q82.2108,100.1137,81.6258,99.772Q81.041,99.43,80.315,99.43Q79.624,99.43,79.0818,99.7668Q78.5395,100.1032,78.2278,100.6807Q77.9163,101.258,77.9163,102.0115Q77.9163,102.7515,78.229,103.3337Q78.542,103.916,79.08330000000001,104.2537Q79.6248,104.5912,80.315,104.5912Q81.041,104.5912,81.6258,104.2458Q82.2108,103.9002,82.5353,103.3212L83.9358,104.2897Q83.3948,105.142,82.4423,105.651Q81.4898,106.16,80.3078,106.16ZM91.1103,106.16Q89.61,106.16,88.8307,105.498Q88.0515,104.8358,88.0515,103.5522L88.0515,99.42L85.4953,99.42L85.4953,97.98925L88.0515,97.98925L88.0515,95.78L89.864,95.39225L89.864,97.98925L93.2467,97.98925L93.2467,99.42L89.864,99.42L89.864,103.2153Q89.864,103.973,90.2243,104.2895Q90.5845,104.6057,91.3508,104.6057Q91.7643,104.6057,92.2168,104.5315Q92.6693,104.4573,93.2685,104.2622L93.2685,105.789Q92.7623,105.952,92.1958,106.056Q91.6295,106.16,91.1103,106.16ZM98.5275,106.128Q97.71,106.128,97.0807,105.7638Q96.4518,105.3993,96.0953,104.7542Q95.739,104.10900000000001,95.739,103.26820000000001L95.739,97.98925L97.5605,97.98925L97.5605,102.744Q97.5605,103.6245,98.037,104.1493Q98.5137,104.674,99.3217,104.674Q99.8473,104.674,100.2657,104.4533Q100.6845,104.2325,100.9932,103.8015L100.9932,97.98925L102.8057,97.98925L102.8057,106L100.9932,106L100.9932,104.8013Q100.077,106.128,98.5275,106.128ZM105.3345,106L105.3345,104.5693L107.3193,104.5693L107.3193,99.42L105.3345,99.42L105.3345,97.98925L109.1318,97.98925L109.1318,99.8853Q109.5273,98.8807,110.2202,98.371Q110.9135,97.86125,111.8125,97.86125Q112.1805,97.86125,112.4357,97.91375Q112.6912,97.966,113.048,98.1012L113.048,99.738Q112.6912,99.6027,112.3008,99.5265Q111.9102,99.45,111.5325,99.45Q110.7552,99.45,110.1195,99.8293Q109.4837,100.2085,109.1318,100.896L109.1318,104.5693L111.23,104.5693L111.23,106L105.3345,106ZM118.714,106.16Q117.536,106.16,116.5928,105.6095Q115.6497,105.059,115.097,104.1173Q114.5445,103.1755,114.5445,102.0017Q114.5445,100.821,115.0695,99.8872Q115.5945,98.9535,116.4975,98.4075Q117.4005,97.86125,118.522,97.86125Q119.691,97.86125,120.595,98.3995Q121.498,98.9375,122.012,99.869Q122.527,100.8002,122.527,101.9928L122.527,102.439L116.3177,102.439Q116.4107,103.0868,116.7512,103.592Q117.0917,104.0972,117.626,104.3813Q118.16,104.6653,118.798,104.6653Q119.428,104.6653,119.963,104.4268Q120.498,104.188,120.854,103.7603L122.054,104.8277Q121.357,105.5185,120.532,105.83930000000001Q119.707,106.16,118.714,106.16ZM116.3425,101.2997L120.81,101.2997Q120.707,100.7043,120.392,100.2617Q120.078,99.819,119.607,99.5723Q119.137,99.3255,118.549,99.3255Q117.994,99.3255,117.534,99.568Q117.0732,99.8102,116.7675,100.253Q116.4617,100.6955,116.3425,101.2997Z" fill="#FFFFFF" fill-opacity="1"/></g><g style="opacity:0.4000000059604645;" clip-path="url(#master_svg0_16_1731)"><g><path d="M48.75,39.5L70.0002,39.5Q70.0739,39.5,70.1473,39.49278Q70.2206,39.48555,70.2929,39.47118Q70.3652,39.4568,70.4357,39.43541Q70.5062,39.41402,70.5743,39.38582Q70.6423,39.35762,70.7073,39.32288Q70.7723,39.28814,70.8336,39.2472Q70.8949,39.20626,70.95179999999999,39.15952Q71.00880000000001,39.11277,71.0609,39.06066Q71.113,39.00855,71.1598,38.95159Q71.2065,38.894627,71.2474,38.833355Q71.2884,38.772084,71.3231,38.707095Q71.3579,38.642106,71.3861,38.574025Q71.4143,38.505944,71.4357,38.435427Q71.457,38.36491,71.4714,38.292635Q71.4858,38.220361,71.493,38.147026Q71.5002,38.0736903,71.5002,38Q71.5002,37.9263097,71.493,37.852974Q71.4858,37.779639,71.4714,37.707365Q71.457,37.63509,71.4356,37.564573Q71.4143,37.494056,71.3861,37.425975Q71.3579,37.357894,71.3231,37.292905Q71.2884,37.227916,71.2474,37.166645Q71.2065,37.105373,71.1598,37.04841Q71.113,36.99145,71.0609,36.93934Q71.00880000000001,36.88723,70.95179999999999,36.84048Q70.8949,36.79374,70.8336,36.7528Q70.7723,36.71186,70.7073,36.67712Q70.6423,36.64238,70.5743,36.61418Q70.5062,36.58598,70.4357,36.56459Q70.3652,36.5432,70.2929,36.52882Q70.2206,36.51445,70.1473,36.50722Q70.0739,36.5,70.0002,36.5L48.75,36.5Q47.093145,36.5,45.921573,37.671572Q44.75,38.843145,44.75,40.5L44.75,75.5Q44.75,79.5,48.75,79.5L91.25,79.5Q95.25,79.5,95.25,75.5L95.25,58Q95.25,57.9263,95.2428,57.852900000000005Q95.2355,57.7796,95.22120000000001,57.707300000000004Q95.2068,57.6351,95.1854,57.564499999999995Q95.164,57.494,95.1358,57.4259Q95.10759999999999,57.3579,95.0729,57.2929Q95.0381,57.227900000000005,94.99719999999999,57.1666Q94.9563,57.1053,94.90950000000001,57.0484Q94.8628,56.9914,94.8107,56.9393Q94.7586,56.8872,94.7016,56.8405Q94.6446,56.7937,94.5834,56.7528Q94.5221,56.7118,94.4571,56.677099999999996Q94.3921,56.6423,94.324,56.6141Q94.2559,56.585899999999995,94.1854,56.5646Q94.1149,56.5432,94.0426,56.528800000000004Q93.9704,56.514399999999995,93.89699999999999,56.5072Q93.8237,56.5,93.75,56.5Q93.6763,56.5,93.60300000000001,56.5072Q93.5296,56.514399999999995,93.4574,56.528800000000004Q93.3851,56.5432,93.3146,56.5646Q93.2441,56.585899999999995,93.176,56.6141Q93.1079,56.6423,93.0429,56.677099999999996Q92.9779,56.7118,92.9166,56.7528Q92.8554,56.7937,92.7984,56.8405Q92.7414,56.8872,92.6893,56.9393Q92.6372,56.9914,92.59049999999999,57.0484Q92.5437,57.1053,92.50280000000001,57.1666Q92.4619,57.227900000000005,92.4271,57.2929Q92.39240000000001,57.3579,92.3642,57.4259Q92.336,57.494,92.3146,57.564499999999995Q92.2932,57.6351,92.27879999999999,57.707300000000004Q92.2644,57.7796,92.2572,57.852900000000005Q92.25,57.9263,92.25,58L92.25,75.5Q92.25,76.5,91.25,76.5L48.75,76.5Q47.75,76.5,47.75,75.5L47.75,40.5Q47.75,39.5,48.75,39.5Z" fill-rule="evenodd" fill="#FFFFFF" fill-opacity="1" style="mix-blend-mode:passthrough"/></g><g><path d="M55.738527,46.238528Q54.75,47.227055,54.75,48.625Q54.75,50.02294,55.738528,51.01147Q56.727055,52,58.125,52Q59.52294,52,60.51147,51.01147Q61.5,50.02294,61.5,48.625Q61.5,47.227055,60.51147,46.238527Q59.52294,45.25,58.125,45.25Q56.727055,45.25,55.738527,46.238528ZM57.85985,48.89015Q57.75,48.7803,57.75,48.625Q57.75,48.4697,57.85985,48.35985Q57.9697,48.25,58.125,48.25Q58.2803,48.25,58.39015,48.35985Q58.5,48.4697,58.5,48.625Q58.5,48.7803,58.39015,48.89015Q58.2803,49,58.125,49Q57.9697,49,57.85985,48.89015Z" fill-rule="evenodd" fill="#FFFFFF" fill-opacity="1" style="mix-blend-mode:passthrough"/></g><g><path d="M57.6893,56.93934L45.18934,69.4393Q45.08487,69.5438,45.0028,69.6666Q44.92072,69.7895,44.86418,69.926Q44.80764,70.0625,44.77882,70.2074Q44.75,70.3523,44.75,70.5L44.75,75.5Q44.75,77.15690000000001,45.921577,78.3284Q47.093142,79.5,48.75,79.5L91.25,79.5Q95.25,79.5,95.25,75.5L95.25,70.5Q95.25,70.3271,95.2107,70.1588Q95.1714,69.9904,95.09479999999999,69.8355Q95.01820000000001,69.6805,94.9083,69.547Q94.79849999999999,69.4135,94.66120000000001,69.3085L73.41120000000001,53.05846Q73.35470000000001,53.01529,73.2944,52.97765Q73.2342,52.94001,73.17060000000001,52.90824Q73.107,52.87647,73.0407,52.85085Q72.9744,52.82523,72.906,52.80599Q72.8376,52.78676,72.7677,52.77407Q72.6977,52.76139,72.6269,52.75538Q72.5561,52.74937,72.485,52.75007Q72.414,52.75078,72.3433,52.75821Q72.2726,52.76563,72.2029,52.77971Q72.13329999999999,52.79378,72.06530000000001,52.81438Q71.99719999999999,52.83498,71.9315,52.86191Q71.8657,52.88885,71.8028,52.92188Q71.7399,52.95492,71.6803,52.99375Q71.6208,53.03259,71.5652,53.07687Q71.5097,53.12116,71.4585,53.17051Q71.4074,53.21985,71.3611,53.273813L64.8048,60.92288L59.687,56.8287Q59.6336,56.78591,59.5764,56.74818Q59.5192,56.71044,59.4589,56.67807Q59.3985,56.64571,59.335499999999996,56.61897Q59.2724,56.59224,59.2072,56.57137Q59.1419,56.550489999999996,59.0751,56.53565Q59.0082,56.5208,58.9403,56.51212Q58.872299999999996,56.50343,58.8039,56.50097Q58.7354,56.49851,58.6671,56.5023Q58.5987,56.50608,58.5309,56.51609Q58.4631,56.526089999999996,58.3966,56.54223Q58.33,56.55837,58.2652,56.5805Q58.2004,56.60264,58.1379,56.63059Q58.0753,56.65854,58.0156,56.69207Q57.9559,56.72561,57.8995,56.76444Q57.8431,56.80328,57.7904,56.84709Q57.7378,56.89091,57.6893,56.93934ZM47.75,71.1213L47.75,75.5Q47.75,76.5,48.75,76.5L91.25,76.5Q92.25,76.5,92.25,75.5L92.25,71.2413L72.7157,56.30325L66.1389,63.97619Q66.092,64.03093,66.03999999999999,64.08092Q65.9881,64.1309,65.9315,64.17568Q65.875,64.22045,65.8145,64.2596Q65.7539,64.2988,65.6899,64.3319Q65.6259,64.3651,65.559,64.39189999999999Q65.4921,64.4188,65.4229,64.4391Q65.3538,64.4595,65.283,64.4731Q65.21209999999999,64.4867,65.1404,64.4934Q65.0686,64.5002,64.9965,64.5Q64.92439999999999,64.4998,64.8526,64.4927Q64.7809,64.4857,64.7101,64.4717Q64.6394,64.4578,64.5703,64.4371Q64.5013,64.4165,64.4345,64.3893Q64.3677,64.3621,64.3038,64.3287Q64.24,64.2952,64.1796,64.2558Q64.1193,64.21634,64.063,64.1713L58.8613,60.01L47.75,71.1213Z" fill-rule="evenodd" fill="#FFFFFF" fill-opacity="1" style="mix-blend-mode:passthrough"/></g><g><g><path d="M79,43.75L94,43.75Q94.0737,43.75,94.147,43.75722Q94.2204,43.76445,94.2926,43.77882Q94.3649,43.7932,94.4354,43.81459Q94.5059,43.83598,94.574,43.86418Q94.6421,43.89238,94.7071,43.92712Q94.7721,43.96186,94.8334,44.0028Q94.8946,44.04374,94.9516,44.09048Q95.0086,44.13723,95.0607,44.18934Q95.1128,44.24145,95.15950000000001,44.29841Q95.2063,44.355373,95.24719999999999,44.416645Q95.2881,44.477916,95.3229,44.542905Q95.3576,44.607894,95.3858,44.675975Q95.414,44.744056,95.4354,44.814573Q95.4568,44.88509,95.4712,44.957365Q95.4856,45.029639,95.4928,45.102974Q95.5,45.1763097,95.5,45.25Q95.5,45.3236903,95.4928,45.397026Q95.4856,45.470361,95.4712,45.542635Q95.4568,45.61491,95.4354,45.685427Q95.414,45.755944,95.3858,45.824025Q95.3576,45.892106,95.3229,45.957095Q95.2881,46.022084,95.24719999999999,46.083355Q95.2063,46.144627,95.15950000000001,46.20159Q95.1128,46.25855,95.0607,46.31066Q95.0086,46.36277,94.9516,46.40952Q94.8946,46.45626,94.8334,46.4972Q94.7721,46.53814,94.7071,46.57288Q94.6421,46.60762,94.574,46.63582Q94.5059,46.66402,94.4354,46.68541Q94.3649,46.7068,94.2926,46.72118Q94.2204,46.73555,94.147,46.74278Q94.0737,46.75,94,46.75L79,46.75Q78.9263097,46.75,78.852974,46.74278Q78.779639,46.73555,78.707365,46.72118Q78.63509,46.7068,78.564573,46.68541Q78.494056,46.66402,78.425975,46.63582Q78.357894,46.60762,78.292905,46.57288Q78.227916,46.53814,78.166645,46.4972Q78.105373,46.45626,78.04841,46.40952Q77.99145,46.36277,77.93934,46.31066Q77.88723,46.25855,77.84048,46.20159Q77.79374,46.144627,77.7528,46.083355Q77.71186,46.022084,77.67712,45.957095Q77.64238,45.892106,77.61418,45.824025Q77.58598,45.755944,77.56459,45.685427Q77.5432,45.61491,77.52882,45.542635Q77.51445,45.470361,77.50722,45.397026Q77.5,45.3236903,77.5,45.25Q77.5,45.1763097,77.50722,45.102974Q77.51445,45.029639,77.52882,44.957365Q77.5432,44.88509,77.56459,44.814573Q77.58598,44.744056,77.61418,44.675975Q77.64238,44.607894,77.67712,44.542905Q77.71186,44.477916,77.7528,44.416645Q77.79374,44.355373,77.84048,44.29841Q77.88723,44.24145,77.93934,44.18934Q77.99145,44.13723,78.04841,44.09048Q78.105373,44.04374,78.166645,44.0028Q78.227916,43.96186,78.292905,43.92712Q78.357894,43.89238,78.425975,43.86418Q78.494056,43.83598,78.564573,43.81459Q78.63509,43.7932,78.707365,43.77882Q78.779639,43.76445,78.852974,43.75722Q78.9263097,43.75,79,43.75Z" fill-rule="evenodd" fill="#FFFFFF" fill-opacity="1" style="mix-blend-mode:passthrough"/></g><g><path d="M85,37.75Q85,37.6763097,85.00722,37.602974Q85.01445,37.529639,85.02882,37.457365Q85.0432,37.38509,85.06459,37.314573Q85.08598,37.244056,85.11418,37.175975Q85.14238,37.107894,85.17712,37.042905Q85.21186,36.977916,85.2528,36.916645Q85.29374,36.855373,85.34048,36.79841Q85.38723,36.74145,85.43934,36.68934Q85.49145,36.63723,85.54841,36.59048Q85.605373,36.54374,85.666645,36.5028Q85.727916,36.46186,85.792905,36.42712Q85.857894,36.39238,85.925975,36.36418Q85.994056,36.33598,86.064573,36.31459Q86.13509,36.2932,86.207365,36.27882Q86.279639,36.26445,86.352974,36.25722Q86.4263097,36.25,86.5,36.25Q86.5736903,36.25,86.647026,36.25722Q86.720361,36.26445,86.792635,36.27882Q86.86491,36.2932,86.935427,36.31459Q87.005944,36.33598,87.074025,36.36418Q87.142106,36.39238,87.207095,36.42712Q87.272084,36.46186,87.333355,36.5028Q87.394627,36.54374,87.45159,36.59048Q87.50855,36.63723,87.56066,36.68934Q87.61277,36.74145,87.65952,36.79841Q87.70626,36.855373,87.7472,36.916645Q87.78814,36.977916,87.82288,37.042905Q87.85762,37.107894,87.88582,37.175975Q87.91402,37.244056,87.93541,37.314573Q87.9568,37.38509,87.97118,37.457365Q87.98555,37.529639,87.99278,37.602974Q88,37.6763097,88,37.75L88,52.75Q88,52.8237,87.99278,52.897Q87.98555,52.9704,87.97118,53.0426Q87.9568,53.1149,87.93541,53.1854Q87.91402,53.2559,87.88582,53.324Q87.85762,53.3921,87.82288,53.4571Q87.78814,53.5221,87.7472,53.5834Q87.70626,53.6446,87.65952,53.7016Q87.61277,53.7586,87.56066,53.8107Q87.50855,53.8628,87.45159,53.9095Q87.394627,53.9563,87.333355,53.9972Q87.272084,54.0381,87.207095,54.072900000000004Q87.142106,54.107600000000005,87.074025,54.1358Q87.005944,54.164,86.935427,54.1854Q86.86491,54.2068,86.792635,54.221199999999996Q86.720361,54.235600000000005,86.647026,54.2428Q86.5736903,54.25,86.5,54.25Q86.4263097,54.25,86.352974,54.2428Q86.279639,54.235600000000005,86.207365,54.221199999999996Q86.13509,54.2068,86.064573,54.1854Q85.994056,54.164,85.925975,54.1358Q85.857894,54.107600000000005,85.792905,54.072900000000004Q85.727916,54.0381,85.666645,53.9972Q85.605373,53.9563,85.54841,53.9095Q85.49145,53.8628,85.43934,53.8107Q85.38723,53.7586,85.34048,53.7016Q85.29374,53.6446,85.2528,53.5834Q85.21186,53.5221,85.17712,53.4571Q85.14238,53.3921,85.11418,53.324Q85.08598,53.2559,85.06459,53.1854Q85.0432,53.1149,85.02882,53.0426Q85.01445,52.9704,85.00722,52.897Q85,52.8237,85,52.75L85,37.75Z" fill-rule="evenodd" fill="#FFFFFF" fill-opacity="1" style="mix-blend-mode:passthrough"/></g></g></g></g></svg>