<svg xmlns="http://www.w3.org/2000/svg" xmlns:xlink="http://www.w3.org/1999/xlink" fill="none" version="1.1" width="66" height="66" viewBox="0 0 66 66"><defs><clipPath id="master_svg0_27_5951"><rect x="19.799999237060547" y="9.899999618530273" width="26.399999618530273" height="26.399999618530273" rx="0"/></clipPath></defs><g><g><rect x="0" y="0" width="66" height="66" rx="12" fill="#FFFFFF" fill-opacity="0.10000000149011612"/><rect x="0.5" y="0.5" width="65" height="65" rx="11.5" fill-opacity="0" stroke-opacity="0.20000000298023224" stroke="#FFFFFF" fill="none" stroke-width="1"/></g><g style="opacity:0.4000000059604645;"><path d="M21.210436618530274,49.29999923706055L23.845939618530274,40.89999923706055L25.547499618530274,40.89999923706055L28.189559618530275,49.29999923706055L26.728559618530273,49.29999923706055L26.118059618530275,47.27499923706055L23.229619618530272,47.27499923706055L22.620249618530273,49.29999923706055L21.210436618530274,49.29999923706055ZM23.550999618530273,46.15187923706055L25.802119618530273,46.15187923706055L24.675999618530273,42.42343923706055L23.550999618530273,46.15187923706055ZM31.551399618530276,49.389399237060545Q30.795439618530274,49.389399237060545,30.177999618530272,48.97939923706055Q29.560559618530274,48.56909923706055,29.195129618530274,47.86939923706055Q28.829689618530274,47.169599237060545,28.829689618530274,46.30239923706055Q28.829689618530274,45.42343923706055,29.198309618530274,44.72649923706055Q29.567119618530274,44.02936923706055,30.191129618530276,43.61930923706055Q30.815119618530275,43.20905923706054,31.577699618530275,43.20905923706054Q32.06329961853027,43.20905923706054,32.48239961853027,43.39730923706055Q32.90159961853027,43.58555923706055,33.222399618530275,43.932629237060546L33.222399618530275,40.67949923706055L34.581799618530276,40.455999237060546L34.581799618530276,49.29999923706055L33.255099618530274,49.29999923706055L33.255099618530274,48.60159923706055Q32.93539961853027,48.98349923706055,32.501499618530275,49.18659923706055Q32.067599618530274,49.389399237060545,31.551399618530276,49.389399237060545ZM31.875999618530273,48.273799237060544Q32.283399618530275,48.273799237060544,32.63389961853027,48.115899237060546Q32.98449961853027,47.958099237060544,33.222399618530275,47.67309923706055L33.222399618530275,44.931999237060545Q32.97789961853027,44.646809237060545,32.62409961853027,44.485749237060546Q32.270299618530274,44.32468923706055,31.875999618530273,44.32468923706055Q31.374999618530275,44.32468923706055,30.988899618530276,44.574619237060546Q30.603059618530274,44.82455923706055,30.384619618530273,45.26893923706055Q30.166189618530275,45.71312923706055,30.166189618530275,46.29586923706054Q30.166189618530275,46.86679923706055,30.384619618530273,47.31699923706054Q30.603059618530274,47.767199237060545,30.988899618530276,48.02049923706055Q31.374999618530275,48.273799237060544,31.875999618530273,48.273799237060544ZM38.75139961853027,49.389399237060545Q37.99539961853027,49.389399237060545,37.377999618530275,48.97939923706055Q36.76059961853027,48.56909923706055,36.395099618530274,47.86939923706055Q36.02969961853027,47.169599237060545,36.02969961853027,46.30239923706055Q36.02969961853027,45.42343923706055,36.398299618530274,44.72649923706055Q36.767099618530274,44.02936923706055,37.391099618530276,43.61930923706055Q38.01509961853027,43.20905923706054,38.77769961853028,43.20905923706054Q39.26329961853027,43.20905923706054,39.68239961853027,43.39730923706055Q40.10159961853027,43.58555923706055,40.42239961853028,43.932629237060546L40.42239961853028,40.67949923706055L41.78179961853027,40.455999237060546L41.78179961853027,49.29999923706055L40.45509961853027,49.29999923706055L40.45509961853027,48.60159923706055Q40.13539961853027,48.98349923706055,39.70149961853028,49.18659923706055Q39.26759961853027,49.389399237060545,38.75139961853027,49.389399237060545ZM39.075999618530275,48.273799237060544Q39.48339961853027,48.273799237060544,39.833899618530275,48.115899237060546Q40.184499618530275,47.958099237060544,40.42239961853028,47.67309923706055L40.42239961853028,44.931999237060545Q40.177899618530276,44.646809237060545,39.82409961853027,44.485749237060546Q39.47029961853028,44.32468923706055,39.075999618530275,44.32468923706055Q38.57499961853027,44.32468923706055,38.18889961853027,44.574619237060546Q37.80309961853027,44.82455923706055,37.58459961853028,45.26893923706055Q37.366199618530274,45.71312923706055,37.366199618530274,46.29586923706054Q37.366199618530274,46.86679923706055,37.58459961853028,47.31699923706054Q37.80309961853027,47.767199237060545,38.18889961853027,48.02049923706055Q38.57499961853027,48.273799237060544,39.075999618530275,48.273799237060544Z" fill="#FFFFFF" fill-opacity="1"/></g><g style="opacity:0.4000000059604645;" clip-path="url(#master_svg0_27_5951)"><g><path d="M23.64999923706055,15.050146102905273L33.000099237060546,15.050146102905273Q33.07399923706055,15.050146102905273,33.14639923706055,15.035735102905274Q33.21889923706055,15.021324102905274,33.287099237060545,14.993056102905273Q33.355399237060546,14.964787102905273,33.416799237060545,14.923748102905273Q33.47819923706055,14.882709102905274,33.53039923706055,14.830476102905273Q33.582699237060545,14.778243102905273,33.62369923706055,14.716824102905273Q33.664699237060546,14.655404102905273,33.69299923706055,14.587159102905273Q33.72129923706055,14.518913102905273,33.735699237060544,14.446464102905274Q33.750099237060546,14.374014602905273,33.750099237060546,14.300146102905273Q33.750099237060546,14.226277602905274,33.735699237060544,14.153828102905273Q33.72129923706055,14.081379102905274,33.69299923706055,14.013133102905273Q33.664699237060546,13.944888102905274,33.62369923706055,13.883468102905274Q33.582699237060545,13.822049102905273,33.53039923706055,13.769816102905274Q33.47819923706055,13.717583102905273,33.416799237060545,13.676544102905273Q33.355399237060546,13.635505102905274,33.287099237060545,13.607236102905274Q33.21889923706055,13.578968102905273,33.14639923706055,13.564557102905273Q33.07399923706055,13.550146102905273,33.000099237060546,13.550146102905273L23.64999923706055,13.550146102905273Q21.799999237060547,13.550146102905273,21.799999237060547,15.400146102905273L21.799999237060547,30.800146102905273Q21.799999237060547,31.566446102905275,22.34185423706055,32.10834610290527Q22.883703237060548,32.650146102905275,23.64999923706055,32.650146102905275L42.349999237060544,32.650146102905275Q43.116299237060545,32.650146102905275,43.65819923706054,32.10834610290527Q44.199999237060545,31.566446102905275,44.199999237060545,30.800146102905273L44.199999237060545,23.100136102905275Q44.199999237060545,23.026266102905275,44.18559923706054,22.95381610290527Q44.17119923706055,22.881366102905275,44.14289923706055,22.813116102905273Q44.114599237060546,22.744876102905273,44.07359923706055,22.683456102905275Q44.03259923706055,22.622036102905273,43.98029923706055,22.569806102905275Q43.92809923706055,22.517566102905274,43.866699237060544,22.476526102905275Q43.805299237060545,22.435486102905273,43.736999237060544,22.407216102905274Q43.66879923706055,22.378956102905274,43.59629923706055,22.364546102905273Q43.52389923706055,22.350136102905275,43.449999237060545,22.350136102905275Q43.376099237060544,22.350136102905275,43.30369923706054,22.364546102905273Q43.23119923706055,22.378956102905274,43.162999237060546,22.407216102905274Q43.094699237060546,22.435486102905273,43.03329923706055,22.476526102905275Q42.97189923706055,22.517566102905274,42.91969923706055,22.569806102905275Q42.867399237060546,22.622036102905273,42.82639923706054,22.683456102905275Q42.785399237060545,22.744876102905273,42.757099237060544,22.813116102905273Q42.72879923706054,22.881366102905275,42.71439923706055,22.95381610290527Q42.699999237060545,23.026266102905275,42.699999237060545,23.100136102905275L42.699999237060545,30.800146102905273Q42.699999237060545,30.945146102905273,42.597499237060546,31.047646102905272Q42.49499923706055,31.150146102905275,42.349999237060544,31.150146102905275L23.64999923706055,31.150146102905275Q23.299999237060547,31.150146102905275,23.299999237060547,30.800146102905273L23.299999237060547,15.400146102905273Q23.299999237060547,15.050146102905273,23.64999923706055,15.050146102905273Z" fill-rule="evenodd" fill="#FFFFFF" fill-opacity="1" style="mix-blend-mode:passthrough"/></g><g><path d="M26.661213580810546,17.861311618530273Q26.199901580810547,18.322624618530273,26.199901580810547,18.974999618530273Q26.199901580810547,19.627369618530274,26.661214580810547,20.088689618530275Q27.122526580810547,20.549999618530272,27.774901580810546,20.549999618530272Q28.427281580810547,20.549999618530272,28.888591580810548,20.088689618530275Q29.349901580810545,19.627379618530274,29.349901580810545,18.974999618530273Q29.349901580810545,18.322624618530273,28.888591580810548,17.861312618530274Q28.427281580810547,17.399999618530273,27.774901580810546,17.399999618530273Q27.122526580810547,17.399999618530273,26.661213580810546,17.861311618530273ZM27.774901580810546,19.049999618530272Q27.699901580810547,19.049999618530272,27.699901580810547,18.974999618530273Q27.699901580810547,18.899999618530273,27.774901580810546,18.899999618530273Q27.849901580810545,18.899999618530273,27.849901580810545,18.974999618530273Q27.849901580810545,19.049999618530272,27.774901580810546,19.049999618530272Z" fill-rule="evenodd" fill="#FFFFFF" fill-opacity="1" style="mix-blend-mode:passthrough"/></g><g><path d="M27.519669237060548,22.569718446655273L22.019669237060548,28.069718446655273Q21.914180237060545,28.175208446655272,21.857089237060546,28.313038446655273Q21.799999237060547,28.450858446655275,21.799999237060547,28.600048446655272L21.799999237060547,30.800048446655275Q21.799999237060547,31.566348446655276,22.341853237060548,32.108248446655274Q22.883703237060548,32.650048446655276,23.64999923706055,32.650048446655276L42.349999237060544,32.650048446655276Q43.116299237060545,32.650048446655276,43.65819923706054,32.108248446655274Q44.199999237060545,31.566348446655276,44.199999237060545,30.800048446655275L44.199999237060545,28.600048446655272Q44.199999237060545,28.513608446655272,44.180299237060545,28.429438446655276Q44.16069923706055,28.345268446655275,44.12239923706055,28.267778446655274Q44.08409923706054,28.190288446655273,44.029199237060546,28.123538446655274Q43.97429923706055,28.056788446655275,43.90559923706054,28.004278446655274L34.55559923706055,20.854280446655274Q34.498999237060545,20.811011446655275,34.43529923706055,20.779168446655273Q34.37159923706055,20.747324446655274,34.30299923706055,20.728045446655273Q34.23439923706054,20.708765446655274,34.16349923706055,20.702738446655275Q34.09249923706055,20.696711446655275,34.02159923706055,20.704152446655275Q33.95079923706055,20.711593446655275,33.882599237060546,20.732237446655272Q33.814499237060545,20.752881446655273,33.75139923706055,20.78598944665527Q33.68829923706055,20.819097446655274,33.632599237060546,20.863485446655275Q33.576899237060545,20.907873446655273,33.53059923706055,20.961954446655273L30.702379237060548,24.261488446655274L28.518519237060545,22.514398446655274Q28.464929237060545,22.471518446655274,28.404439237060547,22.439085446655273Q28.343949237060546,22.406649446655273,28.278579237060548,22.385730446655273Q28.213209237060546,22.364812446655275,28.145129237060548,22.356106446655275Q28.077049237060546,22.347400446655275,28.008519237060547,22.351195446655275Q27.939999237060547,22.354991446655273,27.873289237060547,22.371162446655273Q27.806589237060546,22.387333446655273,27.74392923706055,22.415342446655274Q27.681269237060548,22.443351446655274,27.624739237060545,22.482268446655272Q27.568199237060547,22.521188446655273,27.519669237060548,22.569718446655273ZM23.299999237060547,28.910708446655274L23.299999237060547,30.800048446655275Q23.299999237060547,31.150048446655273,23.64999923706055,31.150048446655273L42.349999237060544,31.150048446655273Q42.699999237060545,31.150048446655273,42.699999237060545,30.800048446655275L42.699999237060545,28.970678446655274L34.20779923706055,22.476678446655274L31.369439237060547,25.788138446655275Q31.322409237060548,25.843008446655276,31.265769237060546,25.887888446655275Q31.209129237060544,25.932768446655274,31.144959237060547,25.966008446655273Q31.080799237060546,25.999238446655273,31.01145923706055,26.019618446655272Q30.94212923706055,26.039998446655275,30.870179237060547,26.046758446655275Q30.798229237060546,26.053518446655275,30.726319237060547,26.046418446655274Q30.654399237060545,26.039318446655273,30.585169237060548,26.018618446655275Q30.515929237060547,25.997918446655273,30.451919237060547,25.964378446655275Q30.387909237060548,25.930838446655272,30.33147923706055,25.885698446655272L28.105659237060546,24.105048446655275L23.299999237060547,28.910708446655274Z" fill-rule="evenodd" fill="#FFFFFF" fill-opacity="1" style="mix-blend-mode:passthrough"/></g><g><g><path d="M36.96015548706055,16.739843368530273L43.56015548706055,16.739843368530273Q43.63402548706055,16.739843368530273,43.706475487060544,16.754254368530273Q43.77892548706055,16.768665368530275,43.84716548706055,16.796933368530272Q43.91541548706055,16.825202368530274,43.97683548706055,16.866241368530275Q44.038255487060546,16.907280368530273,44.09048548706055,16.959513368530274Q44.14271548706055,17.011746368530275,44.183755487060544,17.073165368530272Q44.22479548706055,17.134585368530274,44.253065487060546,17.20283036853027Q44.281335487060545,17.271076368530274,44.29574548706054,17.343525368530273Q44.31015548706055,17.415974868530274,44.31015548706055,17.489843368530273Q44.31015548706055,17.563711868530273,44.29574548706054,17.636161368530274Q44.281335487060545,17.708610368530273,44.253065487060546,17.776856368530275Q44.22479548706055,17.845101368530273,44.183755487060544,17.906521368530274Q44.14271548706055,17.96794036853027,44.09048548706055,18.020173368530273Q44.038255487060546,18.072406368530274,43.97683548706055,18.11344536853027Q43.91541548706055,18.154484368530273,43.84716548706055,18.182753368530275Q43.77892548706055,18.21102136853027,43.706475487060544,18.225432368530274Q43.63402548706055,18.239843368530273,43.56015548706055,18.239843368530273L36.96015548706055,18.239843368530273Q36.886286987060544,18.239843368530273,36.813837487060546,18.225432368530274Q36.74138848706055,18.21102136853027,36.673142487060545,18.182753368530275Q36.60489748706055,18.154484368530273,36.54347748706055,18.11344536853027Q36.48205848706055,18.072406368530274,36.42982548706055,18.020173368530273Q36.37759248706055,17.96794036853027,36.33655348706055,17.906521368530274Q36.295514487060544,17.845101368530273,36.26724548706055,17.776856368530275Q36.238977487060545,17.708610368530273,36.22456648706055,17.636161368530274Q36.21015548706055,17.563711868530273,36.21015548706055,17.489843368530273Q36.21015548706055,17.415974868530274,36.22456648706055,17.343525368530273Q36.238977487060545,17.271076368530274,36.26724548706055,17.20283036853027Q36.295514487060544,17.134585368530274,36.33655348706055,17.073165368530272Q36.37759248706055,17.011746368530275,36.42982548706055,16.959513368530274Q36.48205848706055,16.907280368530273,36.54347748706055,16.866241368530275Q36.60489748706055,16.825202368530274,36.673142487060545,16.796933368530272Q36.74138848706055,16.768665368530275,36.813837487060546,16.754254368530273Q36.886286987060544,16.739843368530273,36.96015548706055,16.739843368530273Z" fill-rule="evenodd" fill="#FFFFFF" fill-opacity="1" style="mix-blend-mode:passthrough"/></g><g><path d="M39.51020431518555,14.189794540405273Q39.51020431518555,14.115926040405274,39.52461531518555,14.043476540405273Q39.539026315185545,13.971027540405274,39.56729431518555,13.902781540405273Q39.595563315185544,13.834536540405274,39.63660231518555,13.773116540405274Q39.67764131518555,13.711697540405273,39.72987431518555,13.659464540405274Q39.78210731518555,13.607231540405273,39.84352631518555,13.566192540405273Q39.90494631518555,13.525153540405274,39.973191315185545,13.496884540405274Q40.04143731518555,13.468616540405273,40.113886315185546,13.454205540405273Q40.186335815185544,13.439794540405273,40.26020431518555,13.439794540405273Q40.33407281518555,13.439794540405273,40.40652231518555,13.454205540405273Q40.47897131518555,13.468616540405273,40.54721731518555,13.496884540405274Q40.615462315185546,13.525153540405274,40.676882315185544,13.566192540405273Q40.738301315185545,13.607231540405273,40.790534315185546,13.659464540405274Q40.84276731518555,13.711697540405273,40.883806315185545,13.773116540405274Q40.92484531518555,13.834536540405274,40.953114315185545,13.902781540405273Q40.98138231518555,13.971027540405274,40.995793315185544,14.043476540405273Q41.01020431518555,14.115926040405274,41.01020431518555,14.189794540405273L41.01020431518555,20.789794540405275Q41.01020431518555,20.863664540405274,40.995793315185544,20.936114540405274Q40.98138231518555,21.008564540405274,40.953114315185545,21.076804540405274Q40.92484531518555,21.145054540405273,40.883806315185545,21.206474540405274Q40.84276731518555,21.267894540405273,40.790534315185546,21.320124540405274Q40.738301315185545,21.372354540405272,40.676882315185544,21.413394540405275Q40.615462315185546,21.454434540405273,40.54721731518555,21.482704540405273Q40.47897131518555,21.51097454040527,40.40652231518555,21.525384540405273Q40.33407281518555,21.539794540405275,40.26020431518555,21.539794540405275Q40.186335815185544,21.539794540405275,40.113886315185546,21.525384540405273Q40.04143731518555,21.51097454040527,39.973191315185545,21.482704540405273Q39.90494631518555,21.454434540405273,39.84352631518555,21.413394540405275Q39.78210731518555,21.372354540405272,39.72987431518555,21.320124540405274Q39.67764131518555,21.267894540405273,39.63660231518555,21.206474540405274Q39.595563315185544,21.145054540405273,39.56729431518555,21.076804540405274Q39.539026315185545,21.008564540405274,39.52461531518555,20.936114540405274Q39.51020431518555,20.863664540405274,39.51020431518555,20.789794540405275L39.51020431518555,14.189794540405273Z" fill-rule="evenodd" fill="#FFFFFF" fill-opacity="1" style="mix-blend-mode:passthrough"/></g></g></g></g></svg>