<svg xmlns="http://www.w3.org/2000/svg" xmlns:xlink="http://www.w3.org/1999/xlink" fill="none" version="1.1" width="28" height="28" viewBox="0 0 28 28"><defs><clipPath id="master_svg0_68_1256"><rect x="0" y="0" width="28" height="28" rx="0"/></clipPath></defs><g clip-path="url(#master_svg0_68_1256)"><g><path d="M17.9805,16.3629L18.340600000000002,16.3629C18.607100000000003,16.364800000000002,18.7517,16.5096,18.7517,16.7833Q18.7517,18.4843,18.7517,20.1849Q18.7517,22.8603,18.7517,25.5353C18.755000000000003,25.6036,18.7487,25.6719,18.7331,25.7384C18.6828,25.9109,18.5454,25.9986,18.336,25.999Q17.1179,25.999,15.8998,25.999Q12.80835,25.999,9.716940000000001,25.999C9.6456,26.0027,9.57408,25.9962,9.504529999999999,25.9797C9.33932,25.9303,9.25024,25.7866,9.25024,25.5874Q9.25024,24.093,9.25024,22.5974Q9.25024,19.7042,9.25024,16.8111C9.24748,16.750700000000002,9.252469999999999,16.6903,9.26509,16.6312C9.30938,16.4698,9.45627,16.3597,9.621400000000001,16.364C9.895859999999999,16.3617,10.17032,16.364,10.44478,16.364L10.58525,16.364C10.55137,16.3119,10.532720000000001,16.2787,10.50912,16.2482Q8.83417,13.9658,7.1638,11.68343C7.11489,11.60468,7.02686,11.56005,6.9354,11.56761C6.43824,11.57263,5.94071,11.57031,5.443176,11.56993C5.133311,11.56993,4.99627062,11.4321,5.0000772536,11.12171C5.0248208,9.11419,5.682997,7.33059,6.88325,5.75121C8.09948,4.15369,9.65489,3.0387399999999998,11.55976,2.436874C12.0845,2.275198,12.62313,2.164162,13.16847,2.105248C13.45587,2.0716605,13.74214,2.0237889,14.0303,2.00487183C14.50842,1.9739869,14.96751,2.0967544,15.4353,2.181302C18.4331,2.721788,21.1073,4.92234,22.3148,7.8178C22.7583,8.88062,22.9977,9.987079999999999,23,11.14333C23,11.42361,22.8614,11.568,22.5839,11.5707C22.2337,11.57302,21.8835,11.57379,21.5337,11.5707C21.4581,11.56339,21.3848,11.59923,21.3433,11.66374Q19.6988,13.9596,18.0505,16.2521C18.0319,16.2791,18.014400000000002,16.3096,17.9805,16.3629ZM10.004349999999999,17.1323C10.00168,17.1809,9.997499999999999,17.2242,9.997499999999999,17.267400000000002Q9.997499999999999,21.1767,9.997499999999999,25.0863C9.997499999999999,25.2431,9.997499999999999,25.2434,10.15586,25.2434Q14.0048,25.2434,17.8537,25.2461C17.973300000000002,25.2461,18.0079,25.2153,18.0079,25.0917Q18.0026,21.1825,18.0049,17.2728C18.0049,17.2265,17.9984,17.1802,17.994999999999997,17.1354L15.4738,17.1354L15.4738,17.301000000000002Q15.4738,19.2074,15.4738,21.1138C15.4738,21.4145,15.3288,21.5624,15.036,21.5624Q14.01546,21.5624,12.99526,21.5624C12.66599,21.5624,12.52932,21.4245,12.52932,21.0937L12.52932,17.1323L10.004349999999999,17.1323ZM10.31345,10.8063C10.37246,10.80977,10.41128,10.81441,10.450109999999999,10.81441Q14.15592,10.81441,17.862099999999998,10.81711C17.976300000000002,10.81711,17.999200000000002,10.7785,17.9953,10.67156C17.9542,9.41609,17.8244,8.17066,17.5572,6.94298C17.3596,6.03535,17.0913,5.15089,16.6276,4.34054C16.345100000000002,3.8467700000000002,16.0014,3.4055,15.5138,3.10129C15.3996,3.03025,15.2778,2.950336,15.1502,2.927558C14.67555,2.8468679999999997,14.19436,2.8123519999999997,13.7132,2.82448C13.28229,2.831429,12.91722,2.9873979999999998,12.58604,3.24915C12.14218,3.60278,11.82471,4.05988,11.56661,4.55944C11.08088,5.50568,10.80528,6.52256,10.638539999999999,7.56802C10.513300000000001,8.35867,10.439070000000001,9.1582,10.35304,9.95503C10.32335,10.23222,10.32639,10.51135,10.31345,10.8063ZM20.4735,11.57842L14.38699,11.57842L14.38699,16.3629L14.54725,16.3629C15.331,16.3629,16.1145,16.360599999999998,16.8979,16.3656C16.9922,16.371499999999997,17.082,16.323700000000002,17.1308,16.2417Q18.756700000000002,13.9708,20.3875,11.70428C20.4122,11.66953,20.4362,11.63401,20.4735,11.57996L20.4735,11.57842ZM9.554020000000001,10.8063C9.55897,10.77619,9.56277,10.76036,9.56391,10.74453C9.61112,10.07741,9.64538,9.408760000000001,9.70781,8.742799999999999C9.79428,7.81685,9.964780000000001,6.90097,10.21714,6.00678C10.48856,5.048579999999999,10.847909999999999,4.13053,11.457360000000001,3.33292C11.46742,3.31079,11.475069999999999,3.28762,11.4802,3.26382C9.754249999999999,3.89426,8.37356,4.94975,7.3137799999999995,6.43145C6.38343,7.73325,5.852775,9.184840000000001,5.759131,10.8063L9.554020000000001,10.8063ZM13.61918,11.57842L8.03477,11.57842C8.05837,11.61703,8.07284,11.6456,8.089970000000001,11.66992Q9.77937,13.9751,11.469159999999999,16.281399999999998C11.50694,16.3381,11.57208,16.3696,11.63932,16.3637C12.25981,16.3609,12.8803,16.3637,13.50041,16.3617C13.53848,16.3617,13.57654,16.3579,13.61766,16.3559L13.61918,11.57842ZM22.2448,10.81402C22.1435,9.13195,21.5843,7.64832,20.610500000000002,6.3222C19.6589,5.02773,18.4483,4.06451,16.9493,3.42403C16.9605,3.45138,16.9732,3.47806,16.987299999999998,3.5039499999999997C17.4331,4.13825,17.737299999999998,4.84126,17.9702,5.5774799999999995C18.4929,7.23446,18.6904,8.94355,18.7468,10.67349C18.7502,10.78198,18.7761,10.81711,18.8873,10.81634C19.957700000000003,10.81248,21.0278,10.81402,22.0982,10.81441L22.2448,10.81402ZM14.7136,20.7929L14.7136,17.133499999999998L13.29104,17.133499999999998L13.29104,20.7929L14.7136,20.7929Z" fill="#FFFFFF" fill-opacity="1" style="mix-blend-mode:passthrough"/><path d="M18.360500000000002,16.1632Q18.951700000000002,16.1774,18.951700000000002,16.7833L18.951700000000002,25.5309Q18.9571,25.6591,18.927799999999998,25.7841L18.9266,25.7892L18.9251,25.7943Q18.807499999999997,26.1981,18.336399999999998,26.199L9.72189,26.199Q9.58841,26.2052,9.45823,26.1742L9.45268,26.1729L9.44722,26.1713Q9.050239999999999,26.0525,9.050239999999999,25.5874L9.050239999999999,16.8154Q9.04563,16.7012,9.0695,16.589399999999998L9.0707,16.5838L9.07222,16.5783Q9.18863,16.1541,9.623429999999999,16.164L9.895109999999999,16.163L10.1707,16.1635L10.19913,16.163600000000002L6.9979499999999994,11.79547L6.99391,11.78896Q6.97884,11.7647,6.95188,11.76693L6.94381,11.7676L5.449482,11.76993L5.4430060000000005,11.76993Q5.127191,11.76993,4.9618646,11.60292Q4.796213,11.43558,4.800092,11.11926Q4.837145,8.11308,6.72401,5.6302Q8.60379,3.16111,11.499500000000001,2.246168Q12.30808,1.99703484,13.14699,1.9064048Q13.23869,1.89568,13.42694,1.870553Q13.81765,1.818401,14.0172,1.805301Q14.42484,1.778969,15.1909,1.9306608Q15.3779,1.9676734,15.4709,1.9844899Q17.7676,2.398582,19.673299999999998,3.96181Q21.5735,5.52059,22.4994,7.74082Q23.1966,9.41171,23.2,11.14294Q23.2,11.76471,22.5859,11.77069L21.524,11.7707L21.5144,11.76977Q21.513,11.76964,21.5116,11.77183L21.5088,11.77617L18.360500000000002,16.1632ZM10.66916,16.1283Q10.69051,16.1563,10.724969999999999,16.211100000000002Q10.74247,16.2389,10.75293,16.255000000000003L10.953800000000001,16.564L10.444410000000001,16.564L10.16995,16.563499999999998L9.896609999999999,16.563000000000002L9.61913,16.564L9.616109999999999,16.564Q9.494489999999999,16.5608,9.45944,16.6789Q9.447189999999999,16.739800000000002,9.450040000000001,16.802L9.45024,16.8065L9.45024,25.5874Q9.45024,25.751,9.55704,25.7865Q9.63084,25.8032,9.70646,25.7992L9.7117,25.799L18.3357,25.799Q18.5039,25.7987,18.5397,25.687Q18.5554,25.6168,18.552,25.5448L18.5517,25.5401L18.5517,16.7833Q18.5517,16.5644,18.340600000000002,16.5629L17.616300000000003,16.5629L17.811700000000002,16.2556Q17.825,16.2348,17.845,16.2024Q17.8721,16.1586,17.8859,16.1385L17.8881,16.1355L21.1782,11.55083Q21.3083,11.35276,21.5422,11.3707L22.582,11.37071Q22.8,11.36859,22.8,11.14373Q22.7967,9.49219,22.1302,7.89478Q21.2427,5.7666,19.419600000000003,4.27106Q17.5943,2.773786,15.3998,2.378114Q15.3034,2.360703,15.1132,2.323043Q14.39844,2.181508,14.0434,2.2044420000000002Q13.85726,2.216662,13.47986,2.267036Q13.28837,2.292596,13.18995,2.304091Q12.38919,2.3906,11.62002,2.627582Q8.84524,3.50432,7.042479999999999,5.87222Q5.235487,8.25,5.200062,11.12416Q5.198235,11.27313,5.246135,11.32151Q5.294063,11.36993,5.443345,11.36993L5.448857,11.36993L6.92781,11.36762Q7.18781,11.35002,7.3292,11.57078L10.66916,16.1283ZM10.20201,9.48273Q10.17041,9.78337,10.1542,9.93356L10.15418,9.93373Q10.133189999999999,10.12965,10.122679999999999,10.52057Q10.117740000000001,10.70428,10.11364,10.79753L10.10501,10.99437L10.30169,11.00595Q10.32169,11.00713,10.35615,11.00973Q10.41798,11.01441,10.450109999999999,11.01441L17.862000000000002,11.01711Q18.038,11.01711,18.1256,10.91375Q18.2009,10.82482,18.1952,10.66445Q18.128500000000003,8.6273,17.7526,6.90045Q17.4026,5.29224,16.8012,4.24122Q16.292,3.35106,15.6196,2.931599Q15.6124,2.927101,15.5978,2.917976Q15.3428,2.75879,15.1854,2.730674Q14.45095,2.605821,13.70817,2.624544Q13.04017,2.635308,12.46203,3.0922400000000003Q11.8459,3.58312,11.38893,4.467639999999999Q10.72384,5.76325,10.441040000000001,7.53652Q10.33858,8.18333,10.20201,9.48273ZM5.5472470000000005,11.0063L9.72383,11.0063L9.75137,10.83873Q9.752849999999999,10.82976,9.75555,10.81486Q9.76188,10.77989,9.7634,10.75892Q9.77834,10.54771,9.80556,10.12638Q9.86445,9.214690000000001,9.90693,8.76147Q10.03523,7.38768,10.40962,6.06111Q10.872160000000001,4.42821,11.61628,3.45435L11.63006,3.4363200000000003L11.63945,3.4156500000000003Q11.66347,3.36278,11.67572,3.30594L11.75206,2.951593L11.41158,3.0759600000000002Q8.7805,4.03701,7.15111,6.3151Q5.700993,8.34417,5.559464,10.79477L5.5472470000000005,11.0063ZM10.55189,9.9765L10.5519,9.97634Q10.56818,9.82559,10.599820000000001,9.52454Q10.735299999999999,8.23556,10.83605,7.59951Q11.10881,5.889200000000001,11.744299999999999,4.65124Q12.16203,3.84269,12.71006,3.40606Q13.18198,3.03307,13.71824,3.02442Q14.4222,3.0066699999999997,15.1151,3.12444Q15.1965,3.13898,15.3859,3.2572799999999997Q15.4005,3.2664,15.4079,3.27097Q15.9948,3.63711,16.454,4.43987Q17.0248,5.43746,17.361800000000002,6.98552Q17.7242,8.650739999999999,17.7934,10.61708L10.520209999999999,10.61443Q10.52135,10.57533,10.52253,10.53133Q10.53261,10.15654,10.55189,9.9765ZM20.4917,11.01378L22.0981,11.01441L22.0987,11.01441L22.4571,11.01346L22.4444,10.802Q22.2923,8.27454,20.7718,6.20382Q19.3096,4.21497,17.027900000000002,3.24012L16.5794,3.04854L16.764200000000002,3.4998Q16.7852,3.55121,16.8119,3.59993L16.8173,3.60977L16.823700000000002,3.6189400000000003Q17.4003,4.43946,17.7795,5.63782Q18.4521,7.77015,18.5469,10.68Q18.5576,11.01863,18.8886,11.01633L20.4917,11.01378ZM5.973643,10.6063Q6.15654,8.3947,7.47645,6.5478Q8.85234,4.62415,10.97547,3.68297Q10.40503,4.60962,10.02466,5.95246Q9.640360000000001,7.31414,9.50868,8.724129999999999Q9.46565,9.1831,9.40639,10.1006Q9.38634,10.41096,9.37302,10.6063L5.973643,10.6063ZM22.0298,10.61438Q21.8361,8.329139999999999,20.4493,6.44057Q19.2476,4.80602,17.4662,3.8879200000000003Q17.8706,4.5997,18.160899999999998,5.5171399999999995Q18.8442,7.6835,18.945,10.61625L20.4911,10.61378L22.0298,10.61438ZM13.8176,16.546799999999998L13.81766,16.356L13.81924,11.37842L7.67808,11.37842L7.864129999999999,11.68274Q7.8721499999999995,11.69586,7.88598,11.71983Q7.9109,11.763,7.92645,11.78508L11.3055,16.3964Q11.42947,16.5788,11.647210000000001,16.5636L13.50062,16.561700000000002Q13.53146,16.561700000000002,13.58785,16.558Q13.61421,16.5563,13.62703,16.5557L13.8176,16.546799999999998ZM20.6735,11.64229L20.6735,11.37842L14.18699,11.37842L14.18699,16.5629L14.54725,16.5629L16.707900000000002,16.564500000000002L16.8916,16.5656Q17.1577,16.5794,17.297800000000002,16.352L20.55,11.8209Q20.5683,11.7952,20.6065,11.73952Q20.6262,11.71075,20.6381,11.69358L20.6735,11.64229ZM20.0881,11.77842L14.58699,11.77842L14.58699,16.1629L16.708199999999998,16.1645L16.9047,16.165599999999998L16.9103,16.166Q16.942,16.1679,16.959,16.139400000000002L16.9634,16.131999999999998L20.0881,11.77842ZM13.41772,16.1618L13.41912,11.77842L8.41738,11.77842L11.63082,16.1637L13.41772,16.1618ZM12.729320000000001,21.0937L12.729320000000001,16.932299999999998L9.815010000000001,16.932299999999998L9.804649999999999,17.1214Q9.803889999999999,17.1353,9.80204,17.1628Q9.7975,17.2309,9.7975,17.267400000000002L9.7975,25.0863Q9.7975,25.2871,9.876249999999999,25.3655Q9.95465,25.4434,10.15586,25.4434L14.28466,25.4442L17.8536,25.4461Q18.207900000000002,25.4461,18.207900000000002,25.0917L18.204900000000002,17.2727Q18.204900000000002,17.2312,18.1978,17.158099999999997Q18.1953,17.131999999999998,18.1944,17.1201L18.180300000000003,16.9354L15.2738,16.9354L15.2738,21.1138Q15.2738,21.3624,15.036,21.3624L12.99526,21.3624Q12.729320000000001,21.3624,12.729320000000001,21.0937ZM13.09104,16.933500000000002L13.09104,20.9929L14.9136,20.9929L14.9136,16.933500000000002L13.09104,16.933500000000002ZM12.32932,17.3323L12.32932,21.0937Q12.32932,21.4244,12.49694,21.5931Q12.66515,21.7624,12.99526,21.7624L15.036,21.7624Q15.6738,21.7624,15.6738,21.1138L15.6738,17.3354L17.8049,17.3354L17.8079,25.0461L14.28473,25.0442L10.1975,25.0435L10.1975,17.3323L12.32932,17.3323ZM13.49104,20.5929L14.5136,20.5929L14.5136,17.3335L13.49104,17.3335L13.49104,20.5929Z" fill-rule="evenodd" fill="#FFFFFF" fill-opacity="1"/></g></g></svg>