<svg xmlns="http://www.w3.org/2000/svg" xmlns:xlink="http://www.w3.org/1999/xlink" fill="none" version="1.1" width="64" height="64" viewBox="0 0 64 64"><defs><clipPath id="master_svg0_26_4314"><rect x="20" y="20" width="24" height="24" rx="0"/></clipPath></defs><g><g style="opacity:0.20000000298023224;"><ellipse cx="32" cy="32" rx="32" ry="32" fill="#030305" fill-opacity="1"/><ellipse cx="32" cy="32" rx="31.5" ry="31.5" fill-opacity="0" stroke-opacity="0.20000000298023224" stroke="#FFFFFF" fill="none" stroke-width="1"/></g><g style="opacity:0.4000000059604645;" clip-path="url(#master_svg0_26_4314)"><g><path d="M40.950197190093995,30.620254140625Q40.699997190093995,30.333204140625,40.267297190094,30.205894140625L40.37049719009399,30.099254140625Q40.864197190093996,29.581834140625,40.864197190093996,28.858474140625Q40.864197190093996,28.135124140625,40.37309719009399,27.620344140625Q39.872497190093995,27.095584140625,39.159397190094,27.095584140625Q38.44629719009399,27.095584140625,37.945697190093995,27.620344140625L37.92189719009399,27.645604140625Q37.80009719009399,27.304553140625,37.53339719009399,27.025007140625Q37.032797190093994,26.500244140625,36.31969719009399,26.500244140625Q35.60663719009399,26.500244140625,35.106027190094,27.025003140625L31.447077190093992,30.860574140625L31.448097190093996,30.178194140625Q31.449407190093993,29.325334140625,30.839787190093993,28.753554140625Q30.218777190093995,28.171094140625,29.384737190093993,28.269584140625Q27.955794190093993,28.438344140625,27.752737190093995,29.912474140625L27.176896190093995,34.092814140625L27.176896190093995,34.092814140625Q26.973812790093994,35.567304140625,27.009128840093993,36.074104140624996Q27.091315590093995,37.253444140625,27.698698190093992,38.250444140625Q27.960699190093994,38.680444140625,28.965197190093996,39.733544140625L28.965197190093996,39.733544140625Q30.876617190093995,41.737244140625,31.640847190093993,42.092844140625Q33.48199719009399,42.949744140625,35.32543719009399,42.087044140625Q36.089677190093994,41.729344140625,38.005597190093994,39.721044140625L38.005597190093994,39.721044140625L40.656397190094,36.942244140625L41.508597190093994,36.050244140625Q41.99999719009399,35.535194140625,41.99999719009399,34.811844140625Q41.99999719009399,34.088504140625,41.508897190094,33.573714140625Q41.213497190093996,33.264064140625,40.820897190093994,33.192374140625L40.930797190094,33.083634140625C40.930797190094,33.083634140625,40.940997190093995,33.073274140625,40.940997190093995,33.073274140625Q41.432097190094,32.558484140625,41.431997190093995,31.841814140625Q41.431997190093995,31.132044140625,40.950197190093995,30.620254140625ZM38.601697190093994,30.488604140625Q38.604497190093994,30.485724140625,38.607297190093995,30.482864140625L39.652097190094,29.403704140625Q40.172197190093996,28.858474140625,39.649497190093996,28.310614140625Q39.444397190093994,28.095584140625,39.159397190094,28.095584140625Q38.874397190093994,28.095584140625,38.66929719009399,28.310614140625L35.597347190094,31.571284140625L35.596107190093996,31.572604140625C35.406747190093995,31.773594140625,35.090307190093995,31.783024140625,34.88931719009399,31.593664140625002C34.68883719009399,31.404794140625,34.678867190093996,31.089354140624998,34.86700719009399,30.888194140625L34.868247190093996,30.886864140625L36.806427190094,28.814604140625Q37.332497190093996,28.263144140625,36.809817190093995,27.715264140625Q36.604687190094,27.500244140625,36.31969719009399,27.500244140625Q36.034707190094,27.500244140625,35.82957719009399,27.715274140625L31.306987190093995,32.456174140625C31.116377190093992,32.655984140625,30.799887190093994,32.663444140625,30.600077190093995,32.472834140625C30.500977190093995,32.378304140625,30.444997190093993,32.247254140625,30.445197190093992,32.110294140625L30.448097190093993,30.176694140625Q30.448747190093993,29.757814140625,30.155677190093993,29.482944140625Q29.874017190093994,29.218754140625002,29.502017190093994,29.262684140624998Q28.840927190093993,29.340754140625002,28.743387190093994,30.048934140625L28.167537190093995,34.229274140625L28.167537190093995,34.229274140625Q27.978595190093994,35.601124140625004,28.006707190093994,36.004594140625Q28.071967190093993,36.941144140625,28.552677190093995,37.730144140625Q28.758647190093996,38.068144140625,29.688797190093993,39.043244140625L29.688797190093993,39.043244140625Q31.469807190093995,40.910244140625,32.062757190094,41.186244140625Q33.480817190093994,41.846144140625,34.90156719009399,41.181244140625Q35.495747190093994,40.903244140625,37.28209719009399,39.030744140625L37.28209719009399,39.030744140625L39.93279719009399,36.252024140625L40.785597190093995,35.359454140625Q41.30799719009399,34.811844140625,40.78529719009399,34.263974140625Q40.580097190093994,34.048854140625,39.95239719009399,34.365384140625Q39.387897190093994,34.650064140625,38.746397190093994,35.244284140625L38.28789719009399,35.697774140625C38.095597190094,35.887984140625,37.786897190093995,35.890774140625,37.59119719009399,35.704064140625C37.495197190094,35.612534140625,37.439497190093995,35.486634140625,37.43639719009399,35.354054140624996C37.433297190093995,35.221484140625,37.482997190094,35.093104140625,37.57449719009399,34.997154140625Q37.81499719009399,34.745064140625004,38.049697190093994,34.526884140625L40.22209719009399,32.378134140625Q40.731297190094,31.839464140625,40.217297190093994,31.300694140624998C40.217297190093994,31.300694140624998,40.19799719009399,31.279194140625002,40.19799719009399,31.279194140625002Q40.09649719009399,31.159704140625,39.74889719009399,31.119604140625Q39.42289719009399,31.081994140625,39.322197190093995,31.182164140624998L39.309397190093996,31.195324140625Q39.214197190094,31.294414140625,39.01049719009399,31.518194140625Q38.14079719009399,32.473904140625,36.948257190094,33.634024140625C36.750327190094,33.826574140625,36.43377719009399,33.822214140625,36.24121719009399,33.624284140625C36.05273719009399,33.430534140625,36.05235719009399,33.122064140625,36.24036719009399,32.927864140625L38.59029719009399,30.500494140625Q38.596197190093996,30.494294140625,38.601697190093994,30.488604140625Z" fill-rule="evenodd" fill="#FFFFFF" fill-opacity="1" style="mix-blend-mode:passthrough"/></g><g><path d="M24.35767137145996,35.34385597858429L23.98450137145996,34.95045597858429Q22.969245371459962,33.87885597858429,22.704767371459962,33.441855978584286Q22.09229867145996,32.42955597858429,22.00943780145996,31.23227597858429Q21.97383697145996,30.71775597858429,22.17889637145996,29.21870597858429L22.760818371459962,24.96482597858429Q22.85026737145996,24.31098597858429,23.30300137145996,23.847765978584288Q23.76364137145996,23.37645597858429,24.40510137145996,23.30017597858429Q25.24674137145996,23.20008597858429,25.87292137145996,23.79146597858429Q26.48604137145996,24.37051597858429,26.48476137145996,25.23351597858429L26.48371137145996,25.94360597858429L30.18927137145996,22.03226697858429Q30.69372137145996,21.49975597858429,31.413111371459962,21.49975597858429Q32.13247137145996,21.49975597858429,32.636971371459964,22.03224697858429Q32.90817137145996,22.31846997858429,33.030371371459964,22.66819597858429L33.05887137145996,22.63805597858429Q33.563371371459965,22.105548978584288,34.28277137145996,22.105548978584288Q35.00217137145996,22.105548978584288,35.50657137145996,22.63804597858429Q36.00027137145996,23.15908597858429,36.00027137145996,23.89064597858429Q36.00027137145996,24.62219597858429,35.50657137145996,25.14323597858429C35.41217137145996,25.24289597858429,35.28097137145996,25.299345978584288,35.14367137145996,25.299345978584288C34.86747137145996,25.299345978584288,34.64367137145996,25.07548597858429,34.64367137145996,24.799345978584288C34.64367137145996,24.67139597858429,34.69267137145996,24.548325978584288,34.78067137145996,24.45545597858429L34.78067137145996,24.45545597858429Q35.31567137145996,23.89044597858429,34.78067137145996,23.32583597858429Q34.57197137145996,23.10554597858429,34.28277137145996,23.10554597858429Q33.99347137145996,23.10554597858429,33.78477137145996,23.32583597858429L32.63737137145996,24.53709597858429L32.63737137145996,24.53709597858429L30.87480137145996,26.39743597858429C30.780191371459964,26.49729597858429,30.64893137145996,26.55375597858429,30.51164137145996,26.55375597858429C30.23550137145996,26.55375597858429,30.01164137145996,26.32989597858429,30.01164137145996,26.05375597858429C30.01164137145996,25.92581597858429,30.06069137145996,25.80274597858429,30.14868137145996,25.70987597858429L30.14868137145996,25.70987597858429L31.91064137145996,23.850125978584288L31.91064137145996,23.850125978584288L31.91064137145996,23.850125978584288L31.911681371459963,23.84902597858429L31.911681371459963,23.84902597858429Q32.44537137145996,23.284045978584288,31.91109137145996,22.72003597858429Q31.70237137145996,22.49975597858429,31.413111371459962,22.49975597858429Q31.123871371459963,22.49975597858429,30.91522137145996,22.72001597858429L26.34482137145996,27.54422597858429C26.25021137145996,27.64407597858429,26.11865137145996,27.700545978584287,25.98110137145996,27.700345978584288C25.84849137145996,27.70014597858429,25.72140137145996,27.64727597858429,25.62777137145996,27.553375978584288C25.53414137145996,27.45946597858429,25.48165137145996,27.33220597858429,25.48184137145996,27.199605978584287L25.48476137145996,25.23203597858429Q25.48540137145996,24.80096597858429,25.18630137145996,24.51848597858429Q24.900251371459962,24.24833597858429,24.523191371459962,24.29317597858429Q23.851081371459962,24.373105978584288,23.75159137145996,25.10036597858429L23.169671371459962,29.35421597858429Q22.97855337145996,30.75135597858429,23.007051371459962,31.16323597858429Q23.073201371459962,32.11905597858429,23.56032137145996,32.92405597858429Q23.76913137145996,33.26915597858429,24.71001137145996,34.26225597858429L25.08298137145996,34.655455978584286C25.17130137145996,34.74855597858429,25.22042137145996,34.87175597858429,25.22042137145996,34.99975597858429C25.22042137145996,35.27585597858429,24.99657137145996,35.49975597858429,24.72042137145996,35.49975597858429C24.583241371459962,35.49975597858429,24.45208137145996,35.44335597858429,24.35767137145996,35.34385597858429Z" fill-rule="evenodd" fill="#FFFFFF" fill-opacity="1" style="mix-blend-mode:passthrough"/></g></g></g></svg>