<svg xmlns="http://www.w3.org/2000/svg" xmlns:xlink="http://www.w3.org/1999/xlink" fill="none" version="1.1" width="64" height="64" viewBox="0 0 64 64"><defs><clipPath id="master_svg0_26_4314"><rect x="20" y="20" width="24" height="24" rx="0"/></clipPath></defs><g><g style="opacity:0.20000000298023224;"><ellipse cx="32" cy="32" rx="32" ry="32" fill="#030305" fill-opacity="1"/><ellipse cx="32" cy="32" rx="31.5" ry="31.5" fill-opacity="0" stroke-opacity="0.20000000298023224" stroke="#FFFFFF" fill="none" stroke-width="1"/></g><g style="opacity:0.4000000059604645;" clip-path="url(#master_svg0_26_4314)"><g><path d="M36.80982,27.715266140625Q37.33233,28.262984140625,36.81013,28.810694140625L36.80982,28.811014140625L36.80942,28.811434140625L34.2543,31.489824140625L34.25412,31.490014140625Q34.18758,31.559764140625,34.151740000000004,31.649254140625Q34.115899999999996,31.738744140625002,34.115899999999996,31.835144140625Q34.115899999999996,31.884394140624998,34.12551,31.932694140625Q34.13511,31.980994140625,34.15396,32.026484140625Q34.1728,32.071984140625,34.20016,32.112934140625Q34.22752,32.153874140625,34.26235,32.188704140625Q34.29717,32.223524140625,34.33811,32.250884140625Q34.37906,32.278244140625,34.42456,32.297084140625Q34.470060000000004,32.315934140625004,34.51835,32.325534140625Q34.56665,32.335144140625,34.615899999999996,32.335144140625Q34.71842,32.335144140625,34.81267,32.294804140625Q34.90692,32.254454140625,34.97768,32.180274140625L34.97812,32.179814140625L37.5334,29.501274140625L37.5336,29.501014140625L37.5342,29.500434140625Q38.0245,28.985904140625,38.0245,28.263144140625Q38.0245,27.932465140625,37.9218,27.645374140625L37.9457,27.620343140625Q38.4463,27.095584140625,39.1594,27.095584140625Q39.8725,27.095584140625,40.3731,27.620343140625Q40.8642,28.135124140625,40.8642,28.858474140625Q40.8642,29.581834140625,40.3731,30.096614140625L40.3031,30.169954140625Q40.035,30.072244140625,39.7273,30.072244140625Q39.0146,30.072244140625,38.5142,30.596414140625L40.3031,30.169954140625Q40.6564,30.298684140625,40.941,30.597014140625Q41.4321,31.111804140625,41.4321,31.835144140625Q41.4321,32.558484140625,40.941,33.073274140625L40.871,33.146644140625L39.8058,34.263194140625004Q40.0107,34.048944140625,40.2952,34.048944140625Q40.5802,34.048944140625,40.7853,34.263974140625Q41.308,34.811844140625,40.7853,35.359714140625L39.9544,36.230754140625Q39.9433,36.241064140625,39.9328,36.252024140625L37.28253,39.030344140625L37.28209,39.030744140625Q35.49575,40.903244140625,34.90156,41.181244140625Q33.48082,41.846144140625,32.06276,41.186244140625Q31.4698,40.910244140625,29.68951,39.044044140625L29.68879,39.043244140625Q28.75865,38.068144140625,28.55268,37.730144140625Q28.071971,36.941094140625,28.006709999999998,36.004594140625Q27.978595,35.601124140625004,28.167486,34.229684140625L28.167542,34.229274140625L28.74338,30.048934140625Q28.84093,29.340754140625002,29.50202,29.262684140624998Q29.87401,29.218754140625002,30.15568,29.482944140625Q30.44874,29.757814140625,30.4481,30.176694140625L30.4452,32.110294140625Q30.445050000000002,32.213014140625,30.4854,32.307474140625Q30.52575,32.401934140625,30.60007,32.472834140625Q30.63571,32.506824140625,30.67729,32.533214140625Q30.71887,32.559594140625,30.76479,32.577364140625Q30.81072,32.595134140625,30.85924,32.603604140625Q30.90775,32.612064140625,30.95698,32.610904140625Q31.00621,32.609744140625,31.05427,32.599004140625Q31.10233,32.588264140625,31.14737,32.568354140625Q31.19241,32.548434140625,31.2327,32.520124140625Q31.27299,32.491804140625,31.30699,32.456174140625L35.82958,27.715270140625Q36.034710000000004,27.500244140625,36.3197,27.500244140625Q36.60469,27.500244140625,36.80982,27.715266140625ZM39.9335,36.252664140625L39.9544,36.230754140625Q40.0237,36.166344140625,40.1118,36.131744140625Q40.1999,36.097154140625,40.2946,36.097144140625Q40.3438,36.097144140625,40.3921,36.106754140625Q40.4404,36.116364140625,40.4859,36.135204140625Q40.5314,36.154054140625,40.5724,36.181414140625Q40.6133,36.208774140624996,40.6482,36.243594140625Q40.683,36.278414140625,40.710300000000004,36.319364140625Q40.737700000000004,36.360314140625,40.7565,36.405804140625Q40.7754,36.451304140625,40.785,36.499604140624996Q40.7946,36.547904140625,40.7946,36.597144140625Q40.7946,36.693544140625,40.7588,36.783034140625Q40.722899999999996,36.872524140625,40.6564,36.942274140625L40.6558,36.942914140625L40.1091,37.515944140625Q40.0998,37.527044140625,40.0898,37.537544140625L41.5089,36.049974140625Q42,35.535194140625,42,34.811844140625Q42,34.088504140625,41.5089,33.573714140625Q41.2243,33.275374140625,40.871,33.146644140625Q37.8,27.304461140625,37.5334,27.025007040625Q37.032759999999996,26.500244140625,36.3197,26.500244140625Q35.60664,26.500244140625,35.10602,27.025003440625L31.44708,30.860574140625L31.4481,30.178194140625Q31.44941,29.325334140625,30.83979,28.753554140625Q30.21877,28.171094140625,29.38474,28.269584140625Q27.955794,28.438344140625,27.752737,29.912474140625L27.176897,34.092814140625L27.176838,34.093244140625Q26.973813,35.567304140625,27.009129,36.074104140624996Q27.091316,37.253444140625,27.698698,38.250444140625Q27.960699,38.680444140625,28.9652,39.733544140625L28.96591,39.734244140625Q30.87662,41.737244140625,31.64084,42.092844140625Q33.482,42.949744140625,35.32544,42.087044140625Q36.08968,41.729344140625,38.0056,39.721044140625L38.0061,39.720544140625L40.0678,37.559344140625Q40.0787,37.549144140625,40.0891,37.538244140625L40.0891,37.538244140625L40.0884,37.537644140625L40.0678,37.559344140625Q39.998400000000004,37.623844140624996,39.9102,37.658444140625Q39.822,37.693144140625,39.7273,37.693144140625Q39.6781,37.693144140625,39.6298,37.683544140625Q39.5815,37.673944140625,39.536,37.655044140625Q39.4905,37.636244140624996,39.4495,37.608844140624996Q39.4086,37.581544140625,39.3737,37.546744140625Q39.3389,37.511844140625,39.3116,37.470944140625Q39.2842,37.429944140625,39.2654,37.384444140625Q39.2465,37.338944140625,39.2369,37.290644140625Q39.2273,37.242344140625,39.2273,37.193144140625Q39.2273,37.096744140625,39.2631,37.007244140625Q39.299,36.917764140624996,39.3655,36.848014140625L39.9126,36.274554140625Q39.922399999999996,36.262984140625,39.9328,36.252024140625L39.9335,36.252664140625ZM39.8044,34.264724140625L38.385999999999996,35.751524140625L38.3853,35.752274140625Q38.3145,35.826454140625,38.2203,35.866804140625Q38.126,35.907144140625,38.0235,35.907144140625Q37.9743,35.907144140625,37.926,35.897544140625Q37.877700000000004,35.887934140625,37.8322,35.869084140625Q37.786699999999996,35.850244140625,37.7457,35.822884140625Q37.7048,35.795524140625,37.6699,35.760704140625Q37.6351,35.725874140625,37.6078,35.684934140625Q37.5804,35.643984140625,37.5616,35.598484140625004Q37.542699999999996,35.552994140625,37.5331,35.504694140625Q37.5235,35.456394140625,37.5235,35.407144140625Q37.5235,35.310744140625,37.5593,35.221254140625Q37.5952,35.131764140625,37.661699999999996,35.062014140624996L39.0811,33.574114140625L39.0814,33.573884140625L39.0815,33.573714140625L39.804500000000004,34.264544140625L39.8044,34.264724140625Z" fill-rule="evenodd" fill="#FFFFFF" fill-opacity="1" style="mix-blend-mode:passthrough"/></g><g><path d="M23.984494140625,34.950455859375L24.357664140625,35.343855859375Q24.428474140625,35.418455859375,24.523004140624998,35.459155859375Q24.617534140625,35.499755859375,24.720424140625,35.499755859375Q24.769674140625,35.499755859375,24.817974140625,35.490155859375Q24.866264140625,35.480555859375,24.911764140625,35.461655859375Q24.957264140625,35.442855859375,24.998214140625,35.415455859375Q25.039154140625,35.388155859375004,25.073974140625,35.353355859375Q25.108804140625,35.318455859375,25.136164140625,35.277555859375Q25.163514140625,35.236555859375,25.182364140625,35.191055859375Q25.201214140624998,35.145555859375,25.210814140625,35.097255859375Q25.220424140625,35.048955859375,25.220424140625,34.999755859375Q25.220424140625,34.903755859374996,25.184844140625,34.814555859375Q25.149274140625,34.725355859375,25.083184140625,34.655655859375L25.082984140625,34.655455859374996L24.710014140625,34.262255859375Q23.769134140625,33.269155859375,23.560324140625,32.924055859375Q23.073198140625,32.119055859375,23.007052140625,31.163235859375Q22.978553140625,30.751355859375,23.169669140625,29.354235859375L23.169671140625,29.354215859375L23.751594140625,25.100365859375Q23.851084140625,24.373105859375,24.523194140625,24.293175859375Q24.900254140625,24.248335859375,25.186304140625,24.518485859375Q25.485404140625,24.800965859375,25.484764140625,25.232035859375L25.481844140625,27.199605859374998Q25.481694140625,27.299055859375,25.519624140624998,27.390995859375Q25.557544140625,27.482945859375,25.627764140625,27.553375859375Q25.697994140625,27.623805859375,25.789814140625,27.661995859375Q25.881644140625,27.700195859375,25.981104140625,27.700345859375Q26.084264140625,27.700495859375,26.179064140625,27.659805859375Q26.273864140625,27.619115859375,26.344814140625,27.544225859375L30.915214140625,22.720019859375Q31.123874140625,22.499755859375,31.413104140625002,22.499755859375Q31.702374140625,22.499755859375,31.911094140625,22.720039859375Q32.445354140625,23.284045859375,31.912574140625,23.848085859375L31.911684140625,23.849025859375L31.911364140625,23.849365859375L31.911074140625,23.849665859375L31.911064140625,23.849675859375L31.910644140625,23.850125859375L30.149114140625,25.709405859375L30.148674140625,25.709875859375Q30.082684140625,25.779525859375,30.047164140625,25.868665859375Q30.011644140625002,25.957795859375,30.011644140625002,26.053755859375002Q30.011644140625002,26.102995859375,30.021254140625,26.151295859375Q30.030854140625,26.199595859375002,30.049704140625,26.245095859375Q30.068544140625,26.290595859375,30.095904140625,26.331535859375002Q30.123264140625,26.372485859375,30.158094140625,26.407305859375Q30.192914140625,26.442125859375,30.233854140625,26.469485859375Q30.274804140625,26.496845859375,30.320304140624998,26.515695859375Q30.365794140625,26.534535859374998,30.414094140625,26.544145859375Q30.462394140625,26.553755859375002,30.511644140625002,26.553755859375002Q30.614614140625,26.553755859375002,30.709204140624998,26.513065859375Q30.803794140625,26.472385859375,30.874614140625,26.397635859375L30.874804140625002,26.397435859375L32.636544140625,24.537885859375L32.637044140625,24.537425859375L32.637044140625,24.537415859375L32.637044140625,24.537395859375L32.637144140625,24.537235859375L32.637344140625004,24.537095859375L33.784844140625,23.325835859375Q33.993544140625,23.105545859375,34.282744140625,23.105545859375Q34.572044140624996,23.105545859375,34.780644140625,23.325835859375Q35.315644140625,23.890445859375,34.781044140625,24.455055859375L34.780644140625,24.455455859375Q34.714644140625,24.525105859375,34.679144140625,24.614245859375Q34.643644140625,24.703385859375,34.643644140625,24.799345859375Q34.643644140625,24.848585859375,34.653244140625,24.896885859375Q34.662844140625,24.945185859375,34.681744140625,24.990685859375Q34.700544140625,25.036185859375,34.727944140625,25.077125859375002Q34.755244140625,25.118075859375,34.790044140625,25.152895859375Q34.824944140625,25.187715859375,34.865844140625,25.215075859375Q34.906844140625,25.242435859375,34.952344140625,25.261285859375Q34.997844140625,25.280125859375,35.046144140625,25.289735859375Q35.094444140625,25.299345859375,35.143644140625,25.299345859375Q35.246644140625,25.299345859375,35.341244140625,25.258665859375Q35.435744140625,25.217975859375,35.506644140625,25.143235859375Q36.000244140625,24.622195859375,36.000244140625,23.890645859375Q36.000244140625,23.159085859375,35.506644140625,22.638050859375Q35.002144140625,22.105548859375,34.282744140625,22.105548859375Q33.563444140625,22.105548859375,33.058844140625,22.638050859375L33.030344140625,22.668194859375Q32.908144140625,22.318469859375,32.637044140625,22.032247159375Q32.132464140625004,21.499755859375,31.413104140625002,21.499755859375Q30.693714140624998,21.499755859375,30.189274140625,22.032267059375L26.483714140625,25.943605859375L26.484764140625,25.233515859375Q26.486044140625,24.370515859375,25.872914140625,23.791465859375Q25.246734140625,23.200085859375,24.405104140625,23.300175859375Q23.763644140625,23.376455859375,23.303003140625002,23.847765859375Q22.850267140625,24.310985859375002,22.760818140625,24.964825859375L22.178898140625,29.218685859375L22.178896140625,29.218705859375Q21.973837140625,30.717755859375,22.009438140625,31.232275859375Q22.092298140625,32.429555859375,22.704767140625002,33.441855859374996Q22.969246140625,33.878855859375,23.984494140625,34.950455859375Z" fill-rule="evenodd" fill="#FFFFFF" fill-opacity="1" style="mix-blend-mode:passthrough"/></g></g></g></svg>