<svg xmlns="http://www.w3.org/2000/svg" xmlns:xlink="http://www.w3.org/1999/xlink" fill="none" version="1.1" width="24" height="24" viewBox="0 0 24 24"><defs><clipPath id="master_svg0_26_4314"><rect x="0" y="0" width="24" height="24" rx="0"/></clipPath></defs><g style="opacity:0.4000000059604645;" clip-path="url(#master_svg0_26_4314)"><g><path d="M16.809820000000002,7.715266140625Q17.33233,8.262984140625,16.81013,8.810694140625L16.809820000000002,8.811014140625L16.80942,8.811434140625L14.2543,11.489824140625L14.25412,11.490014140625Q14.18758,11.559764140625,14.15174,11.649254140625Q14.1159,11.738744140625,14.1159,11.835144140625001Q14.1159,11.884394140625,14.12551,11.932694140625Q14.135110000000001,11.980994140625,14.15396,12.026484140625Q14.172799999999999,12.071984140625,14.20016,12.112934140625Q14.22752,12.153874140625,14.26235,12.188704140625Q14.297170000000001,12.223524140624999,14.33811,12.250884140625Q14.379059999999999,12.278244140624999,14.42456,12.297084140625Q14.47006,12.315934140625,14.51835,12.325534140624999Q14.56665,12.335144140625001,14.6159,12.335144140625001Q14.71842,12.335144140625001,14.81267,12.294804140625Q14.90692,12.254454140625,14.97768,12.180274140625L14.97812,12.179814140625L17.5334,9.501274140625L17.5336,9.501014140625L17.5342,9.500434140625Q18.0245,8.985904140625,18.0245,8.263144140625Q18.0245,7.932465140625,17.921799999999998,7.645374140625L17.945700000000002,7.620343140625Q18.4463,7.095584140625,19.159399999999998,7.095584140625Q19.872500000000002,7.095584140625,20.3731,7.620343140625Q20.8642,8.135124140625,20.8642,8.858474140625Q20.8642,9.581834140625,20.3731,10.096614140625L20.3031,10.169954140625Q20.035,10.072244140625,19.7273,10.072244140625Q19.0146,10.072244140625,18.514200000000002,10.596414140625L20.3031,10.169954140625Q20.656399999999998,10.298684140625,20.941000000000003,10.597014140625Q21.4321,11.111804140625,21.4321,11.835144140625001Q21.4321,12.558484140625,20.941000000000003,13.073274140625L20.871000000000002,13.146644140625L19.805799999999998,14.263194140625Q20.0107,14.048944140625,20.2952,14.048944140625Q20.580199999999998,14.048944140625,20.7853,14.263974140624999Q21.308,14.811844140625,20.7853,15.359714140625L19.9544,16.230754140625002Q19.9433,16.241064140625,19.9328,16.252024140625L17.28253,19.030344140624997L17.28209,19.030744140625Q15.495750000000001,20.903244140625,14.90156,21.181244140624997Q13.48082,21.846144140625,12.06276,21.186244140625Q11.4698,20.910244140625,9.68951,19.044044140624997L9.688790000000001,19.043244140625Q8.75865,18.068144140625,8.55268,17.730144140625Q8.071971,16.941094140624998,8.00671,16.004594140625002Q7.978595,15.601124140625,8.167486,14.229684140625L8.167542,14.229274140625L8.74338,10.048934140625Q8.84093,9.340754140625,9.50202,9.262684140625Q9.87401,9.218754140625,10.15568,9.482944140625Q10.44874,9.757814140625,10.4481,10.176694140624999L10.4452,12.110294140625001Q10.44505,12.213014140624999,10.4854,12.307474140625Q10.52575,12.401934140625,10.60007,12.472834140625Q10.63571,12.506824140625,10.67729,12.533214140624999Q10.718869999999999,12.559594140625,10.76479,12.577364140625Q10.81072,12.595134140625,10.85924,12.603604140625Q10.90775,12.612064140625,10.95698,12.610904140625Q11.00621,12.609744140625,11.054269999999999,12.599004140625Q11.10233,12.588264140625,11.14737,12.568354140625Q11.19241,12.548434140625,11.2327,12.520124140625Q11.27299,12.491804140625,11.306989999999999,12.456174140625L15.82958,7.715270140625Q16.03471,7.500244140625,16.319699999999997,7.500244140625Q16.604689999999998,7.500244140625,16.809820000000002,7.715266140625ZM19.933500000000002,16.252664140625L19.9544,16.230754140625002Q20.023699999999998,16.166344140625,20.111800000000002,16.131744140625003Q20.1999,16.097154140625,20.294600000000003,16.097144140624998Q20.3438,16.097144140624998,20.3921,16.106754140625Q20.4404,16.116364140625002,20.4859,16.135204140625Q20.531399999999998,16.154054140625,20.572400000000002,16.181414140625Q20.613300000000002,16.208774140625,20.6482,16.243594140625Q20.683,16.278414140625,20.7103,16.319364140624998Q20.7377,16.360314140625,20.756500000000003,16.405804140625Q20.775399999999998,16.451304140625,20.785,16.499604140625Q20.794600000000003,16.547904140625,20.794600000000003,16.597144140624998Q20.794600000000003,16.693544140625,20.7588,16.783034140625Q20.7229,16.872524140625,20.656399999999998,16.942274140625003L20.6558,16.942914140625L20.109099999999998,17.515944140625002Q20.099800000000002,17.527044140625,20.0898,17.537544140625002L21.5089,16.049974140625Q22,15.535194140625,22,14.811844140625Q22,14.088504140625,21.5089,13.573714140625Q21.2243,13.275374140625,20.871000000000002,13.146644140625Q17.8,7.304461140625,17.5334,7.025007040625Q17.03276,6.500244140625,16.319699999999997,6.500244140625Q15.60664,6.500244140625,15.106020000000001,7.025003440625L11.44708,10.860574140625L11.4481,10.178194140625Q11.44941,9.325334140625,10.83979,8.753554140624999Q10.21877,8.171094140625,9.38474,8.269584140625Q7.955794,8.438344140625,7.752737,9.912474140625001L7.176897,14.092814140625L7.176838,14.093244140625Q6.973813,15.567304140625,7.009129,16.074104140625Q7.091316,17.253444140625,7.698698,18.250444140625Q7.960699,18.680444140625,8.9652,19.733544140625L8.965910000000001,19.734244140625Q10.876619999999999,21.737244140625002,11.64084,22.092844140624997Q13.482,22.949744140625,15.32544,22.087044140625Q16.08968,21.729344140625003,18.0056,19.721044140625L18.0061,19.720544140625L20.0678,17.559344140625Q20.078699999999998,17.549144140625,20.089100000000002,17.538244140625L20.089100000000002,17.538244140625L20.0884,17.537644140624998L20.0678,17.559344140625Q19.9984,17.623844140625,19.9102,17.658444140625Q19.822,17.693144140625,19.7273,17.693144140625Q19.6781,17.693144140625,19.6298,17.683544140625Q19.5815,17.673944140625,19.536,17.655044140625Q19.4905,17.636244140625,19.4495,17.608844140625Q19.4086,17.581544140625,19.3737,17.546744140625Q19.338900000000002,17.511844140625,19.3116,17.470944140625Q19.2842,17.429944140625,19.2654,17.384444140625Q19.246499999999997,17.338944140625,19.2369,17.290644140624998Q19.2273,17.242344140625,19.2273,17.193144140625Q19.2273,17.096744140625,19.2631,17.007244140624998Q19.299,16.917764140625,19.3655,16.848014140625L19.912599999999998,16.274554140625Q19.9224,16.262984140625,19.9328,16.252024140625L19.933500000000002,16.252664140625ZM19.8044,14.264724140624999L18.386,15.751524140625L18.3853,15.752274140625Q18.314500000000002,15.826454140625,18.2203,15.866804140625Q18.125999999999998,15.907144140625,18.0235,15.907144140625Q17.9743,15.907144140625,17.926000000000002,15.897544140625Q17.8777,15.887934140625,17.8322,15.869084140625Q17.7867,15.850244140625,17.7457,15.822884140625Q17.7048,15.795524140625,17.6699,15.760704140625Q17.6351,15.725874140625,17.607799999999997,15.684934140625Q17.580399999999997,15.643984140625,17.5616,15.598484140625Q17.5427,15.552994140625,17.533099999999997,15.504694140625Q17.5235,15.456394140625,17.5235,15.407144140625Q17.5235,15.310744140625,17.5593,15.221254140625Q17.5952,15.131764140625,17.6617,15.062014140625L19.0811,13.574114140625L19.081400000000002,13.573884140625001L19.0815,13.573714140625L19.8045,14.264544140625L19.8044,14.264724140624999Z" fill-rule="evenodd" fill="#FFFFFF" fill-opacity="1" style="mix-blend-mode:passthrough"/></g><g><path d="M3.9844941406250003,14.950455859375L4.357664140625,15.343855859375Q4.428474140625,15.418455859375,4.523004140625,15.459155859375Q4.617534140625001,15.499755859375,4.720424140625,15.499755859375Q4.769674140625,15.499755859375,4.817974140625,15.490155859375Q4.866264140625,15.480555859375,4.911764140624999,15.461655859375Q4.957264140625,15.442855859375,4.9982141406250005,15.415455859375Q5.039154140625,15.388155859375,5.073974140624999,15.353355859375Q5.108804140625001,15.318455859375,5.1361641406250005,15.277555859375Q5.163514140625,15.236555859375,5.182364140624999,15.191055859375Q5.201214140625,15.145555859375,5.210814140625001,15.097255859375Q5.220424140625,15.048955859375,5.220424140625,14.999755859375Q5.220424140625,14.903755859375,5.184844140625,14.814555859375Q5.149274140625,14.725355859375,5.083184140625,14.655655859375L5.082984140624999,14.655455859375L4.710014140625,14.262255859375Q3.769134140625,13.269155859375,3.560324140625,12.924055859375Q3.073198140625,12.119055859375,3.007052140625,11.163235859375Q2.978553140625,10.751355859375,3.169669140625,9.354235859374999L3.1696711406249998,9.354215859375L3.751594140625,5.100365859375Q3.851084140625,4.373105859375,4.523194140625,4.293175859374999Q4.900254140625,4.2483358593750005,5.1863041406249994,4.518485859375Q5.4854041406250005,4.800965859375,5.484764140625,5.232035859374999L5.481844140625,7.199605859375Q5.481694140625001,7.299055859375,5.519624140625,7.390995859375Q5.557544140625,7.482945859375,5.6277641406250005,7.553375859375Q5.697994140625,7.623805859375,5.789814140624999,7.661995859375Q5.881644140625,7.700195859375,5.981104140625,7.700345859375Q6.084264140625001,7.700495859375,6.179064140625,7.659805859375Q6.273864140625,7.619115859375,6.344814140625,7.544225859375L10.915214140625,2.7200198593750002Q11.123874140625,2.499755859375,11.413104140625,2.499755859375Q11.702374140625,2.499755859375,11.911094140625,2.720039859375Q12.445354140625,3.284045859375,11.912574140625,3.848085859375L11.911684140625,3.8490258593749997L11.911364140625,3.849365859375L11.911074140625,3.849665859375L11.911064140625,3.849675859375L11.910644140625,3.850125859375L10.149114140624999,5.709405859375L10.148674140625001,5.709875859375Q10.082684140625,5.779525859375,10.047164140625,5.868665859375Q10.011644140625,5.9577958593750004,10.011644140625,6.053755859375Q10.011644140625,6.102995859375,10.021254140625,6.151295859375Q10.030854140625,6.199595859375,10.049704140625,6.245095859375Q10.068544140625,6.290595859375,10.095904140624999,6.331535859375Q10.123264140625,6.372485859375,10.158094140625,6.407305859375Q10.192914140625,6.442125859375,10.233854140624999,6.469485859375Q10.274804140625001,6.496845859375,10.320304140625,6.515695859375Q10.365794140624999,6.534535859375,10.414094140625,6.544145859375Q10.462394140625001,6.553755859375,10.511644140625,6.553755859375Q10.614614140625,6.553755859375,10.709204140625,6.513065859375Q10.803794140625,6.472385859375,10.874614140625,6.397635859375L10.874804140625,6.397435859375L12.636544140625,4.537885859375001L12.637044140625,4.537425859375L12.637044140625,4.537415859375L12.637044140625,4.537395859375L12.637144140625,4.537235859375L12.637344140625,4.537095859375L13.784844140625,3.325835859375Q13.993544140625,3.105545859375,14.282744140625,3.105545859375Q14.572044140625,3.105545859375,14.780644140625,3.325835859375Q15.315644140625,3.890445859375,14.781044140625,4.455055859374999L14.780644140625,4.455455859375Q14.714644140625,4.5251058593749995,14.679144140625,4.614245859375Q14.643644140625,4.703385859375,14.643644140625,4.799345859375Q14.643644140625,4.8485858593749995,14.653244140625,4.896885859375001Q14.662844140625,4.945185859375,14.681744140625,4.9906858593750005Q14.700544140625,5.036185859375,14.727944140625,5.077125859375Q14.755244140625,5.118075859375001,14.790044140625,5.1528958593750005Q14.824944140625,5.187715859375,14.865844140625,5.215075859375Q14.906844140625,5.242435859375,14.952344140625,5.2612858593750005Q14.997844140625,5.280125859375,15.046144140625,5.289735859375Q15.094444140625,5.299345859375,15.143644140625,5.299345859375Q15.246644140625,5.299345859375,15.341244140625,5.258665859375Q15.435744140625,5.2179758593750005,15.506644140625,5.143235859375Q16.000244140625,4.622195859375,16.000244140625,3.8906458593749997Q16.000244140625,3.1590858593749997,15.506644140625,2.638050859375Q15.002144140625,2.105548859375,14.282744140625,2.105548859375Q13.563444140625,2.105548859375,13.058844140625,2.638050859375L13.030344140625,2.6681948593750002Q12.908144140625,2.318469859375,12.637044140625,2.0322471593750002Q12.132464140625,1.499755859375,11.413104140625,1.499755859375Q10.693714140625,1.499755859375,10.189274140624999,2.032267059375L6.4837141406250005,5.943605859374999L6.484764140625,5.233515859375Q6.486044140624999,4.370515859375001,5.872914140624999,3.791465859375Q5.246734140625,3.200085859375,4.405104140625,3.300175859375Q3.763644140625,3.376455859375,3.303003140625,3.847765859375Q2.850267140625,4.310985859375,2.760818140625,4.964825859375L2.178898140625,9.218685859375L2.178896140625,9.218705859375Q1.9738371406250002,10.717755859375,2.009438140625,11.232275859375Q2.092298140625,12.429555859375,2.704767140625,13.441855859375Q2.969246140625,13.878855859375,3.9844941406250003,14.950455859375Z" fill-rule="evenodd" fill="#FFFFFF" fill-opacity="1" style="mix-blend-mode:passthrough"/></g></g></svg>