<svg xmlns="http://www.w3.org/2000/svg" xmlns:xlink="http://www.w3.org/1999/xlink" fill="none" version="1.1" width="40" height="40" viewBox="0 0 40 40"><defs><clipPath id="master_svg0_26_01211"><rect x="0" y="0" width="40" height="40" rx="0"/></clipPath></defs><g clip-path="url(#master_svg0_26_01211)"><g><path d="M36.6663078125,20.0000740234375Q36.6663078125,20.4091740234375,36.6463078125,20.8178740234375Q36.6262078125,21.2264740234375,36.5861078125,21.6336740234375Q36.5460078125,22.0408740234375,36.4859078125,22.4455740234375Q36.4259078125,22.8502740234375,36.3461078125,23.2515740234375Q36.2663078125,23.6528740234375,36.1669078125,24.0496740234375Q36.0674078125,24.4465740234375,35.9487078125,24.8380740234375Q35.8299078125,25.2296740234375,35.6921078125,25.6148740234375Q35.5542078125,26.0000740234375,35.3977078125,26.3780740234375Q35.241107812500005,26.7560740234375,35.0661078125,27.1259740234375Q34.8912078125,27.4957740234375,34.6984078125,27.8566740234375Q34.5055078125,28.2174740234375,34.2951078125,28.5683740234375Q34.0848078125,28.9193740234375,33.8575078125,29.2595740234375Q33.630207812500004,29.5997740234375,33.3865078125,29.9283740234375Q33.1427078125,30.2569740234375,32.883207812500004,30.5732740234375Q32.6236078125,30.8895740234375,32.3488078125,31.1926740234375Q32.0741078125,31.4958740234375,31.7848078125,31.7851740234375Q31.4955078125,32.0744740234375,31.1923078125,32.3491740234375Q30.8892078125,32.6239740234375,30.5729078125,32.883574023437504Q30.2566078125,33.1430740234375,29.9280078125,33.3868740234375Q29.5994078125,33.630574023437504,29.2592078125,33.8578740234375Q28.9190078125,34.0851740234375,28.5680078125,34.2954740234375Q28.2171078125,34.5058740234375,27.8563078125,34.698674023437505Q27.4954078125,34.8915740234375,27.1256078125,35.0665740234375Q26.7557078125,35.241474023437505,26.3777078125,35.3980740234375Q25.9997078125,35.5545740234375,25.6145078125,35.6924740234375Q25.2293078125,35.8302740234375,24.8377078125,35.9490740234375Q24.4462078125,36.0677740234375,24.0493078125,36.1672740234375Q23.6525078125,36.2666740234375,23.2512078125,36.3464740234375Q22.8499078125,36.4262740234375,22.4452078125,36.4862740234375Q22.0405078125,36.5463740234375,21.6333078125,36.5864740234375Q21.2261078125,36.6265740234375,20.8175078125,36.6466740234375Q20.4088078125,36.6666740234375,19.9997078125,36.6666740234375Q19.5905078125,36.6666740234375,19.1819078125,36.6466740234375Q18.7732078125,36.6265740234375,18.3660078125,36.5864740234375Q17.9589078125,36.5463740234375,17.5542078125,36.4862740234375Q17.1494078125,36.4262740234375,16.7482078125,36.3464740234375Q16.3469078125,36.2666740234375,15.9500078125,36.1672740234375Q15.5531078125,36.0677740234375,15.1616078125,35.9490740234375Q14.7701078125,35.8302740234375,14.3848078125,35.6924740234375Q13.9996078125,35.5545740234375,13.6216078125,35.3980740234375Q13.2436178125,35.241474023437505,12.8737578125,35.0664740234375Q12.5038878125,34.8915740234375,12.1430578125,34.6987740234375Q11.7822278125,34.5058740234375,11.4312978125,34.2954740234375Q11.0803578125,34.0851740234375,10.740167812500001,33.8578740234375Q10.399977812500001,33.630574023437504,10.0713478125,33.3868740234375Q9.7427278125,33.1430740234375,9.426447812500001,32.883574023437504Q9.1101778125,32.6239740234375,8.8070278125,32.3491740234375Q8.503867812500001,32.0744740234375,8.2145578125,31.7851740234375Q7.9252578125,31.4958740234375,7.6504878125,31.1926740234375Q7.3757278125,30.8895740234375,7.1161678125000005,30.5732740234375Q6.8566078125,30.2569740234375,6.6128778125,29.9283740234375Q6.3691578125,29.5997740234375,6.1418478125,29.2595740234375Q5.9145378125,28.9193740234375,5.7041978125,28.5683740234375Q5.4938578125,28.2174740234375,5.3009878125,27.8566740234375Q5.1081178125,27.4957740234375,4.9331878125,27.1259740234375Q4.7582578125,26.7560740234375,4.6016778125,26.3780740234375Q4.4451078125,26.0000740234375,4.3072728125,25.6148740234375Q4.1694368125,25.2296740234375,4.0506688125,24.8380740234375Q3.9319008125,24.4465740234375,3.8324868125,24.0496740234375Q3.7330728125,23.6528740234375,3.6532528125,23.2515740234375Q3.5734328125,22.8502740234375,3.5133988125,22.4455740234375Q3.4533658125,22.0408740234375,3.4132623125,21.6336740234375Q3.3731593125,21.2264740234375,3.3530835125,20.8178740234375Q3.3330078125,20.4091740234375,3.3330078125,20.0000740234375Q3.3330078125,19.5908740234375,3.3530835125,19.1822740234375Q3.3731593125,18.7735740234375,3.4132623125,18.3663740234375Q3.4533658125,17.9592740234375,3.5133988125,17.5545740234375Q3.5734328125,17.1497740234375,3.6532528125,16.7485740234375Q3.7330728125,16.3472740234375,3.8324868125,15.9503740234375Q3.9319008125,15.5534740234375,4.0506688125,15.1619740234375Q4.1694368125,14.7704740234375,4.3072728125,14.3851740234375Q4.4451078125,13.9999740234375,4.6016778125,13.6219740234375Q4.7582578125,13.2439840234375,4.9331878125,12.8741240234375Q5.1081178125,12.5042540234375,5.3009878125,12.1434240234375Q5.4938578125,11.7825940234375,5.7041978125,11.4316640234375Q5.9145378125,11.0807240234375,6.1418478125,10.740534023437501Q6.3691578125,10.400344023437501,6.6128778125,10.0717140234375Q6.8566078125,9.7430940234375,7.1161678125000005,9.426814023437501Q7.3757278125,9.1105440234375,7.6504878125,8.8073940234375Q7.9252578125,8.504234023437501,8.2145578125,8.2149240234375Q8.503867812500001,7.9256240234375,8.8070278125,7.6508540234375Q9.1101778125,7.3760940234375,9.426447812500001,7.1165340234375005Q9.7427278125,6.8569740234375,10.0713478125,6.6132440234375Q10.399977812500001,6.3695240234375,10.740167812500001,6.1422140234375Q11.0803578125,5.9149040234375,11.4312978125,5.7045640234375Q11.7822278125,5.4942240234375,12.1430578125,5.3013540234375Q12.5038878125,5.1084840234375,12.8737578125,4.9335540234375Q13.2436178125,4.7586240234375,13.6216078125,4.6020440234375Q13.9996078125,4.4454740234375,14.3848078125,4.3076390234375Q14.7701078125,4.1698030234375,15.1616078125,4.0510350234375Q15.5531078125,3.9322670234375,15.9500078125,3.8328530234375Q16.3469078125,3.7334390234375,16.7482078125,3.6536190234375Q17.1494078125,3.5737990234375,17.5542078125,3.5137650234375Q17.9589078125,3.4537320234375,18.3660078125,3.4136285234375Q18.7732078125,3.3735255234375,19.1819078125,3.3534497234375Q19.5905078125,3.3333740234375,19.9997078125,3.3333740234375Q20.4088078125,3.3333740234375,20.8175078125,3.3534497234375Q21.2261078125,3.3735255234375,21.6333078125,3.4136285234375Q22.0405078125,3.4537320234375,22.4452078125,3.5137650234375Q22.8499078125,3.5737990234375,23.2512078125,3.6536190234375Q23.6525078125,3.7334390234375,24.0493078125,3.8328530234375Q24.4462078125,3.9322670234375,24.8377078125,4.0510350234375Q25.2293078125,4.1698030234375,25.6145078125,4.3076390234375Q25.9997078125,4.4454740234375,26.3777078125,4.6020440234375Q26.7557078125,4.7586240234375,27.1256078125,4.9335540234375Q27.4954078125,5.1084840234375,27.8563078125,5.3013540234375Q28.2171078125,5.4942240234375,28.5680078125,5.7045640234375Q28.9190078125,5.9149040234375,29.2592078125,6.1422140234375Q29.5994078125,6.3695240234375,29.9280078125,6.6132440234375Q30.2566078125,6.8569740234375,30.5729078125,7.1165340234375005Q30.8892078125,7.3760940234375,31.1923078125,7.6508540234375Q31.4955078125,7.9256240234375,31.7848078125,8.2149240234375Q32.0741078125,8.504234023437501,32.3488078125,8.8073940234375Q32.6236078125,9.1105440234375,32.883207812500004,9.426814023437501Q33.1427078125,9.7430940234375,33.3865078125,10.0717140234375Q33.630207812500004,10.400344023437501,33.8575078125,10.740534023437501Q34.0848078125,11.0807240234375,34.2951078125,11.4316640234375Q34.5055078125,11.7825940234375,34.698307812500005,12.1434240234375Q34.8912078125,12.5042540234375,35.0662078125,12.8741240234375Q35.241107812500005,13.2439840234375,35.3977078125,13.6219740234375Q35.5542078125,13.9999740234375,35.6921078125,14.3851740234375Q35.8299078125,14.7704740234375,35.9487078125,15.1619740234375Q36.0674078125,15.5534740234375,36.1669078125,15.9503740234375Q36.2663078125,16.3472740234375,36.3461078125,16.7485740234375Q36.4259078125,17.1497740234375,36.4859078125,17.5545740234375Q36.5460078125,17.9592740234375,36.5861078125,18.3663740234375Q36.6262078125,18.7735740234375,36.6463078125,19.1822740234375Q36.6663078125,19.5908740234375,36.6663078125,20.0000740234375Z" fill="#E86565" fill-opacity="0.20000000298023224"/><path d="M7.5074578125,7.5078240234375Q2.3330078125,12.6822640234375,2.3330078125,20.0000740234375Q2.3330078125,27.3177740234375,7.5074578125,32.4922740234375Q12.6818878125,37.6666740234375,19.9997078125,37.6666740234375Q27.3174078125,37.6666740234375,32.4919078125,32.4922740234375Q37.6663078125,27.3178740234375,37.6663078125,20.0000740234375Q37.6663078125,12.6822640234375,32.4919078125,7.5078240234375Q27.3175078125,2.3333740234375,19.9997078125,2.3333740234375Q12.6818978125,2.3333740234375,7.5074578125,7.5078240234375ZM8.9216678125,31.0780740234375Q4.3330078125,26.4893740234375,4.3330078125,20.0000740234375Q4.3330078125,13.5106740234375,8.9216678125,8.9220340234375Q13.5103078125,4.3333740234375,19.9997078125,4.3333740234375Q26.4890078125,4.3333740234375,31.0777078125,8.9220340234375Q35.6663078125,13.5106740234375,35.6663078125,20.0000740234375Q35.6663078125,26.4893740234375,31.0777078125,31.0780740234375Q26.4890078125,35.6666740234375,19.9997078125,35.6666740234375Q13.5103078125,35.6666740234375,8.9216678125,31.0780740234375Z" fill-rule="evenodd" fill="#E86565" fill-opacity="1" style="mix-blend-mode:passthrough"/></g><g><path d="M25.420356249999998,15.9931177421875Q25.56095625,15.8524657421875,25.63715625,15.6686937421875Q25.71325625,15.4849227421875,25.71325625,15.2860107421875Q25.71325625,15.1875193421875,25.69405625,15.0909207421875Q25.674856249999998,14.9943217421875,25.63715625,14.9033277421875Q25.59945625,14.8123327421875,25.54475625,14.7304407421875Q25.48995625,14.6485477421875,25.420356249999998,14.5789037421875Q25.35065625,14.5092597421875,25.26880625,14.4545407421875Q25.18691625,14.3998227421875,25.095916250000002,14.3621317421875Q25.00492625,14.3244407421875,24.908326250000002,14.305225742187499Q24.81172625,14.2860107421875,24.71323625,14.2860107421875Q24.51432625,14.2860107421875,24.33055625,14.3621307421875Q24.146786249999998,14.4382517421875,24.00613625,14.5789037421875L24.005756249999997,14.5792787421875L14.57842425,24.006610742187497L14.57804925,24.0069907421875Q14.43739725,24.147640742187498,14.36127725,24.3314107421875Q14.28515625,24.5151807421875,14.28515625,24.7140907421875Q14.28515625,24.8125807421875,14.304371249999999,24.909180742187502Q14.32358625,25.0057807421875,14.36127725,25.096770742187502Q14.39896825,25.1877707421875,14.45368625,25.2696607421875Q14.50840525,25.3515107421875,14.57804925,25.421210742187498Q14.64769325,25.4908107421875,14.72958625,25.5456107421875Q14.81147825,25.6003107421875,14.90247325,25.6380107421875Q14.99346725,25.675710742187498,15.09006625,25.6949107421875Q15.18666485,25.7141107421875,15.28515625,25.7141107421875Q15.48406825,25.7141107421875,15.66783925,25.6380107421875Q15.85161125,25.5618107421875,15.99226325,25.421210742187498L25.41995625,15.9934927421875L25.420356249999998,15.9931177421875L25.420356249999998,15.9931177421875Z" fill-rule="evenodd" fill="#E86565" fill-opacity="1" style="mix-blend-mode:passthrough"/></g><g><path d="M15.9933588125,14.579022742187501L25.421332812499998,24.0069907421875Q25.5619328125,24.147640742187498,25.6381328125,24.3314107421875Q25.7142328125,24.5151807421875,25.7142328125,24.7140907421875Q25.7142328125,24.8125807421875,25.6950328125,24.909180742187502Q25.675832812499998,25.0057807421875,25.6381328125,25.096770742187502Q25.6004328125,25.1877707421875,25.5457328125,25.2696607421875Q25.4909328125,25.3515107421875,25.421332812499998,25.421210742187498Q25.3516328125,25.4908107421875,25.2697828125,25.5456107421875Q25.1878928125,25.6003107421875,25.096892812500002,25.6380107421875Q25.0059028125,25.675710742187498,24.909302812500002,25.6949107421875Q24.8127028125,25.7141107421875,24.7142128125,25.7141107421875Q24.5153028125,25.7141107421875,24.3315328125,25.6380107421875Q24.147762812499998,25.5618107421875,24.0071128125,25.421210742187498L14.5790258125,15.9931177421875Q14.4383738125,15.8524657421875,14.3622528125,15.6686937421875Q14.2861328125,15.4849227421875,14.2861328125,15.2860107421875Q14.2861328125,15.1875193421875,14.305347812499999,15.0909207421875Q14.3245628125,14.9943217421875,14.3622538125,14.9033277421875Q14.3999448125,14.8123327421875,14.4546628125,14.7304407421875Q14.5093818125,14.6485477421875,14.5790258125,14.5789037421875Q14.6486698125,14.5092597421875,14.7305628125,14.4545407421875Q14.8124548125,14.3998227421875,14.9034498125,14.3621317421875Q14.9944438125,14.3244407421875,15.0910428125,14.305225742187499Q15.1876414125,14.2860107421875,15.2861328125,14.2860107421875Q15.4850448125,14.2860107421875,15.6688158125,14.3621307421875Q15.8525878125,14.4382517421875,15.9932398125,14.5789037421875L15.9933588125,14.579022742187501Z" fill-rule="evenodd" fill="#E86565" fill-opacity="1" style="mix-blend-mode:passthrough"/></g></g></svg>