<svg xmlns="http://www.w3.org/2000/svg" xmlns:xlink="http://www.w3.org/1999/xlink" fill="none" version="1.1" width="16" height="16" viewBox="0 0 16 16"><defs><clipPath id="master_svg0_34_7125"><rect x="0" y="0" width="16" height="16" rx="0"/></clipPath></defs><g style="opacity:0.4000000059604645;" clip-path="url(#master_svg0_34_7125)"><g><path d="M2.0851710468749998,13.489548046875L2.085196046875,13.489648046875Q2.2811220468749998,13.719048046875,2.510526046875,13.914948046875Q3.268098046875,14.561948046875,4.650598046875,14.729948046875Q5.5024880468749995,14.833448046875,8.000078046875,14.833448046875Q10.497658046875,14.833448046875,11.349548046875,14.729948046875Q12.732048046875,14.561948046875,13.489548046875,13.914948046875Q13.719048046875,13.719048046875,13.914948046875,13.489648046875Q14.561948046875,12.732048046875,14.729948046875,11.349548046875Q14.833448046875,10.497658046875,14.833448046875,8.000078046875Q14.833448046875,5.5024880468749995,14.729948046875,4.650598046875Q14.561948046875,3.268098046875,13.914948046875,2.510548046875Q13.719048046875,2.281107046875,13.489648046875,2.085196046875Q12.732048046875,1.438163046875,11.349548046875,1.270227046875Q10.497668046875,1.166748046875,8.000078046875,1.166748046875Q5.502478046875,1.166748046875,4.650598046875,1.270227046875Q3.2681080468749997,1.438162046875,2.510537046875,2.085186046875Q2.281120046875,2.281120046875,2.085192046875,2.510530046875Q1.438162046875,3.2681080468749997,1.270227046875,4.650598046875Q1.166748046875,5.502478046875,1.166748046875,8.000078046875Q1.166748046875,10.497668046875,1.270227046875,11.349548046875Q1.438160046875,12.732048046875,2.0851710468749998,13.489548046875ZM3.159988046875,13.154548046875Q2.9904080468750003,13.009748046875,2.845618046875,12.840148046875L2.845588046875,12.840148046875Q2.394488046875,12.311948046875,2.2629300468749998,11.228968046875Q2.166748046875,10.437158046875,2.166748046875,8.000078046875Q2.166748046875,5.562998046875,2.2629300468749998,4.771188046875Q2.394488046875,3.688158046875,2.8455980468749997,3.159978046875Q2.990418046875,2.990418046875,3.159968046875,2.8455980468749997Q3.688158046875,2.394488046875,4.771188046875,2.2629300468749998Q5.562998046875,2.166748046875,8.000078046875,2.166748046875Q10.437158046875,2.166748046875,11.228968046875,2.2629300468749998Q12.311948046875,2.394488046875,12.840148046875,2.845588046875Q13.009748046875,2.9904080468750003,13.154548046875,3.159958046875Q13.605648046875,3.688168046875,13.737248046875,4.771188046875Q13.833448046875,5.562998046875,13.833448046875,8.000078046875Q13.833448046875,10.437158046875,13.737248046875,11.228958046875Q13.605648046875,12.311948046875,13.154548046875,12.840148046875Q13.009748046875,13.009748046875,12.840148046875,13.154548046875Q12.311948046875,13.605648046875,11.228958046875,13.737248046875Q10.437148046875,13.833448046875,8.000078046875,13.833448046875Q5.562998046875,13.833448046875,4.771188046875,13.737248046875Q3.688168046875,13.605648046875,3.159988046875,13.154548046875Z" fill-rule="evenodd" fill="#FFFFFF" fill-opacity="1" style="mix-blend-mode:passthrough"/></g><g><path d="M8.482179453125,4.665283203125L8.482179453125,4.904754203125Q9.158029453125,5.006649203125,9.668669453125,5.4877752031250004Q10.219559453125001,6.006813203125,10.302429453125,6.641993203125L10.302549453125,6.642883203125Q10.306719453125,6.6749632031249995,10.306719453125,6.7073132031250005Q10.306719453125,6.756563203124999,10.297109453125,6.8048632031250005Q10.287499453125001,6.853163203125,10.268659453125,6.898653203125Q10.249809453125,6.9441532031249995,10.222449453125,6.985103203125Q10.195089453125,7.026043203125,10.160269453125,7.060873203125Q10.125449453125,7.095693203125,10.084499453125,7.123053203125Q10.043559453124999,7.150413203125,9.998059453125,7.169253203125Q9.952559453125,7.188103203124999,9.904259453125,7.197713203125Q9.855959453125,7.2073132031250005,9.806719453125,7.2073132031250005Q9.761549453125,7.2073132031250005,9.717109453125,7.199223203124999Q9.672659453125,7.1911232031250005,9.630399453125,7.175193203125Q9.588129453125,7.1592632031250005,9.549399453125,7.136013203125Q9.510659453125001,7.112773203125,9.476729453125,7.082963203125Q9.442789453125,7.053143203125,9.414749453125,7.017733203125Q9.386699453125,6.982323203125,9.365459453125,6.942453203125Q9.344219453125,6.902593203125,9.330459453125,6.859563203125Q9.316709453125,6.816543203125001,9.310889453125,6.771743203125Q9.274289453125,6.490143203125,8.982909453125,6.215603203125Q8.623949453125,5.8773832031249995,8.107109453125,5.877373203125Q8.057559453125,5.877373203125,8.009469453125,5.879053203125Q8.001159453125,5.879503203125,7.992849453125,5.8796832031249995Q7.424279453125,5.903063203125,7.061979453125,6.1633932031250005Q6.806772453125,6.346773203125,6.747821453125,6.537973203125L6.744422453125,6.548993203125L6.740519453125,6.559853203125Q6.647863453125,6.817513203124999,6.760441453125,7.021233203125Q6.928815453125,7.325933203125,7.605069453125,7.373833203125Q9.140629453125,7.482673203125,9.712469453125,7.7829032031250005Q10.572489453125,8.234443203125,10.479989453125,9.345433203125001Q10.395599453125,10.358203203125,9.541939453125,10.816413203125Q9.087889453125,11.060133203125,8.482179453125,11.101843203125L8.482179453125,11.331913203125Q8.482179453125,11.381163203125,8.472579453125,11.429463203125Q8.462969453125,11.477763203125,8.444119453125,11.523253203125Q8.425279453125,11.568753203125,8.397919453125,11.609703203125001Q8.370559453125,11.650643203125,8.335739453125,11.685473203125Q8.300909453125,11.720293203125,8.259969453125,11.747653203125001Q8.219019453125,11.775013203124999,8.173519453125,11.793853203125Q8.128029453125,11.812703203125,8.079729453125001,11.822303203125Q8.031429453125,11.831913203125,7.982179453125,11.831913203125Q7.932939453125,11.831913203125,7.884639453125,11.822303203125Q7.8363394531249995,11.812703203125,7.790839453125,11.793853203125Q7.745339453125,11.775013203124999,7.704399453125,11.747653203125001Q7.663449453125,11.720293203125,7.628629453125,11.685473203125Q7.593809453125,11.650643203125,7.566449453125,11.609703203125001Q7.5390894531249995,11.568753203125,7.520239453125,11.523253203125Q7.501399453125,11.477763203125,7.4917894531249996,11.429463203125Q7.482179453125,11.381163203125,7.482179453125,11.331913203125L7.482179453125,11.043933203125Q6.980975453125,10.951403203125,6.542761453125,10.730423203125Q5.531199453125,10.220303203124999,5.482372453125,9.274923203124999L5.482355453125,9.274593203125L5.482348453125,9.274443203125Q5.481689453125,9.261623203125,5.481689453125,9.248783203125Q5.481689453125,9.199533203125,5.491296453125,9.151233203124999Q5.500904453125,9.102933203125,5.519749453125,9.057443203125Q5.538595453125,9.011943203125,5.565954453125,8.970993203125001Q5.593314453125,8.930053203125,5.628136453125,8.895233203124999Q5.662958453125,8.860403203125,5.703904453125,8.833043203125001Q5.744850453125,8.805693203125,5.790347453125,8.786843203124999Q5.835844453125,8.767993203125,5.884144353125,8.758393203125Q5.932443753125,8.748783203125,5.981689453125,8.748783203125Q6.029315753125,8.748783203125,6.076085553125,8.757773203125Q6.122855453125,8.766763203124999,6.167086453125,8.784423203125Q6.211317453125,8.802083203125001,6.251419453125,8.827783203125Q6.291521453125,8.853473203124999,6.326051453125,8.886273203125Q6.3605814531250005,8.919073203125,6.3882984531249996,8.957803203125Q6.416014453125,8.996533203125,6.435921453125,9.039803203125Q6.455827453125,9.083063203125,6.467206453125,9.129313203125001Q6.478586453125,9.175563203125,6.481030453125,9.223123203124999Q6.499820453125,9.588803203125,6.993029453125,9.837533203125Q7.439269453125,10.062563203125,7.993959453125,10.102123203125Q8.014599453125001,10.102613203125,8.035119453125,10.104793203125Q8.078809453125,10.107353203125001,8.123159453125,10.108773203125Q9.409459453125,10.150273203125,9.483439453125,9.262393203125Q9.506399453124999,8.986693203125,9.441789453125,8.848763203125Q9.393009453125,8.744633203125,9.247609453125,8.668293203125Q8.861109453125,8.465363203125,7.5343694531250005,8.371333203125Q6.316296453125,8.285053203124999,5.885186053125,7.504893203125Q5.556242453125,6.909623203124999,5.795776453125,6.231943203125Q5.956101453125,5.726633203125,6.478455453125,5.351299203125Q6.913114453125,5.038977203125,7.482179453125,4.932480203125L7.482179453125,4.665283203125Q7.482179453125,4.616037503125,7.4917894531249996,4.567738103125Q7.501399453125,4.519438203125,7.520239453125,4.473941203125Q7.5390894531249995,4.428444203125,7.566449453125,4.387498203125Q7.593809453125,4.346552203125,7.628629453125,4.311730203125Q7.663449453125,4.276908203125,7.704399453125,4.249548203125Q7.745339453125,4.222189203125,7.790839453125,4.203343203125Q7.8363394531249995,4.184498203125,7.884639453125,4.174890203125Q7.932939453125,4.165283203125,7.982179453125,4.165283203125Q8.031429453125,4.165283203125,8.079729453125001,4.174890203125Q8.128029453125,4.184498203125,8.173519453125,4.203343203125Q8.219019453125,4.222189203125,8.259969453125,4.249548203125Q8.300909453125,4.276908203125,8.335739453125,4.311730203125Q8.370559453125,4.346552203125,8.397919453125,4.387498203125Q8.425279453125,4.428444203125,8.444119453125,4.473941203125Q8.462969453125,4.519438203125,8.472579453125,4.567738103125Q8.482179453125,4.616037503125,8.482179453125,4.665283203125Z" fill-rule="evenodd" fill="#FFFFFF" fill-opacity="1" style="mix-blend-mode:passthrough"/></g></g></svg>