<svg xmlns="http://www.w3.org/2000/svg" xmlns:xlink="http://www.w3.org/1999/xlink" fill="none" version="1.1" width="24" height="24" viewBox="0 0 24 24"><defs><clipPath id="master_svg0_16_4224"><rect x="0" y="24" width="24" height="24" rx="0"/></clipPath></defs><g transform="matrix(1,0,0,-1,0,48)" clip-path="url(#master_svg0_16_4224)"><g><path d="M14.5,30.500244140625L20.49995,30.500244140625Q20.59844,30.500244140625,20.69504,30.519459140625Q20.79164,30.538674140624998,20.88263,30.576365140625Q20.97363,30.614056140625,21.05552,30.668774140625Q21.13741,30.723493140625,21.20706,30.793137140625Q21.276699999999998,30.862781140625,21.33142,30.944674140625Q21.38614,31.026566140625,21.42383,31.117561140625Q21.46152,31.208555140625,21.48074,31.305154140625Q21.49995,31.401752740625,21.49995,31.500244140625L21.49995,37.500244140625Q21.49995,37.598734140625,21.48074,37.695334140625Q21.46152,37.791934140625,21.42383,37.882924140625Q21.38614,37.973924140625,21.33142,38.055814140625Q21.276699999999998,38.137704140625,21.20706,38.207354140625Q21.13741,38.276994140625,21.05552,38.331714140625Q20.97363,38.386434140625,20.88263,38.424124140625Q20.79164,38.461814140625,20.69504,38.481024140625Q20.59844,38.500244140625,20.49995,38.500244140625Q20.40146,38.500244140625,20.304859999999998,38.481024140625Q20.20826,38.461814140625,20.11727,38.424124140625Q20.02627,38.386434140625,19.94438,38.331714140625Q19.86249,38.276994140625,19.792839999999998,38.207354140625Q19.7232,38.137704140625,19.66848,38.055814140625Q19.61376,37.973924140625,19.57607,37.882924140625Q19.53838,37.791934140625,19.51916,37.695334140625Q19.49995,37.598734140625,19.49995,37.500244140625L19.49995,32.500244140625L14.5,32.500244140625Q14.4015086,32.500244140625,14.30491,32.481029140625Q14.208311,32.461814140625,14.117317,32.424123140625Q14.026322,32.386432140625,13.94443,32.331714140625Q13.862537,32.276995140625,13.792893,32.207351140625Q13.723249,32.137707140625,13.66853,32.055814140625Q13.613812,31.973922140625,13.576121,31.882927140625Q13.53843,31.791933140625,13.519214999999999,31.695334140625Q13.5,31.598735540625,13.5,31.500244140625Q13.5,31.401752740625,13.519214999999999,31.305154140625Q13.53843,31.208555140625,13.576121,31.117561140625Q13.613812,31.026566140625,13.66853,30.944674140625Q13.723249,30.862781140625,13.792893,30.793137140625Q13.862537,30.723493140625,13.94443,30.668774140625Q14.026322,30.614056140625,14.117317,30.576365140625Q14.208311,30.538674140624998,14.30491,30.519459140625Q14.4015086,30.500244140625,14.5,30.500244140625Z" fill-rule="evenodd" fill="#E86565" fill-opacity="1" style="mix-blend-mode:passthrough"/></g><g><path d="M21.2229,32.190962Q21.3563,32.051408,21.4281,31.872229Q21.5,31.693051,21.5,31.5Q21.5,31.4015086,21.4808,31.30491Q21.4616,31.208311,21.4239,31.117317Q21.3862,31.026322,21.3315,30.94443Q21.2767,30.862537,21.2071,30.792893Q21.1375,30.723249,21.0556,30.66853Q20.9737,30.613812,20.8827,30.576121Q20.7917,30.538429999999998,20.6951,30.519215Q20.5985,30.5,20.5,30.5Q20.2952,30.5,20.1069,30.5805Q19.9186,30.660999,19.7771,30.809038L12.92546,37.977289999999996L8.68962,35.39606Q8.61326,35.34952,8.52984,35.31728Q8.44643,35.28503,8.35862,35.2681Q8.27081,35.25116,8.18139,35.25007Q8.09197,35.24899,8.003779999999999,35.26379Q7.91558,35.27858,7.83141,35.3088Q7.74724,35.33901,7.66977,35.38367Q7.5923,35.42834,7.52398,35.48605Q7.45566,35.54375,7.39866,35.61266L2.229856,41.8621L2.2294140000000002,41.862700000000004Q2.1182,41.9971,2.0591,42.1613Q2,42.3255,2,42.5Q2,42.5985,2.019215,42.6951Q2.03843,42.7917,2.076121,42.8827Q2.1138120000000002,42.9737,2.16853,43.0556Q2.223249,43.1375,2.292893,43.2071Q2.362537,43.2767,2.44443,43.3315Q2.526322,43.3862,2.617317,43.4239Q2.708311,43.461600000000004,2.80491,43.4808Q2.9015086,43.5,3,43.5Q3.110415,43.5,3.218171,43.475899999999996Q3.325927,43.4518,3.425831,43.4048Q3.525735,43.3578,3.612975,43.2901Q3.700214,43.2224,3.7705859999999998,43.137299999999996L3.771027,43.1368L8.388110000000001,37.55441L12.57193,40.10394Q12.64443,40.14812,12.72335,40.17945Q12.80227,40.21078,12.88534,40.22835Q12.9684,40.24592,13.0532,40.24924Q13.1381,40.25255,13.2223,40.24152Q13.3065,40.23048,13.3876,40.20541Q13.4687,40.18034,13.5444,40.14195Q13.6202,40.10356,13.6883,40.052949999999996Q13.7565,40.002340000000004,13.8152,39.940960000000004L21.2229,32.190962Z" fill-rule="evenodd" fill="#E86565" fill-opacity="1" style="mix-blend-mode:passthrough"/></g></g></svg>