<svg xmlns="http://www.w3.org/2000/svg" xmlns:xlink="http://www.w3.org/1999/xlink" fill="none" version="1.1" width="16" height="16" viewBox="0 0 16 16"><defs><clipPath id="master_svg0_26_4341"><rect x="0" y="0" width="16" height="16" rx="0"/></clipPath></defs><g clip-path="url(#master_svg0_26_4341)"><g><path d="M4.95904,4.08287090625Q5.01052,4.04864590625,5.05211,4.00291590625Q5.0937,3.95718590625,5.1229,3.90270490625Q5.1521,3.84822290625,5.1671499999999995,3.78826990625Q5.1822099999999995,3.72831760625,5.1822099999999995,3.66650390625Q5.1822099999999995,3.61725820625,5.1726,3.56895880625Q5.162990000000001,3.52065890625,5.14415,3.47516190625Q5.1253,3.42966490625,5.0979399999999995,3.38871890625Q5.07058,3.34777290625,5.03576,3.31295090625Q5.00094,3.27812890625,4.9599899999999995,3.25076890625Q4.91904,3.22340990625,4.87355,3.2045639062499998Q4.82805,3.18571890625,4.77975,3.17611090625Q4.731450000000001,3.16650390625,4.6822099999999995,3.16650390625Q4.53116,3.16650390625,4.40537,3.25013690625Q3.06751,4.13966190625,2.296375,5.54667390625Q1.5,6.99974390625,1.500001,8.66650390625Q1.5,11.35890390625,3.40381,13.26270390625Q5.30761,15.16650390625,8,15.16650390625Q10.69241,15.16650390625,12.5962,13.26270390625Q14.5,11.358913906249999,14.5,8.66650390625Q14.5,6.99975390625,13.7036,5.54667390625Q12.9327,4.14007690625,11.59542,3.25065390625L11.59475,3.25021090625L11.59464,3.25013990625Q11.46885,3.16650390625,11.3178,3.16650390625Q11.26855,3.16650390625,11.22025,3.17611090625Q11.17195,3.18571890625,11.12646,3.2045639062499998Q11.08096,3.22340990625,11.04001,3.25076890625Q10.99907,3.27812890625,10.96425,3.31295090625Q10.92942,3.34777290625,10.90207,3.38871890625Q10.87471,3.42966490625,10.85586,3.47516190625Q10.83701,3.52065890625,10.82741,3.56895880625Q10.8178,3.61725820625,10.8178,3.66650390625Q10.8178,3.72831710625,10.83285,3.78826890625Q10.84791,3.84822190625,10.87711,3.90270290625Q10.90631,3.95718390625,10.9479,4.00291390625Q10.98949,4.04864390625,11.04096,4.08286890625L11.04102,4.08290790625L11.04152,4.08324090625Q12.174,4.83641390625,12.8267,6.02729390625Q13.5,7.25582390625,13.5,8.66650390625Q13.5,10.94469390625,11.8891,12.55560390625Q10.27819,14.16650390625,8,14.16650390625Q5.72182,14.16650390625,4.1109100000000005,12.55560390625Q2.500001,10.94469390625,2.500001,8.66650390625Q2.5,7.255813906249999,3.17331,6.02729390625Q3.82598,4.83641390625,4.958489999999999,4.08324090625L4.95904,4.08287090625L4.95904,4.08287090625Z" fill-rule="evenodd" fill="#FFFFFF" fill-opacity="1" style="mix-blend-mode:passthrough"/></g><g><path d="M7.5,1.33349609375Q7.5,1.28425039375,7.509607,1.23595099375Q7.519215,1.18765109375,7.53806,1.1421540937499999Q7.556906,1.09665709375,7.584265,1.05571109375Q7.611625,1.01476509375,7.646447,0.97994309375Q7.681269,0.94512109375,7.722215,0.91776109375Q7.763161,0.89040209375,7.808658,0.87155609375Q7.854155,0.85271109375,7.9024549,0.8431030937499999Q7.9507543,0.83349609375,8,0.83349609375Q8.0492457,0.83349609375,8.0975451,0.8431030937499999Q8.145845,0.85271109375,8.191342,0.87155609375Q8.236839,0.89040209375,8.277785,0.91776109375Q8.318731,0.94512109375,8.353553,0.97994309375Q8.388375,1.01476509375,8.415735,1.05571109375Q8.443094,1.09665709375,8.46194,1.1421540937499999Q8.480785000000001,1.18765109375,8.490393,1.23595099375Q8.5,1.28425039375,8.5,1.33349609375L8.5,6.66682609375Q8.5,6.71607609375,8.490393,6.76437609375Q8.480785000000001,6.81267609375,8.46194,6.85816609375Q8.443094,6.90366609375,8.415735,6.94461609375Q8.388375,6.98555609375,8.353553,7.02038609375Q8.318731,7.05520609375,8.277785,7.08256609375Q8.236839,7.10992609375,8.191342,7.12876609375Q8.145845,7.14761609375,8.0975451,7.15722609375Q8.0492457,7.16682609375,8,7.16682609375Q7.9507543,7.16682609375,7.9024549,7.15722609375Q7.854155,7.14761609375,7.808658,7.12876609375Q7.763161,7.10992609375,7.722215,7.08256609375Q7.681269,7.05520609375,7.646447,7.02038609375Q7.611625,6.98555609375,7.584265,6.94461609375Q7.556906,6.90366609375,7.53806,6.85816609375Q7.519215,6.81267609375,7.509607,6.76437609375Q7.5,6.71607609375,7.5,6.66682609375L7.5,1.33349609375Z" fill-rule="evenodd" fill="#FFFFFF" fill-opacity="1" style="mix-blend-mode:passthrough"/></g></g></svg>