<svg xmlns="http://www.w3.org/2000/svg" xmlns:xlink="http://www.w3.org/1999/xlink" fill="none" version="1.1" width="20" height="20" viewBox="0 0 20 20"><defs><clipPath id="master_svg0_26_4324"><rect x="0" y="0" width="20" height="20" rx="0"/></clipPath></defs><g style="opacity:0.4000000059604645;" clip-path="url(#master_svg0_26_4324)"><g><path d="M3.833251953125,9.166920688875L3.833251953125,12.500078046875Q3.833251953125,14.872728046875,3.935577953125,15.633808046875Q4.073241953125,16.657738046875,4.541071953125,17.125608046875Q5.008911953125,17.593428046874998,6.032831953125,17.731088046875Q6.793921953125,17.833418046875,9.166581953125,17.833418046875L10.833251953125,17.833418046875Q13.205901953125,17.833418046875,13.966951953125,17.731088046875Q14.990951953125,17.593428046874998,15.458751953125,17.125628046875Q15.926651953125,16.657738046875,16.064251953125,15.633818046875Q16.166551953125,14.872718046875,16.166551953125,12.500078046875L16.166551953125,9.166748046875Q16.166551953125,9.117502346875,16.176151953125,9.069202946875Q16.185751953125,9.020903046875,16.204651953125,8.975406046875Q16.223451953125,8.929909046875,16.250851953125,8.888963046875Q16.278251953125,8.848017046875,16.313051953124997,8.813195046875Q16.347851953125,8.778373046875,16.388751953125002,8.751013046875Q16.429751953125,8.723654046875,16.475251953125,8.704808046875Q16.520751953125,8.685963046874999,16.569051953124998,8.676355046875Q16.617351953125002,8.666748046875,16.666551953125,8.666748046875Q16.715851953125,8.666748046875,16.764151953125,8.676355046875Q16.812451953125,8.685963046874999,16.857951953125,8.704808046875Q16.903451953125,8.723654046875,16.944351953125,8.751013046875Q16.985351953125,8.778373046875,17.020151953125,8.813195046875Q17.054951953125,8.848017046875,17.082351953125,8.888963046875Q17.109651953125002,8.929909046875,17.128551953124997,8.975406046875Q17.147351953125,9.020903046875,17.156951953125002,9.069202946875Q17.166551953125,9.117502346875,17.166551953125,9.166748046875L17.166551953125,9.167724608875L17.166551953125,12.500078046875Q17.166551953125,14.939638046875,17.055351953124998,15.767058046875Q16.872651953125,17.125878046875002,16.165951953125003,17.832698046875002Q15.459051953125,18.539488046875,14.100251953125,18.722178046875Q13.272811953125,18.833418046875,10.833251953125,18.833418046875L9.166581953125,18.833418046875Q6.727001953125,18.833418046875,5.899591953125,18.722178046875Q4.540761953125,18.539488046875,3.833976953125,17.832718046875Q3.127183953125,17.125878046875002,2.944494953125,15.767058046875Q2.833251953125,14.939648046875,2.833251953125,12.500078046875L2.833251953125,9.166920666875L2.833251953125,9.166748046875Q2.833251953125,9.117502346875,2.842858953125,9.069202946875Q2.852466953125,9.020903046875,2.8713119531249998,8.975406046875Q2.890157953125,8.929909046875,2.917516953125,8.888963046875Q2.944876953125,8.848017046875,2.979698953125,8.813195046875Q3.014520953125,8.778373046875,3.055466953125,8.751013046875Q3.096412953125,8.723654046875,3.141909953125,8.704808046875Q3.187406953125,8.685963046874999,3.235706853125,8.676355046875Q3.284006253125,8.666748046875,3.333251953125,8.666748046875Q3.382497653125,8.666748046875,3.430797053125,8.676355046875Q3.479096953125,8.685963046874999,3.524593953125,8.704808046875Q3.570090953125,8.723654046875,3.611036953125,8.751013046875Q3.651982953125,8.778373046875,3.686804953125,8.813195046875Q3.721626953125,8.848017046875,3.748986953125,8.888963046875Q3.776345953125,8.929909046875,3.7951919531250002,8.975406046875Q3.814036953125,9.020903046875,3.823644953125,9.069202946875Q3.833251953125,9.117502346875,3.833251953125,9.166748046875L3.833251953125,9.166920688875Z" fill-rule="evenodd" fill="#FFFFFF" fill-opacity="1" style="mix-blend-mode:passthrough"/></g><g><path d="M2.024112,8.286161953125Q2.070251,8.693421953125,2.262004,8.959161953125001L2.262039,8.959211953125Q2.50628477,9.297611953125,2.915312,9.486491953125Q3.197415,9.616811953125,3.63471,9.648521953125Q3.88374,9.666581953125,4.58333,9.666581953125L15.4167,9.666581953125Q16.1162,9.666581953125,16.365299999999998,9.648521953125Q16.802599999999998,9.616811953125,17.084600000000002,9.486511953125Q17.4938,9.297531953125,17.7379,8.959201953125Q17.9297,8.693451953124999,17.9759,8.286171953125Q18,8.073321953125,18,7.499921953125Q18,6.926481953125,17.9759,6.713654953125Q17.9297,6.306346953125,17.738,6.040722953125Q17.4939,5.702338953125,17.084600000000002,5.513299953125Q16.802500000000002,5.383012953125,16.365299999999998,5.351307953125Q16.1162,5.333251953125,15.4167,5.333251953125L4.58333,5.333251953125Q3.88374,5.333251953125,3.63471,5.351307953125Q3.197437,5.383013953125,2.915347,5.513303953125Q2.50623463,5.702260953125,2.262023,6.040649953125Q2.070253,6.306375953125,2.024111,6.713665953125Q2,6.926491953125,2,7.499921953125Q2,8.073331953124999,2.024112,8.286161953125ZM3.334688,8.578681953124999Q3.163676,8.499711953125,3.07293,8.374011953125L3.072895,8.373961953125Q3,8.272751953124999,3,7.499921953125Q3,6.726880953125,3.0729100000000003,6.625852953125Q3.163639,6.500135953125,3.334653,6.421149953125Q3.52496,6.333251953125,4.58333,6.333251953125L15.4167,6.333251953125Q16.475,6.333251953125,16.665399999999998,6.4211529531250005Q16.836399999999998,6.500150953125,16.927,6.625780953125Q17,6.726905953125,17,7.499921953125Q17,8.272911953125,16.9271,8.373971953125Q16.836399999999998,8.499681953125,16.665399999999998,8.578661953125Q16.475,8.666581953125,15.4167,8.666581953125L4.58333,8.666581953125Q3.5249800000000002,8.666581953125,3.334688,8.578681953124999Z" fill-rule="evenodd" fill="#FFFFFF" fill-opacity="1" style="mix-blend-mode:passthrough"/></g><g><path d="M5.430981,5.402428046875Q6.36196,6.333418046875,7.678570000000001,6.333418046875L10,6.333418046875Q10.04925,6.333418046875,10.09755,6.323808046875Q10.14584,6.314198046875,10.19134,6.295358046875Q10.23684,6.276508046875,10.27778,6.249148046875Q10.31873,6.221788046875,10.35355,6.186968046875Q10.38837,6.152148046875,10.41573,6.111198046875Q10.44309,6.070258046875,10.46194,6.024758046875Q10.48078,5.979258046875,10.49039,5.930958046875Q10.5,5.882658046875,10.5,5.833418046875L10.5,4.8810280468750005Q10.5,3.342528046875,9.41211,2.254636046875Q8.32422,1.166748046875,6.7857199999999995,1.166748046875L6.48809,1.166748046875Q5.664597,1.166748046875,5.0822987,1.749046846875Q4.5,2.331346046875,4.5,3.1548380468749997Q4.5,4.471448046875,5.430981,5.402428046875ZM9.5,5.333418046875L7.678570000000001,5.333418046875Q6.77618,5.333418046875,6.13809,4.695328046875Q5.5,4.057238046875,5.5,3.1548380468749997Q5.5,2.745558046875,5.789406,2.456154046875Q6.07881,2.166748046875,6.48809,2.166748046875L6.7857199999999995,2.166748046875Q7.91001,2.166748046875,8.70501,2.961748046875Q9.5,3.756738046875,9.5,4.8810280468750005L9.5,5.333418046875Z" fill-rule="evenodd" fill="#FFFFFF" fill-opacity="1" style="mix-blend-mode:passthrough"/></g><g><path d="M10,6.333418046875L12.32142,6.333418046875Q13.638020000000001,6.333418046875,14.569009999999999,5.402428046875Q15.5,4.471448046875,15.5,3.1548380468749997Q15.5,2.331348046875,14.9177,1.749046846875Q14.3354,1.166748046875,13.51192,1.166748046875L13.21425,1.166748046875Q11.67576,1.166748046875,10.587883,2.254638046875Q9.5,3.342528046875,9.5,4.8810280468750005L9.5,5.833418046875Q9.5,5.882658046875,9.509607,5.930958046875Q9.519214999999999,5.979258046875,9.53806,6.024758046875Q9.556906,6.070258046875,9.584265,6.111198046875Q9.611625,6.152148046875,9.646447,6.186968046875Q9.681269,6.221788046875,9.722215,6.249148046875Q9.763161,6.276508046875,9.808658,6.295358046875Q9.854155,6.314198046875,9.9024549,6.323808046875Q9.9507543,6.333418046875,10,6.333418046875ZM13.86191,4.695328046875Q13.22381,5.333418046875,12.32142,5.333418046875L10.5,5.333418046875L10.5,4.8810280468750005Q10.5,3.756738046875,11.29499,2.9617380468750003Q12.08998,2.166748046875,13.21425,2.166748046875L13.51192,2.166748046875Q13.92119,2.166748046875,14.21059,2.456153046875Q14.5,2.745558046875,14.5,3.1548380468749997Q14.5,4.057228046875,13.86191,4.695328046875Z" fill-rule="evenodd" fill="#FFFFFF" fill-opacity="1" style="mix-blend-mode:passthrough"/></g><g><path d="M9.5,9.166748046875Q9.5,9.117502346875,9.509607,9.069202946875Q9.519214999999999,9.020903046875,9.53806,8.975406046875Q9.556906,8.929909046875,9.584265,8.888963046875Q9.611625,8.848017046875,9.646447,8.813195046875Q9.681269,8.778373046875,9.722215,8.751013046875Q9.763161,8.723654046875,9.808658,8.704808046875Q9.854155,8.685963046874999,9.9024549,8.676355046875Q9.9507543,8.666748046875,10,8.666748046875Q10.0492457,8.666748046875,10.0975451,8.676355046875Q10.145845,8.685963046874999,10.191342,8.704808046875Q10.236839,8.723654046875,10.277785,8.751013046875Q10.318731,8.778373046875,10.353553,8.813195046875Q10.388375,8.848017046875,10.415735,8.888963046875Q10.443094,8.929909046875,10.46194,8.975406046875Q10.480785000000001,9.020903046875,10.490393,9.069202946875Q10.5,9.117502346875,10.5,9.166748046875L10.5,18.333418046875Q10.5,18.382658046875,10.490393,18.430958046875Q10.480785000000001,18.479258046875,10.46194,18.524758046875Q10.443094,18.570248046875,10.415735,18.611198046875Q10.388375,18.652148046875,10.353553,18.686968046875002Q10.318731,18.721788046874998,10.277785,18.749148046875Q10.236839,18.776508046875,10.191342,18.795358046875002Q10.145845,18.814198046875,10.0975451,18.823808046875Q10.0492457,18.833418046875,10,18.833418046875Q9.9507543,18.833418046875,9.9024549,18.823808046875Q9.854155,18.814198046875,9.808658,18.795358046875002Q9.763161,18.776508046875,9.722215,18.749148046875Q9.681269,18.721788046874998,9.646447,18.686968046875002Q9.611625,18.652148046875,9.584265,18.611198046875Q9.556906,18.570248046875,9.53806,18.524758046875Q9.519214999999999,18.479258046875,9.509607,18.430958046875Q9.5,18.382658046875,9.5,18.333418046875L9.5,9.166748046875Z" fill-rule="evenodd" fill="#FFFFFF" fill-opacity="1" style="mix-blend-mode:passthrough"/></g></g></svg>