<svg xmlns="http://www.w3.org/2000/svg" xmlns:xlink="http://www.w3.org/1999/xlink" fill="none" version="1.1" width="20" height="20" viewBox="0 0 20 20"><defs><clipPath id="master_svg0_26_9672"><rect x="0" y="0" width="20" height="20" rx="0"/></clipPath></defs><g clip-path="url(#master_svg0_26_9672)"><g><path d="M9.25117484375,3.001952125Q9.30036484375,3.001864125,9.34858484375,2.992192125Q9.39681484375,2.982519125,9.44223484375,2.963634125Q9.48765484375,2.944749125,9.528524843749999,2.917375125Q9.56939484375,2.890002125,9.60414484375,2.855188125Q9.63889484375,2.820375125,9.666194843749999,2.779458125Q9.693494843749999,2.738540125,9.71229484375,2.693087125Q9.73110484375,2.647634125,9.74068484375,2.599388125Q9.750274843749999,2.551142125,9.750274843749999,2.501953125Q9.750274843749999,2.452707425,9.74066484375,2.404408025Q9.73105484375,2.356108125,9.71221484375,2.310611125Q9.69336484375,2.265114125,9.666004843749999,2.224168125Q9.63864484375,2.183222125,9.603824843750001,2.148400125Q9.569004843750001,2.113578125,9.528054843749999,2.086218125Q9.48711484375,2.058859125,9.44161484375,2.0400131249999998Q9.39611484375,2.021168125,9.347814843750001,2.011560125Q9.29951484375,2.001953125,9.250274843749999,2.001953125L9.249374843750001,2.001954125Q6.64310484375,2.006639125,5.58637484375,2.177682125Q4.06887484375,2.423304425,3.2460748437499998,3.246086125Q2.37161384375,4.120523125,2.1431938437499998,5.819433125Q2.00146484375,6.873563125,2.00146484375,9.999973125Q2.00146484375,13.126453125,2.1431938437499998,14.180553125Q2.37161384375,15.879453125,3.24606784375,16.753853125Q4.12052484375,17.628353125,5.819484843750001,17.856753124999997Q6.87365484375,17.998453124999997,10.000184843749999,17.998453124999997Q13.12666484375,17.998453124999997,14.18076484375,17.856753124999997Q15.87976484375,17.628353125,16.75426484375,16.753853125Q17.57706484375,15.931153125,17.822664843749997,14.413653125Q17.99366484375,13.357153125,17.99846484375,10.751353125L17.99846484375,10.750963125L17.99846484375,10.750793125L17.99846484375,10.749883125Q17.99846484375,10.700643125,17.98886484375,10.652343125Q17.979264843750002,10.604043125,17.96036484375,10.558543125Q17.94156484375,10.513043125,17.91416484375,10.472103125Q17.88676484375,10.431153125,17.85196484375,10.396333125Q17.81716484375,10.361513125,17.77626484375,10.334153125Q17.735264843750002,10.306793125,17.689764843749998,10.287943125Q17.64426484375,10.269103125,17.59596484375,10.259493124999999Q17.54766484375,10.249883125,17.49846484375,10.249883125Q17.44926484375,10.249883125,17.40096484375,10.259473125Q17.352764843750002,10.269053125,17.307264843749998,10.287863125000001Q17.26186484375,10.306663125,17.22096484375,10.333963125Q17.18006484375,10.361263125,17.145164843750003,10.396013125Q17.11036484375,10.430763125,17.08306484375,10.471633125Q17.05566484375,10.512503125,17.03676484375,10.557923125Q17.01786484375,10.603333125,17.008164843750002,10.651563125Q16.99856484375,10.699793125,16.99846484375,10.748983125Q16.99386484375,13.275653125,16.83556484375,14.253853125Q16.64146484375,15.452453125,16.04716484375,16.046753125000002Q15.41166484375,16.682253125000003,14.04756484375,16.865653125Q13.05976484375,16.998453124999997,10.000184843749999,16.998453124999997Q6.94056484375,16.998453124999997,5.95273484375,16.865653125Q4.58868484375,16.682253125000003,3.9531748437500003,16.046753125000002Q3.3176648437500003,15.411253125,3.1342758437500002,14.047253125Q3.00146484375,13.059453125,3.00146484375,9.999973125Q3.00146484375,6.940493125,3.1342758437500002,5.952683125Q3.31766584375,4.588693125,3.9531748437500003,3.953203125Q4.54754484375,3.358841125,5.74615484375,3.1648351249999997Q6.72423484375,3.006523125,9.250274843749999,3.001954125L9.25117484375,3.001952125L9.25117484375,3.001952125Z" fill-rule="evenodd" fill="#7E7B7B" fill-opacity="1" style="mix-blend-mode:passthrough"/></g><g><path d="M13.2889588125,2.06586315625L13.2887768125,2.06586515625Q13.2399848125,2.06655815625,13.1922468125,2.07667215625Q13.1445098125,2.08678615625,13.0996288125,2.10593915625Q13.0547478125,2.12509215625,13.0144168125,2.15256115625Q12.9740858125,2.18003115625,12.9398268125,2.21478015625Q12.9055678125,2.24953015625,12.8786738125,2.29024715625Q12.8517798125,2.33096515625,12.8332668125,2.37611415625Q12.8147528125,2.42126315625,12.8053178125,2.46914035625Q12.7958828125,2.51701725625,12.7958828125,2.56581504625Q12.7958828125,2.61506075625,12.8054908125,2.66336015625Q12.8150978125,2.71165915625,12.8339438125,2.75715715625Q12.8527888125,2.80265415625,12.8801488125,2.84360015625Q12.9075078125,2.88454615625,12.9423298125,2.91936815625Q12.9771518125,2.95419015625,13.0180978125,2.98155015625Q13.0590438125,3.00890915625,13.1045418125,3.02775515625Q13.1500388125,3.0466001562500002,13.1983378125,3.05620715625Q13.2466378125,3.0658151562500002,13.2958828125,3.0658151562500002L13.3029898125,3.06576415625Q14.4159928125,3.04994415625,15.2218628125,3.09020415625Q15.7818528125,3.1181801562500002,16.1333428125,3.15590215625L12.0893178125,7.18877515625Q12.0187678125,7.25912515625,11.9805758125,7.35115515625Q11.9423828125,7.44317515625,11.9423828125,7.54281515625Q11.9423828125,7.59206515625,11.9519898125,7.64036515625Q11.961597812499999,7.68865515625,11.9804428125,7.73415515625Q11.9992888125,7.77965515625,12.0266478125,7.82059515625Q12.0540078125,7.86154515625,12.0888298125,7.89636515625Q12.1236518125,7.93118515625,12.1645978125,7.95854515625Q12.2055438125,7.98590515625,12.2510408125,8.004755156249999Q12.2965378125,8.02359515625,12.3448377125,8.03320515625Q12.3931371125,8.04281515625,12.4423828125,8.04281515625Q12.5416596125,8.04281515625,12.6334058125,8.004885156250001Q12.7251518125,7.96695515625,12.7954478125,7.89685515625L12.7957988125,7.89650515625L16.8413428125,3.8621251562500003Q16.879262812500002,4.2147651562499995,16.907342812499998,4.77802515625Q16.947582812500002,5.58515515625,16.9317628125,6.69908515625L16.9317128125,6.70618515625Q16.9317128125,6.75542515625,16.9413228125,6.80372515625Q16.9509328125,6.85202515625,16.9697728125,6.89752515625Q16.9886228125,6.94301515625,17.0159828125,6.98396515625Q17.0433428125,7.02491515625,17.0781628125,7.05973515625Q17.1129828125,7.09455515625,17.1539328125,7.12191515625Q17.1948728125,7.14927515625,17.2403728125,7.16812515625Q17.2858728125,7.18696515625,17.3341728125,7.19657515625Q17.382472812499998,7.20618515625,17.4317128125,7.20618515625Q17.4805128125,7.20617515625,17.5283928125,7.19674515625Q17.5762728125,7.18731515625,17.6214128125,7.16879515625Q17.6665628125,7.15028515625,17.7072828125,7.12338515625Q17.7480028125,7.09649515625,17.7827528125,7.06223515625Q17.8175028125,7.02797515625,17.8449728125,6.98764515625Q17.8724428125,6.94731515625,17.8915928125,6.90243515625Q17.9107428125,6.85754515625,17.9208628125,6.80981515625Q17.930972812500002,6.76207515625,17.9316628125,6.71328515625L17.9316628125,6.71310515625L17.9316828125,6.71171515625Q17.9822728125,3.14022115625,17.420572812499998,2.57782245625L17.4205328125,2.57778525625Q16.8584628125,2.01513815625,13.2889588125,2.06586315625Z" fill-rule="evenodd" fill="#7E7B7B" fill-opacity="1" style="mix-blend-mode:passthrough"/></g></g></svg>