<svg xmlns="http://www.w3.org/2000/svg" xmlns:xlink="http://www.w3.org/1999/xlink" fill="none" version="1.1" width="24" height="24" viewBox="0 0 24 24"><defs><clipPath id="master_svg0_26_4337"><rect x="0" y="0" width="24" height="24" rx="0"/></clipPath></defs><g style="opacity:0.4000000059604645;" clip-path="url(#master_svg0_26_4337)"><g><path d="M5.602672046325684,12.554367138977051Q5.930135546325683,13.413497138977052,6.7717300463256835,13.413497138977052L9.689309046325683,13.413497138977052Q9.959499046325684,13.413497138977052,9.959499046325684,13.82709713897705L9.959499046325684,20.08459713897705Q9.959499046325684,21.04029713897705,10.753599046325682,21.395697138977052Q11.618469046325684,21.78269713897705,12.209539046325684,20.98599713897705L18.208099046325685,12.90141713897705Q18.699599046325684,12.23883713897705,18.397299046325685,11.44563713897705Q18.069799046325684,10.586497138977052,17.228299046325684,10.586497138977052L14.310699046325684,10.586497138977052Q14.040499046325683,10.586497138977052,14.040499046325683,10.172897138977051L14.040499046325683,3.915360138977051Q14.040499046325683,2.9596523389770506,13.246409046325684,2.6042751389770507Q12.381539046325685,2.2172241389770506,11.790459046325683,3.013929938977051L5.791972046325683,11.098557138977052Q5.300332046325684,11.761157138977051,5.602672046325684,12.554367138977051ZM9.689309046325683,12.413497138977052L6.7717300463256835,12.413497138977052Q6.619156046325683,12.413497138977052,6.537096046325684,12.19820713897705Q6.429911046325683,11.91699713897705,6.595048046325684,11.694437138977051L12.593549046325684,3.6097901389770506Q12.706119046325684,3.4580551389770506,12.837919046325684,3.517040138977051Q13.040499046325683,3.6076991389770505,13.040499046325683,3.915360138977051L13.040499046325683,10.172897138977051Q13.040499046325683,10.733987138977051,13.383799046325684,11.14119713897705Q13.759199046325683,11.58649713897705,14.310699046325684,11.58649713897705L17.228299046325684,11.58649713897705Q17.380799046325684,11.58649713897705,17.46289904632568,11.80179713897705Q17.570099046325684,12.08301713897705,17.40489904632568,12.305587138977051L11.406459046325683,20.39019713897705Q11.293869046325684,20.54189713897705,11.162069046325684,20.48289713897705Q10.959499046325684,20.39229713897705,10.959499046325684,20.08459713897705L10.959499046325684,13.82709713897705Q10.959499046325684,13.26599713897705,10.616209046325682,12.858797138977051Q10.240809046325683,12.413497138977052,9.689309046325683,12.413497138977052Z" fill-rule="evenodd" fill="#FFFFFF" fill-opacity="1" style="mix-blend-mode:passthrough"/></g></g></svg>