<svg xmlns="http://www.w3.org/2000/svg" xmlns:xlink="http://www.w3.org/1999/xlink" fill="none" version="1.1" width="20" height="20" viewBox="0 0 20 20"><defs><clipPath id="master_svg0_58_1099"><rect x="0" y="0" width="20" height="20" rx="0"/></clipPath></defs><g clip-path="url(#master_svg0_58_1099)"><g><path d="M19.9222,10Q19.9222,10.2455,19.9102,10.4907Q19.8982,10.7359,19.8742,10.9802Q19.8502,11.2245,19.8144,11.4673Q19.7785,11.7101,19.7308,11.9509Q19.6831,12.1917,19.6237,12.4298Q19.5642,12.6679,19.4933,12.9028Q19.4223,13.1378,19.3399,13.3689Q19.2575,13.6,19.1639,13.8268Q19.0704,14.0536,18.9658,14.2755Q18.8613,14.4975,18.746,14.714Q18.6307,14.9305,18.505,15.141Q18.3793,15.3516,18.2434,15.5557Q18.1076,15.7598,17.9619,15.957Q17.8162,16.1542,17.6611,16.3439Q17.506,16.5337,17.3418,16.7156Q17.1776,16.8975,17.0046,17.0711Q16.8317,17.2446,16.6505,17.4095Q16.4694,17.5744,16.2803,17.7301Q16.0913,17.8858,15.8949,18.0321Q15.6985,18.1783,15.4952,18.3147Q15.2919,18.4511,15.0821,18.5773Q14.8724,18.7035,14.6567,18.8192Q14.4411,18.9349,14.22,19.0399Q13.9989,19.1448,13.773,19.2388Q13.5471,19.3327,13.3169,19.4154Q13.0866,19.4981,12.8526,19.5694Q12.6186,19.6407,12.3814,19.7003Q12.1442,19.76,11.9044,19.8078Q11.6646,19.8557,11.4227,19.8918Q11.1808,19.9278,10.9374,19.9518Q10.6941,19.9759,10.4499,19.988Q10.2056,20,9.96109,20Q9.71656,20,9.47232,19.988Q9.22808,19.9759,8.98473,19.9518Q8.74138,19.9278,8.49949,19.8918Q8.25761,19.8557,8.01778,19.8078Q7.77794,19.76,7.54074,19.7003Q7.30354,19.6407,7.06954,19.5694Q6.83554,19.4981,6.6053,19.4154Q6.37506,19.3327,6.14914,19.2388Q5.92323,19.1448,5.70217,19.0399Q5.48112,18.9349,5.26546,18.8192Q5.04981,18.7035,4.84007,18.5773Q4.63032,18.4511,4.427,18.3147Q4.22368,18.1783,4.02728,18.0321Q3.83087,17.8858,3.64184,17.7301Q3.45282,17.5744,3.27163,17.4095Q3.09044,17.2446,2.91754,17.0711Q2.74463,16.8975,2.58041,16.7156Q2.41619,16.5337,2.26106,16.3439Q2.10593,16.1542,1.96027,15.957Q1.8146,15.7598,1.67875,15.5557Q1.54289,15.3516,1.41718,15.141Q1.29146,14.9305,1.17619,14.714Q1.06092,14.4975,0.956371,14.2755Q0.851821,14.0536,0.758243,13.8268Q0.664665,13.6,0.582285,13.3689Q0.499905,13.1378,0.428921,12.9028Q0.357937,12.6679,0.298521,12.4298Q0.239105,12.1917,0.191399,11.9509Q0.143694,11.7101,0.107814,11.4673Q0.0719336,11.2245,0.0479654,10.9802Q0.0239971,10.7359,0.0119986,10.4907Q0,10.2455,0,10Q0,9.75451,0.0119986,9.50932Q0.0239971,9.26413,0.0479654,9.01983Q0.0719336,8.77552,0.107814,8.53269Q0.143694,8.28987,0.191399,8.0491Q0.239105,7.80833,0.298521,7.5702Q0.357937,7.33207,0.428921,7.09715Q0.499905,6.86224,0.582285,6.6311Q0.664665,6.39996,0.758243,6.17316Q0.851821,5.94636,0.956371,5.72445Q1.06092,5.50253,1.17619,5.28603Q1.29146,5.06953,1.41718,4.85897Q1.54289,4.64841,1.67875,4.4443Q1.8146,4.24018,1.96027,4.04301Q2.10593,3.84583,2.26106,3.65607Q2.41619,3.4663,2.58041,3.28441Q2.74463,3.10252,2.91754,2.92893Q3.09044,2.75535,3.27163,2.59049Q3.45282,2.42563,3.64184,2.2699Q3.83087,2.11416,4.02728,1.96792Q4.22368,1.82169,4.427,1.6853Q4.63032,1.54892,4.84007,1.42271Q5.04981,1.29651,5.26546,1.18079Q5.48112,1.06507,5.70217,0.960107Q5.92323,0.855148,6.14915,0.761205Q6.37506,0.667261,6.6053,0.584559Q6.83554,0.501857,7.06954,0.430597Q7.30354,0.359336,7.54074,0.299687Q7.77794,0.240039,8.01778,0.192147Q8.25761,0.144255,8.49949,0.108235Q8.74138,0.0722146,8.98473,0.0481527Q9.22808,0.0240909,9.47232,0.0120454Q9.71656,0,9.96109,0Q10.2056,0,10.4499,0.0120454Q10.6941,0.0240909,10.9374,0.0481527Q11.1808,0.0722146,11.4227,0.108235Q11.6646,0.144255,11.9044,0.192147Q12.1442,0.240039,12.3814,0.299687Q12.6186,0.359336,12.8526,0.430597Q13.0866,0.501857,13.3169,0.584559Q13.5471,0.667261,13.773,0.761205Q13.9989,0.855148,14.22,0.960107Q14.4411,1.06507,14.6567,1.18079Q14.8724,1.29651,15.0821,1.42271Q15.2919,1.54892,15.4952,1.6853Q15.6985,1.82169,15.8949,1.96792Q16.0913,2.11416,16.2803,2.2699Q16.4694,2.42563,16.6505,2.59049Q16.8317,2.75535,17.0046,2.92893Q17.1776,3.10252,17.3418,3.28441Q17.506,3.4663,17.6611,3.65607Q17.8162,3.84583,17.9619,4.04301Q18.1076,4.24018,18.2434,4.4443Q18.3793,4.64841,18.505,4.85897Q18.6307,5.06953,18.746,5.28603Q18.8613,5.50253,18.9658,5.72445Q19.0704,5.94636,19.1639,6.17316Q19.2575,6.39996,19.3399,6.6311Q19.4223,6.86224,19.4933,7.09715Q19.5642,7.33207,19.6237,7.5702Q19.6831,7.80833,19.7308,8.0491Q19.7785,8.28987,19.8144,8.53269Q19.8502,8.77552,19.8742,9.01983Q19.8982,9.26413,19.9102,9.50932Q19.9222,9.75451,19.9222,10Z" fill="#FFFFFF" fill-opacity="1" style="mix-blend-mode:passthrough"/></g><g><path d="M10.843505859375,8.016824765625L11.771381859375,5.809574765625L15.861095859375,4.275634765625L10.843505859375,8.016824765625Z" fill="#E2761B" fill-opacity="1" style="mix-blend-mode:passthrough"/></g><g><path d="M9.254786875,8.052254765625L8.372296875,5.809574765625L4.277540875,4.275634765625L9.254786875,8.052254765625ZM14.055546875,12.947694765625L12.719186875,15.003034765625L15.578446875,15.792834765625L16.400446875,12.993254765625L14.055546875,12.947694765625ZM3.748046875,12.993254765625L4.564980875,15.792834765625L7.424246875,15.003034765625L6.087906875,12.947694765625L3.748046875,12.993254765625Z" fill="#E4761B" fill-opacity="1" style="mix-blend-mode:passthrough"/></g><g><path d="M7.26307159375,9.474884765625L6.46630859375,10.684824765625L9.30540859375,10.811384765625L9.20454859375,7.748572065625L7.26307159375,9.474884765625ZM12.87570859375,9.474884765625L10.90901859375,7.713134765625L10.84345859375,10.811384765625L13.677518593750001,10.684824765625L12.87570859375,9.474884765625ZM9.12890859375,14.167824765625L7.65640859375,13.013574765625L7.42444159375,15.003134765625L9.12890859375,14.167824765625ZM12.719378593750001,15.003134765625L12.48236859375,13.013574765625L11.009878593749999,14.167824765625L12.719378593750001,15.003134765625Z" fill="#E4761B" fill-opacity="1" style="mix-blend-mode:passthrough"/></g><g><path d="M12.71925640625,15.003037609375L11.00974640625,14.167724609375L11.145906406249999,15.286534609375L11.13077640625,15.757344609375L12.71925640625,15.003037609375ZM7.42431640625,15.003037609375L9.01279640625,15.757344609375L9.00271640625,15.286534609375L9.12878640625,14.167724609375L7.42431640625,15.003037609375Z" fill="#D7C1B3" fill-opacity="1" style="mix-blend-mode:passthrough"/></g><g><path d="M7.6162109375,11.8542426875L8.6197309375,11.3935546875L9.0382809375,12.2744286875L7.6162109375,11.8542426875ZM11.5193409375,11.3935546875L12.5279009375,11.8542426875L11.1007909375,12.2744306875L11.5193409375,11.3935546875Z" fill="#233447" fill-opacity="1" style="mix-blend-mode:passthrough"/></g><g><path d="M7.666534765625,12.947754453125L6.088134765625,12.993314453125L7.424474765625,15.003124453125L7.666534765625,12.947754453125ZM12.719414765625,15.003124453125L14.055764765625,12.993314453125L12.477364765625001,12.947754453125L12.719414765625,15.003124453125ZM11.524274765625,11.393563453125L12.532834765625001,11.854254453125L13.677554765625,10.684814453125L10.843494765625,10.811376453125L11.105724765625,12.274444453125L11.524274765625,11.393563453125ZM9.305444765625,10.811376453125L6.466345765625,10.684814453125L7.616104765625,11.854254453125L8.624664765624999,11.393563453125L9.038174765625,12.274434453125L9.305444765625,10.811376453125Z" fill="#CD6116" fill-opacity="1" style="mix-blend-mode:passthrough"/></g><g><path d="M7.65640859375,13.013564453125L7.61606859375,11.854254453125L6.46630859375,10.684814453125L7.65640859375,13.013564453125ZM12.48236859375,13.013564453125L13.677518593750001,10.684814453125L12.53279859375,11.854254453125L12.48236859375,13.013564453125ZM9.30540859375,10.811377453125L9.03813859375,12.274444453125L9.37095859375,14.000754453125L9.44660859375,11.727694453125L9.30540859375,10.811377453125ZM10.84345859375,10.811377453125L10.70730859375,11.722624453125L10.76781859375,14.000754453125L11.10568859375,12.274444453125L10.84345859375,10.811377453125Z" fill="#E4751F" fill-opacity="1" style="mix-blend-mode:passthrough"/></g><g><path d="M12.482510937499999,13.013558046875L12.532940937500001,11.854248046875L11.1058309375,12.274436046875L10.7679609375,14.000748046875L11.0100209375,14.167808046874999L12.482510937499999,13.013558046875ZM9.3711009375,14.000748046875L9.0382809375,12.274436046875L7.6162109375,11.854248046875L7.6565535375,13.013558046875L9.1290509375,14.167808046874999L9.3711009375,14.000748046875Z" fill="#F6851B" fill-opacity="1" style="mix-blend-mode:passthrough"/></g><g><path d="M9.00271640625,15.2864296875L9.01279640625,15.7572416875L7.42431640625,15.0029296875L7.97902440625,15.4585546875L9.10356640625,16.2432396875L11.03496640625,16.2432396875L12.16454640625,15.4585546875L12.71925640625,15.0029296875L11.13077640625,15.7572416875L11.145906406249999,15.2864296875L11.01983640625,15.1750546875L9.11869640625,15.1750546875L9.00271640625,15.2864296875Z" fill="#C0AD9E" fill-opacity="1" style="mix-blend-mode:passthrough"/></g><g><path d="M9.002685546875,15.286602421875L9.118670546875,15.175232421875L11.019805546875,15.175232421875L11.145875546875,15.286602421875L11.009715546875,14.167794421875L10.767665546875,14.000732421875L9.370809546875,14.000732421875L9.128755546875,14.167794421875L9.002685546875,15.286602421875Z" fill="#161616" fill-opacity="1" style="mix-blend-mode:passthrough"/></g><g><path d="M16.098278125,9.565944765625L15.846178125,9.383694765625L16.249578125,9.014134765625L15.936978125,8.771134765625L16.340378125,8.462324765624999L16.073078125000002,8.259824765625L16.501678124999998,6.194324765625L15.861278125,4.275635361671L11.010108125,7.890264765625L12.875948125,9.474824765625L15.513378125,10.249384765624999L16.098278125,9.565944765625ZM4.046002125,9.565944765625L4.625924125,10.249384765624999L7.263308125,9.474824765625L9.129148125,7.890254765625L4.277971125,4.275634765625L3.642578125,6.194324765625L4.071216125,8.259824765625L3.798905125,8.462324765624999L4.202329125,8.771134765625L3.894718125,9.014134765625L4.298142125,9.383694765625L4.046002125,9.565944765625Z" fill="#763D16" fill-opacity="1" style="mix-blend-mode:passthrough"/></g><g><path d="M14.055546875,12.9932603125L16.400446875,12.9932603125L15.512946875,10.2493803125L12.875516875,9.4748203125L13.677326875,10.6847603125L12.482176875,13.0135103125L14.055546875,12.9932603125ZM7.656216875,13.0135103125L6.466116875,10.6847603125L7.262876875,9.4748203125L4.625493875,10.2493803125L3.748046875,12.9932603125L6.087906875,12.9932603125L7.656216875,13.0135103125ZM10.767626875000001,14.0006903125L10.777706875,11.7326903125L10.843266875000001,10.811320312500001L11.009676875,7.890260312500001L11.776186875,5.8095703125L8.372296875,5.8095703125L9.128716875,7.890260312500001L9.305216875,10.811320312500001L9.365726875,11.7326903125L9.370766875000001,14.0006903125L10.767626875000001,14.0006903125Z" fill="#F6851B" fill-opacity="1" style="mix-blend-mode:passthrough"/></g></g></svg>