<svg xmlns="http://www.w3.org/2000/svg" xmlns:xlink="http://www.w3.org/1999/xlink" fill="none" version="1.1" width="26.399999618530273" height="26.399999618530273" viewBox="0 0 26.399999618530273 26.399999618530273"><defs><clipPath id="master_svg0_34_7027"><rect x="0" y="0" width="26.399999618530273" height="26.399999618530273" rx="0"/></clipPath></defs><g style="opacity:0.4000000059604645;" clip-path="url(#master_svg0_34_7027)"><g><path d="M3.85,5.150146484375L13.2001,5.150146484375Q13.274,5.150146484375,13.3464,5.135735484375Q13.4189,5.121324484375,13.4871,5.093056484375Q13.5554,5.064787484375,13.6168,5.023748484375Q13.6782,4.982709484375,13.7304,4.930476484375Q13.7827,4.878243484375,13.8237,4.816824484375Q13.8647,4.755404484375,13.893,4.687159484375Q13.9213,4.618913484375,13.9357,4.546464484375Q13.9501,4.474014984375,13.9501,4.400146484375Q13.9501,4.326277984375,13.9357,4.253828484375Q13.9213,4.181379484375,13.893,4.113133484375Q13.8647,4.044888484375,13.8237,3.983468484375Q13.7827,3.922049484375,13.7304,3.869816484375Q13.6782,3.817583484375,13.6168,3.776544484375Q13.5554,3.735505484375,13.4871,3.707236484375Q13.4189,3.678968484375,13.3464,3.664557484375Q13.274,3.650146484375,13.2001,3.650146484375L3.85,3.650146484375Q2,3.650146484375,2,5.500146484375L2,20.900146484375Q2,21.666446484375,2.541855,22.208346484375Q3.083704,22.750146484375,3.85,22.750146484375L22.55,22.750146484375Q23.3163,22.750146484375,23.8582,22.208346484375Q24.4,21.666446484375,24.4,20.900146484375L24.4,13.200136484375Q24.4,13.126266484375,24.3856,13.053816484375Q24.3712,12.981366484375,24.3429,12.913116484375Q24.3146,12.844876484375,24.2736,12.783456484375Q24.2326,12.722036484375,24.1803,12.669806484375Q24.1281,12.617566484375,24.0667,12.576526484375Q24.0053,12.535486484375,23.937,12.507216484375Q23.8688,12.478956484375,23.7963,12.464546484375Q23.7239,12.450136484375,23.65,12.450136484375Q23.5761,12.450136484375,23.5037,12.464546484375Q23.4312,12.478956484375,23.363,12.507216484375Q23.2947,12.535486484375,23.2333,12.576526484375Q23.1719,12.617566484375,23.1197,12.669806484375Q23.0674,12.722036484375,23.0264,12.783456484375Q22.9854,12.844876484375,22.9571,12.913116484375Q22.9288,12.981366484375,22.9144,13.053816484375Q22.9,13.126266484375,22.9,13.200136484375L22.9,20.900146484375Q22.9,21.045146484375,22.7975,21.147646484375Q22.695,21.250146484375,22.55,21.250146484375L3.85,21.250146484375Q3.5,21.250146484375,3.5,20.900146484375L3.5,5.500146484375Q3.5,5.150146484375,3.85,5.150146484375Z" fill-rule="evenodd" fill="#FFFFFF" fill-opacity="1" style="mix-blend-mode:passthrough"/></g><g><path d="M6.86121434375,7.961312Q6.39990234375,8.422625,6.39990234375,9.075Q6.39990234375,9.72737,6.86121534375,10.18869Q7.32252734375,10.65,7.97490234375,10.65Q8.62728234375,10.65,9.08859234375,10.18869Q9.54990234375,9.72738,9.54990234375,9.075Q9.54990234375,8.422625,9.08859234375,7.961313Q8.62728234375,7.5,7.97490234375,7.5Q7.32252734375,7.5,6.86121434375,7.961312ZM7.97490234375,9.15Q7.89990234375,9.15,7.89990234375,9.075Q7.89990234375,9,7.97490234375,9Q8.04990234375,9,8.04990234375,9.075Q8.04990234375,9.15,7.97490234375,9.15Z" fill-rule="evenodd" fill="#FFFFFF" fill-opacity="1" style="mix-blend-mode:passthrough"/></g><g><path d="M7.71967,12.669718828125L2.21967,18.169718828125Q2.114181,18.275208828125,2.05709,18.413038828125Q2,18.550858828125,2,18.700048828125L2,20.900048828125Q2,21.666348828125003,2.541854,22.208248828125Q3.083704,22.750048828125,3.85,22.750048828125L22.55,22.750048828125Q23.3163,22.750048828125,23.8582,22.208248828125Q24.4,21.666348828125003,24.4,20.900048828125L24.4,18.700048828125Q24.4,18.613608828125,24.3803,18.529438828125002Q24.3607,18.445268828125002,24.3224,18.367778828125Q24.2841,18.290288828125,24.2292,18.223538828125Q24.1743,18.156788828125002,24.1056,18.104278828125L14.7556,10.954280828125Q14.699,10.911011828125,14.6353,10.879168828125Q14.5716,10.847324828125,14.503,10.828045828125Q14.4344,10.808765828125,14.3635,10.802738828125Q14.2925,10.796711828125,14.2216,10.804152828125Q14.1508,10.811593828125,14.0826,10.832237828125Q14.0145,10.852881828125,13.9514,10.885989828125Q13.8883,10.919097828125,13.8326,10.963485828125Q13.7769,11.007873828125,13.7306,11.061954828125L10.90238,14.361488828125001L8.71852,12.614398828125Q8.66493,12.571518828125,8.60444,12.539085828125Q8.543949999999999,12.506649828125,8.478580000000001,12.485730828125Q8.41321,12.464812828125,8.345130000000001,12.456106828125Q8.27705,12.447400828125,8.20852,12.451195828125Q8.14,12.454991828125,8.07329,12.471162828125Q8.00659,12.487333828125,7.94393,12.515342828125Q7.88127,12.543351828125001,7.82474,12.582268828125Q7.7682,12.621188828125,7.71967,12.669718828125ZM3.5,19.010708828125L3.5,20.900048828125Q3.5,21.250048828125,3.85,21.250048828125L22.55,21.250048828125Q22.9,21.250048828125,22.9,20.900048828125L22.9,19.070678828125L14.4078,12.576678828125L11.56944,15.888138828125001Q11.52241,15.943008828125,11.46577,15.987888828125Q11.40913,16.032768828125,11.34496,16.066008828125Q11.2808,16.099238828125,11.21146,16.119618828125Q11.14213,16.139998828125,11.07018,16.146758828125Q10.99823,16.153518828125,10.92632,16.146418828125Q10.8544,16.139318828125,10.78517,16.118618828125Q10.71593,16.097918828125,10.65192,16.064378828125Q10.58791,16.030838828125,10.53148,15.985698828124999L8.30566,14.205048828125L3.5,19.010708828125Z" fill-rule="evenodd" fill="#FFFFFF" fill-opacity="1" style="mix-blend-mode:passthrough"/></g><g><g><path d="M17.16015625,6.83984375L23.76015625,6.83984375Q23.83402625,6.83984375,23.90647625,6.85425475Q23.97892625,6.86866575,24.04716625,6.89693375Q24.11541625,6.92520275,24.17683625,6.96624175Q24.23825625,7.00728075,24.29048625,7.05951375Q24.34271625,7.11174675,24.38375625,7.17316575Q24.42479625,7.23458575,24.45306625,7.30283075Q24.48133625,7.37107675,24.49574625,7.44352575Q24.51015625,7.51597525,24.51015625,7.58984375Q24.51015625,7.66371225,24.49574625,7.73616175Q24.48133625,7.80861075,24.45306625,7.87685675Q24.42479625,7.94510175,24.38375625,8.00652175Q24.34271625,8.06794075,24.29048625,8.12017375Q24.23825625,8.17240675,24.17683625,8.21344575Q24.11541625,8.25448475,24.04716625,8.28275375Q23.97892625,8.31102175,23.90647625,8.325432750000001Q23.83402625,8.33984375,23.76015625,8.33984375L17.16015625,8.33984375Q17.08628775,8.33984375,17.01383825,8.325432750000001Q16.94138925,8.31102175,16.87314325,8.28275375Q16.80489825,8.25448475,16.74347825,8.21344575Q16.682059250000002,8.17240675,16.62982625,8.12017375Q16.57759325,8.06794075,16.536554250000002,8.00652175Q16.49551525,7.94510175,16.46724625,7.87685675Q16.43897825,7.80861075,16.42456725,7.73616175Q16.41015625,7.66371225,16.41015625,7.58984375Q16.41015625,7.51597525,16.42456725,7.44352575Q16.43897825,7.37107675,16.46724625,7.30283075Q16.49551525,7.23458575,16.536554250000002,7.17316575Q16.57759325,7.11174675,16.62982625,7.05951375Q16.682059250000002,7.00728075,16.74347825,6.96624175Q16.80489825,6.92520275,16.87314325,6.89693375Q16.94138925,6.86866575,17.01383825,6.85425475Q17.08628775,6.83984375,17.16015625,6.83984375Z" fill-rule="evenodd" fill="#FFFFFF" fill-opacity="1" style="mix-blend-mode:passthrough"/></g><g><path d="M19.710205078125,4.289794921875Q19.710205078125,4.215926421875,19.724616078125,4.143476921875Q19.739027078125,4.071027921875,19.767295078125,4.002781921875Q19.795564078125,3.934536921875,19.836603078125002,3.873116921875Q19.877642078125,3.811697921875,19.929875078125,3.759464921875Q19.982108078125002,3.707231921875,20.043527078125,3.666192921875Q20.104947078125,3.625153921875,20.173192078125,3.596884921875Q20.241438078125,3.568616921875,20.313887078125,3.554205921875Q20.386336578125,3.539794921875,20.460205078125,3.539794921875Q20.534073578125,3.539794921875,20.606523078125,3.554205921875Q20.678972078125,3.568616921875,20.747218078125,3.596884921875Q20.815463078125,3.625153921875,20.876883078125,3.666192921875Q20.938302078124998,3.707231921875,20.990535078125,3.759464921875Q21.042768078125,3.811697921875,21.083807078124998,3.873116921875Q21.124846078125,3.934536921875,21.153115078125,4.002781921875Q21.181383078125,4.071027921875,21.195794078125,4.143476921875Q21.210205078125,4.215926421875,21.210205078125,4.289794921875L21.210205078125,10.889794921875Q21.210205078125,10.963664921875,21.195794078125,11.036114921875Q21.181383078125,11.108564921875,21.153115078125,11.176804921875Q21.124846078125,11.245054921874999,21.083807078124998,11.306474921875001Q21.042768078125,11.367894921875,20.990535078125,11.420124921875Q20.938302078124998,11.472354921874999,20.876883078125,11.513394921875001Q20.815463078125,11.554434921875,20.747218078125,11.582704921875Q20.678972078125,11.610974921875,20.606523078125,11.625384921875Q20.534073578125,11.639794921875,20.460205078125,11.639794921875Q20.386336578125,11.639794921875,20.313887078125,11.625384921875Q20.241438078125,11.610974921875,20.173192078125,11.582704921875Q20.104947078125,11.554434921875,20.043527078125,11.513394921875001Q19.982108078125002,11.472354921874999,19.929875078125,11.420124921875Q19.877642078125,11.367894921875,19.836603078125002,11.306474921875001Q19.795564078125,11.245054921874999,19.767295078125,11.176804921875Q19.739027078125,11.108564921875,19.724616078125,11.036114921875Q19.710205078125,10.963664921875,19.710205078125,10.889794921875L19.710205078125,4.289794921875Z" fill-rule="evenodd" fill="#FFFFFF" fill-opacity="1" style="mix-blend-mode:passthrough"/></g></g></g></svg>