<svg xmlns="http://www.w3.org/2000/svg" xmlns:xlink="http://www.w3.org/1999/xlink" fill="none" version="1.1" width="24" height="24" viewBox="0 0 24 24"><defs><clipPath id="master_svg0_58_1415"><rect x="0" y="0" width="24" height="24" rx="0"/></clipPath></defs><g style="opacity:0.6000000238418579;" clip-path="url(#master_svg0_58_1415)"><g><path d="M2.25,4.5L2.25,19.5Q2.25,20.432,2.9090137,21.091Q3.5680199999999997,21.75,4.5,21.75L19.5,21.75Q20.432,21.75,21.091,21.091Q21.75,20.432,21.75,19.5L21.75,6.60325Q21.75,6.447369999999999,21.6879,6.304399999999999Q21.6258,6.16143,21.5118,6.05505L17.6525,2.451796Q17.5484,2.354541,17.4158,2.302271Q17.2832,2.25,17.140700000000002,2.25L4.5,2.25Q3.568021,2.25,2.9090106000000002,2.9090105Q2.25,3.568021,2.25,4.5ZM4.5,20.25Q3.75,20.25,3.75,19.5L3.75,4.5Q3.75,3.75,4.5,3.75L16.845,3.75L20.25,6.92909L20.25,19.5Q20.25,20.25,19.5,20.25L4.5,20.25Z" fill-rule="evenodd" fill="#FFFFFF" fill-opacity="1"/></g><g></g><g><path d="M12.00415,2.25L7,2.25Q6.9261315,2.25,6.853682,2.264411Q6.781233,2.278822,6.712987,2.30709Q6.644742,2.335359,6.583322,2.376398Q6.521903,2.417437,6.46967,2.46967Q6.417437,2.521903,6.376398,2.583322Q6.335359,2.644742,6.30709,2.712987Q6.278822,2.781233,6.264411,2.853682Q6.25,2.9261315,6.25,3L6.25,6.6922999999999995Q6.25,7.23886,6.753369,7.54862Q7.0806025,7.75,7.5,7.75L11.5,7.75Q11.9194,7.75,12.24663,7.54862Q12.75,7.23886,12.75,6.69314L12.75415,3.000842952L12.75415,3Q12.75415,2.9261315,12.739740000000001,2.853682Q12.72533,2.781233,12.69706,2.712987Q12.668790000000001,2.644742,12.627749999999999,2.583322Q12.58671,2.521903,12.53448,2.46967Q12.48225,2.417437,12.420829999999999,2.376398Q12.35941,2.335359,12.29116,2.30709Q12.22292,2.278822,12.15047,2.264411Q12.07802,2.25,12.00415,2.25ZM7.75,3.75L7.75,6.25L11.250499999999999,6.25L11.253309999999999,3.75L7.75,3.75Z" fill-rule="evenodd" fill="#FFFFFF" fill-opacity="1"/></g><g><path d="M4.5,2.25L17.140700000000002,2.25Q17.2146,2.25,17.287,2.264411Q17.3595,2.278822,17.4277,2.30709Q17.496000000000002,2.335359,17.5574,2.376398Q17.6188,2.417437,17.671,2.46967Q17.723300000000002,2.521903,17.7643,2.583322Q17.805300000000003,2.644742,17.8336,2.712987Q17.8619,2.781233,17.8763,2.853682Q17.890700000000002,2.9261315,17.890700000000002,3Q17.890700000000002,3.0738685,17.8763,3.146318Q17.8619,3.218767,17.8336,3.287013Q17.805300000000003,3.355258,17.7643,3.416678Q17.723300000000002,3.478097,17.671,3.53033Q17.6188,3.582563,17.5574,3.623602Q17.496000000000002,3.664641,17.4277,3.69291Q17.3595,3.721178,17.287,3.735589Q17.2146,3.75,17.140700000000002,3.75L4.5,3.75Q4.4261315,3.75,4.353682,3.735589Q4.281233,3.721178,4.212987,3.69291Q4.144742,3.664641,4.083322,3.623602Q4.021903,3.582563,3.96967,3.53033Q3.917437,3.478097,3.876398,3.416678Q3.835359,3.355258,3.80709,3.287013Q3.778822,3.218767,3.764411,3.146318Q3.75,3.0738685,3.75,3Q3.75,2.9261315,3.764411,2.853682Q3.778822,2.781233,3.80709,2.712987Q3.835359,2.644742,3.876398,2.583322Q3.917437,2.521903,3.96967,2.46967Q4.021903,2.417437,4.083322,2.376398Q4.144742,2.335359,4.212987,2.30709Q4.281233,2.278822,4.353682,2.264411Q4.4261315,2.25,4.5,2.25Z" fill-rule="evenodd" fill="#FFFFFF" fill-opacity="1"/></g><g><path d="M7,12.25L17,12.25Q17.073900000000002,12.25,17.1463,12.264410999999999Q17.2188,12.278822,17.287,12.30709Q17.3553,12.335359,17.4167,12.376398Q17.478099999999998,12.417437,17.5303,12.46967Q17.5826,12.521903,17.6236,12.583322Q17.6646,12.644742,17.6929,12.712987Q17.7212,12.781233,17.735599999999998,12.853682Q17.75,12.9261315,17.75,13Q17.75,13.0738685,17.735599999999998,13.146318Q17.7212,13.218767,17.6929,13.287013Q17.6646,13.355258,17.6236,13.416678Q17.5826,13.478097,17.5303,13.53033Q17.478099999999998,13.582563,17.4167,13.623602Q17.3553,13.664641,17.287,13.69291Q17.2188,13.721178,17.1463,13.735589000000001Q17.073900000000002,13.75,17,13.75L7,13.75Q6.9261315,13.75,6.853682,13.735589000000001Q6.781233,13.721178,6.712987,13.69291Q6.644742,13.664641,6.583322,13.623602Q6.521903,13.582563,6.46967,13.53033Q6.417437,13.478097,6.376398,13.416678Q6.335359,13.355258,6.30709,13.287013Q6.278822,13.218767,6.264411,13.146318Q6.25,13.0738685,6.25,13Q6.25,12.9261315,6.264411,12.853682Q6.278822,12.781233,6.30709,12.712987Q6.335359,12.644742,6.376398,12.583322Q6.417437,12.521903,6.46967,12.46967Q6.521903,12.417437,6.583322,12.376398Q6.644742,12.335359,6.712987,12.30709Q6.781233,12.278822,6.853682,12.264410999999999Q6.9261315,12.25,7,12.25Z" fill-rule="evenodd" fill="#FFFFFF" fill-opacity="1"/></g><g><path d="M7,16.25L12.00415,16.25Q12.07802,16.25,12.15047,16.264411Q12.22292,16.278822,12.29116,16.30709Q12.35941,16.335359,12.420829999999999,16.376398000000002Q12.48225,16.417437,12.53448,16.46967Q12.58671,16.521903000000002,12.627749999999999,16.583322Q12.668790000000001,16.644742,12.69706,16.712987Q12.72533,16.781233,12.739740000000001,16.853682Q12.75415,16.9261315,12.75415,17Q12.75415,17.0738685,12.739740000000001,17.146318Q12.72533,17.218767,12.69706,17.287013Q12.668790000000001,17.355258,12.627749999999999,17.416678Q12.58671,17.478096999999998,12.53448,17.53033Q12.48225,17.582563,12.420829999999999,17.623601999999998Q12.35941,17.664641,12.29116,17.69291Q12.22292,17.721178,12.15047,17.735589Q12.07802,17.75,12.00415,17.75L7,17.75Q6.9261315,17.75,6.853682,17.735589Q6.781233,17.721178,6.712987,17.69291Q6.644742,17.664641,6.583322,17.623601999999998Q6.521903,17.582563,6.46967,17.53033Q6.417437,17.478096999999998,6.376398,17.416678Q6.335359,17.355258,6.30709,17.287013Q6.278822,17.218767,6.264411,17.146318Q6.25,17.0738685,6.25,17Q6.25,16.9261315,6.264411,16.853682Q6.278822,16.781233,6.30709,16.712987Q6.335359,16.644742,6.376398,16.583322Q6.417437,16.521903000000002,6.46967,16.46967Q6.521903,16.417437,6.583322,16.376398000000002Q6.644742,16.335359,6.712987,16.30709Q6.781233,16.278822,6.853682,16.264411Q6.9261315,16.25,7,16.25Z" fill-rule="evenodd" fill="#FFFFFF" fill-opacity="1"/></g></g></svg>