<svg xmlns="http://www.w3.org/2000/svg" xmlns:xlink="http://www.w3.org/1999/xlink" fill="none" version="1.1" width="16" height="16" viewBox="0 0 16 16"><g><path d="M8,0C3.6,0,0,3.6,0,8C0,12.4,3.6,16,8,16C12.4,16,16,12.4,16,8C16,3.6,12.4,0,8,0ZM11.707,6.707L7.707,10.707C7.31719,11.099,6.68281,11.099,6.293,10.707L4.293,8.707C3.90202,8.31662,3.90178,7.68313,4.29245,7.29245C4.68313,6.90178,5.31662,6.90202,5.707,7.293L7,8.586L10.293,5.293C10.6835,4.90254,11.3165,4.90254,11.707,5.293C12.0975,5.68347,12.0975,6.31654,11.707,6.707Z" fill="#11D473" fill-opacity="1" style="mix-blend-mode:passthrough"/></g></svg>