<svg xmlns="http://www.w3.org/2000/svg" xmlns:xlink="http://www.w3.org/1999/xlink" fill="none" version="1.1" width="24" height="24" viewBox="0 0 24 24"><defs><clipPath id="master_svg0_16_4451"><rect x="0" y="0" width="24" height="24" rx="0"/></clipPath></defs><g clip-path="url(#master_svg0_16_4451)"><g><path d="M14.5,6.500244140625L20.49995,6.500244140625Q20.59844,6.500244140625,20.69504,6.519459140625Q20.79164,6.538674140625,20.88263,6.576365140625Q20.97363,6.614056140625,21.05552,6.668774140625Q21.13741,6.723493140625,21.20706,6.793137140625Q21.276699999999998,6.862781140625,21.33142,6.944674140625Q21.38614,7.026566140625,21.42383,7.117561140625Q21.46152,7.208555140625,21.48074,7.305154140625Q21.49995,7.401752740625,21.49995,7.500244140625L21.49995,13.500244140625Q21.49995,13.598734140625,21.48074,13.695334140625Q21.46152,13.791934140625,21.42383,13.882924140625Q21.38614,13.973924140625,21.33142,14.055814140625Q21.276699999999998,14.137704140625,21.20706,14.207354140625Q21.13741,14.276994140625,21.05552,14.331714140625Q20.97363,14.386434140625,20.88263,14.424124140625Q20.79164,14.461814140625,20.69504,14.481024140625Q20.59844,14.500244140625,20.49995,14.500244140625Q20.40146,14.500244140625,20.304859999999998,14.481024140625Q20.20826,14.461814140625,20.11727,14.424124140625Q20.02627,14.386434140625,19.94438,14.331714140625Q19.86249,14.276994140625,19.792839999999998,14.207354140625Q19.7232,14.137704140625,19.66848,14.055814140625Q19.61376,13.973924140625,19.57607,13.882924140625Q19.53838,13.791934140625,19.51916,13.695334140625Q19.49995,13.598734140625,19.49995,13.500244140625L19.49995,8.500244140625L14.5,8.500244140625Q14.4015086,8.500244140625,14.30491,8.481029140625001Q14.208311,8.461814140625,14.117317,8.424123140625Q14.026322,8.386432140625,13.94443,8.331714140625Q13.862537,8.276995140625,13.792893,8.207351140625Q13.723249,8.137707140625,13.66853,8.055814140625Q13.613812,7.973922140625,13.576121,7.882927140625Q13.53843,7.791933140625,13.519214999999999,7.695334140625Q13.5,7.598735540625,13.5,7.500244140625Q13.5,7.401752740625,13.519214999999999,7.305154140625Q13.53843,7.208555140625,13.576121,7.117561140625Q13.613812,7.026566140625,13.66853,6.944674140625Q13.723249,6.862781140625,13.792893,6.793137140625Q13.862537,6.723493140625,13.94443,6.668774140625Q14.026322,6.614056140625,14.117317,6.576365140625Q14.208311,6.538674140625,14.30491,6.519459140625Q14.4015086,6.500244140625,14.5,6.500244140625Z" fill-rule="evenodd" fill="#46D39A" fill-opacity="1" style="mix-blend-mode:passthrough"/></g><g><path d="M21.2229,8.190962Q21.3563,8.051408,21.4281,7.872229Q21.5,7.693051,21.5,7.5Q21.5,7.4015086,21.4808,7.30491Q21.4616,7.208311,21.4239,7.117317Q21.3862,7.026322,21.3315,6.94443Q21.2767,6.862537,21.2071,6.792893Q21.1375,6.723249,21.0556,6.66853Q20.9737,6.613812,20.8827,6.576121Q20.7917,6.53843,20.6951,6.519215Q20.5985,6.5,20.5,6.5Q20.2952,6.5,20.1069,6.5805Q19.9186,6.660999,19.7771,6.809038L12.92546,13.97729L8.68962,11.39606Q8.61326,11.34952,8.52984,11.31728Q8.44643,11.285029999999999,8.35862,11.2681Q8.27081,11.25116,8.18139,11.250070000000001Q8.09197,11.24899,8.003779999999999,11.26379Q7.91558,11.27858,7.83141,11.3088Q7.74724,11.33901,7.66977,11.38367Q7.5923,11.42834,7.52398,11.48605Q7.45566,11.54375,7.39866,11.61266L2.229856,17.862099999999998L2.2294140000000002,17.8627Q2.1182,17.9971,2.0591,18.1613Q2,18.325499999999998,2,18.5Q2,18.5985,2.019215,18.6951Q2.03843,18.7917,2.076121,18.8827Q2.1138120000000002,18.9737,2.16853,19.0556Q2.223249,19.1375,2.292893,19.2071Q2.362537,19.276699999999998,2.44443,19.3315Q2.526322,19.386200000000002,2.617317,19.4239Q2.708311,19.4616,2.80491,19.480800000000002Q2.9015086,19.5,3,19.5Q3.110415,19.5,3.218171,19.4759Q3.325927,19.4518,3.425831,19.4048Q3.525735,19.357799999999997,3.612975,19.290100000000002Q3.700214,19.2224,3.7705859999999998,19.1373L3.771027,19.1368L8.388110000000001,13.55441L12.57193,16.10394Q12.64443,16.14812,12.72335,16.17945Q12.80227,16.21078,12.88534,16.22835Q12.9684,16.245919999999998,13.0532,16.24924Q13.1381,16.25255,13.2223,16.24152Q13.3065,16.23048,13.3876,16.20541Q13.4687,16.18034,13.5444,16.14195Q13.6202,16.10356,13.6883,16.05295Q13.7565,16.00234,13.8152,15.94096L21.2229,8.190962Z" fill-rule="evenodd" fill="#46D39A" fill-opacity="1" style="mix-blend-mode:passthrough"/></g></g></svg>