<svg xmlns="http://www.w3.org/2000/svg" xmlns:xlink="http://www.w3.org/1999/xlink" fill="none" version="1.1" width="20" height="20" viewBox="0 0 20 20"><defs><clipPath id="master_svg0_75_03274"><rect x="0" y="0" width="20" height="20" rx="0"/></clipPath></defs><g clip-path="url(#master_svg0_75_03274)"><g><path d="M19.466151171875,10Q19.466151171875,10.2455,19.454551171875,10.4907Q19.442951171875,10.7359,19.419751171875,10.9802Q19.396651171875,11.2245,19.361951171875,11.4673Q19.327251171875,11.7101,19.281051171875,11.9509Q19.234951171875,12.1917,19.177451171875,12.4298Q19.120051171875,12.6679,19.051351171875,12.9028Q18.982751171875,13.1378,18.903051171875,13.3689Q18.823351171875,13.6,18.732851171875,13.8268Q18.642351171875,14.0536,18.541251171875,14.2755Q18.440151171875,14.4975,18.328751171875,14.714Q18.217251171875,14.9305,18.095651171875,15.141Q17.974051171875,15.3516,17.842751171875,15.5557Q17.711351171875,15.7598,17.570451171875,15.957Q17.429551171875,16.1542,17.279551171875,16.3439Q17.129551171875,16.5337,16.970751171875,16.7156Q16.811951171875,16.8975,16.644751171875,17.0711Q16.477451171875,17.2446,16.302251171875,17.4095Q16.127051171875,17.5744,15.944251171875,17.7301Q15.761451171875,17.8858,15.571451171875,18.0321Q15.381551171875,18.1783,15.184951171875,18.3147Q14.988351171875,18.4511,14.785451171875,18.5773Q14.582651171875,18.7035,14.374051171875,18.8192Q14.165551171875,18.9349,13.951751171875,19.0399Q13.737951171875,19.1448,13.519451171875,19.2388Q13.301051171875,19.3327,13.078351171875,19.4154Q12.855751171875,19.4981,12.629451171875,19.5694Q12.403151171875,19.6407,12.173751171875,19.7003Q11.944351171875,19.76,11.712351171875,19.8078Q11.480451171875,19.8557,11.246551171875,19.8918Q11.012651171875,19.9278,10.777251171875,19.9518Q10.541951171875,19.9759,10.305751171875,19.988Q10.069541171875,20,9.833061171875,20Q9.596591171875,20,9.360391171875,19.988Q9.124191171875,19.9759,8.888851171875,19.9518Q8.653511171875,19.9278,8.419591171875,19.8918Q8.185671171875,19.8557,7.953741171875,19.8078Q7.721801171875,19.76,7.492411171875,19.7003Q7.263021171875,19.6407,7.036721171875,19.5694Q6.810421171875,19.4981,6.587761171875,19.4154Q6.365111171875,19.3327,6.146631171875,19.2388Q5.928151171875,19.1448,5.714381171875,19.0399Q5.500601171875,18.9349,5.292051171875,18.8192Q5.083491171875,18.7035,4.880651171875,18.5773Q4.677821171875,18.4511,4.481191171875,18.3147Q4.284571171875,18.1783,4.094631171875,18.0321Q3.904681171875,17.8858,3.721881171875,17.7301Q3.539081171875,17.5744,3.363861171875,17.4095Q3.188641171875,17.2446,3.021421171875,17.0711Q2.854211171875,16.8975,2.695401171875,16.7156Q2.536591171875,16.5337,2.386571171875,16.3439Q2.236541171875,16.1542,2.095671171875,15.957Q1.954801171875,15.7598,1.823421171875,15.5557Q1.692041171875,15.3516,1.570471171875,15.141Q1.448891171875,14.9305,1.337421171875,14.714Q1.225941171875,14.4975,1.124833171875,14.2755Q1.023725171875,14.0536,0.933228171875,13.8268Q0.842731171875,13.6,0.763064171875,13.3689Q0.683396171875,13.1378,0.6147501718749999,12.9028Q0.546103171875,12.6679,0.488643171875,12.4298Q0.431183171875,12.1917,0.385049171875,11.9509Q0.338914171875,11.7101,0.304215171875,11.4673Q0.269516271875,11.2245,0.24633727187499999,10.9802Q0.223158171875,10.7359,0.211554671875,10.4907Q0.199951171875,10.2455,0.199951171875,10Q0.199951171875,9.75451,0.211554671875,9.50932Q0.223158171875,9.26413,0.24633727187499999,9.01983Q0.269516271875,8.77552,0.304215171875,8.53269Q0.338914171875,8.28987,0.385049171875,8.0491Q0.431183171875,7.80833,0.488643171875,7.5702Q0.546103171875,7.33207,0.6147501718749999,7.09715Q0.683396171875,6.86224,0.763064171875,6.6311Q0.842731171875,6.39996,0.933228171875,6.17316Q1.023725171875,5.94636,1.124833171875,5.72445Q1.225941171875,5.50253,1.337421171875,5.28603Q1.448891171875,5.06953,1.570471171875,4.85897Q1.692041171875,4.64841,1.823421171875,4.4443Q1.954801171875,4.24018,2.095671171875,4.04301Q2.236541171875,3.84583,2.386571171875,3.65607Q2.536591171875,3.4663,2.695401171875,3.28441Q2.854211171875,3.10252,3.021421171875,2.92893Q3.188641171875,2.75535,3.363861171875,2.59049Q3.539081171875,2.42563,3.721881171875,2.2699Q3.904681171875,2.11416,4.094621171875,1.96792Q4.284571171875,1.82169,4.481191171875,1.6853Q4.677821171875,1.54892,4.880651171875,1.42271Q5.083491171875,1.29651,5.292051171875,1.18079Q5.500601171875,1.06507,5.714381171875,0.960107Q5.928151171875,0.855148,6.146631171875,0.761205Q6.365111171875,0.667261,6.587771171875,0.584559Q6.810421171875,0.501857,7.036721171875,0.430597Q7.263021171875,0.359336,7.492411171875,0.299687Q7.721801171875,0.240039,7.953741171875,0.192147Q8.185671171875,0.144255,8.419591171875,0.108235Q8.653511171875,0.0722146,8.888851171875,0.0481527Q9.124191171875,0.0240909,9.360391171875,0.0120454Q9.596591171875,0,9.833061171875,0Q10.069541171875,0,10.305751171875,0.0120454Q10.541951171875,0.0240909,10.777251171875,0.0481527Q11.012651171875,0.0722146,11.246551171875,0.108235Q11.480451171875,0.144255,11.712351171875,0.192147Q11.944351171875,0.240039,12.173751171875,0.299687Q12.403151171875,0.359336,12.629451171875,0.430597Q12.855751171875,0.501857,13.078351171875,0.584559Q13.301051171875,0.667261,13.519451171875,0.761205Q13.737951171875,0.855148,13.951751171875,0.960107Q14.165551171875,1.06507,14.374051171875,1.18079Q14.582651171875,1.29651,14.785451171875,1.42271Q14.988351171875,1.54892,15.184951171875,1.6853Q15.381551171875,1.82169,15.571551171875,1.96792Q15.761451171875,2.11416,15.944251171875,2.2699Q16.127051171875,2.42563,16.302251171875,2.59049Q16.477451171875,2.75535,16.644751171875,2.92893Q16.811951171875,3.10252,16.970751171875,3.28441Q17.129551171875,3.4663,17.279551171875,3.65607Q17.429551171875,3.84583,17.570451171875,4.04301Q17.711351171875,4.24018,17.842751171875,4.4443Q17.974051171875,4.64841,18.095651171875,4.85897Q18.217251171875,5.06953,18.328751171875,5.28603Q18.440151171875,5.50253,18.541251171875,5.72445Q18.642351171875,5.94636,18.732851171875,6.17316Q18.823351171875,6.39996,18.903051171875,6.6311Q18.982751171875,6.86224,19.051351171875,7.09715Q19.120051171875,7.33207,19.177451171875,7.5702Q19.234951171875,7.80833,19.281051171875,8.0491Q19.327251171875,8.28987,19.361951171875,8.53269Q19.396651171875,8.77552,19.419751171875,9.01983Q19.442951171875,9.26413,19.454551171875,9.50932Q19.466151171875,9.75451,19.466151171875,10Z" fill="#0371FF" fill-opacity="1" style="mix-blend-mode:passthrough"/></g><g><path d="M6.24899,7.72297171875C8.18673,5.75835771875,11.33231,5.75835771875,13.27005,7.72297171875L13.50347,7.96143171875C13.6018,8.05821171875,13.6018,8.22081171875,13.50347,8.31759171875L12.70614,9.12528171875C12.65724,9.17605171875,12.57795,9.17605171875,12.52904,9.12528171875L12.20892,8.80220171875C10.85436,7.43066171875,8.66468,7.43066171875,7.3101199999999995,8.80220171875L6.96777,9.14913171875C6.91896,9.20084171875,6.83874,9.20084171875,6.78993,9.14913171875L5.9925999999999995,8.34143171875C5.89471,8.24446171875,5.89471,8.08225171875,5.9925999999999995,7.9852817187500005L6.24899,7.72374171875L6.24899,7.72297171875ZM14.9225,9.39528171875L15.6339,10.11374171875C15.7318,10.21072171875,15.7318,10.37292171875,15.6339,10.469891718749999L12.43123,13.71605171875C12.33363,13.81374171875,12.17907,13.81374171875,12.08147,13.71605171875L9.8088,11.41143171875C9.78435,11.38788171875,9.74655,11.38788171875,9.722100000000001,11.41143171875L7.4494299999999996,13.71605171875C7.3517399999999995,13.814231718750001,7.196619999999999,13.814231718750001,7.09893,13.71605171875L3.8859153,10.46990171875C3.7880282,10.37292171875,3.7880282,10.21072171875,3.8859153,10.11374171875L4.597284,9.39528171875C4.694879,9.29759171875,4.8494399999999995,9.29759171875,4.94704,9.39528171875L7.21971,11.699901718749999C7.24194,11.72297171875,7.283440000000001,11.72297171875,7.30641,11.699901718749999L9.57909,9.39528171875C9.676680000000001,9.29759171875,9.83125,9.29759171875,9.928840000000001,9.39528171875L12.20152,11.699901718749999C12.22375,11.72297171875,12.26524,11.72297171875,12.28821,11.699901718749999L14.5609,9.39528171875C14.663,9.297531718750001,14.8204,9.297531718750001,14.9225,9.39528171875Z" fill="#FFFFFF" fill-opacity="1" style="mix-blend-mode:passthrough"/></g></g></svg>